<svg width="570" height="470" viewBox="0 0 570 470" fill="none" xmlns="http://www.w3.org/2000/svg">
<g opacity="0.6" filter="url(#filter0_f_49_56)">
<ellipse cx="277.423" cy="293.5" rx="124.831" ry="123.421" transform="rotate(-150.5 277.423 293.5)" fill="#3FB1F8"/>
</g>
<path d="M435.583 371.439C398.196 381.671 389.361 378.813 382.702 388.833C381.939 389.986 378.025 395.866 378.821 403.402C379.438 409.411 382.8 414.056 384.895 416.102C397.693 428.494 432.936 413.325 453.123 396.743C457.525 393.121 469.332 383.425 466.944 376.539C465.97 373.713 462.949 372.316 460.773 371.342C451.174 367.054 441.219 369.896 435.583 371.439Z" fill="url(#paint0_linear_49_56)"/>
<path d="M320.158 120.175H328.116V172.39H320.158V120.175Z" fill="url(#paint1_linear_49_56)"/>
<path d="M296.657 201.234H351.617C355.661 201.234 358.958 197.953 358.958 193.893V174.257C358.958 170.213 355.677 166.916 351.617 166.916H296.673C292.629 166.916 289.333 170.197 289.333 174.257V193.893C289.333 197.937 292.613 201.234 296.657 201.234Z" fill="url(#paint2_linear_49_56)"/>
<path d="M199.568 315.343C199.568 347.061 225.278 372.771 256.996 372.771H391.261C422.849 372.771 448.689 346.931 448.689 315.343V285.508C448.689 229.298 402.711 183.32 346.5 183.32H301.74C245.53 183.32 199.552 229.298 199.552 285.508V315.343H199.568Z" fill="url(#paint3_linear_49_56)"/>
<path d="M238.758 309.902C242.023 311.51 245.677 312.355 249.38 312.355H398.894C402.614 312.355 406.268 311.51 409.516 309.902C417.523 305.939 422.038 297.949 420.917 289.747L420.836 289.146C417.003 261.374 391.846 240.017 361.02 238.426C347.979 237.743 334.288 237.402 319.996 237.484C308.806 237.549 297.989 237.873 287.579 238.409C256.623 240.001 231.287 261.277 227.438 289.146C227.406 289.341 227.39 289.552 227.357 289.747C226.236 297.965 230.751 305.956 238.758 309.902Z" fill="url(#paint4_linear_49_56)"/>
<path d="M363.538 306.248C347.966 306.248 335.343 293.625 335.343 278.054C335.343 262.482 347.966 249.859 363.538 249.859C379.109 249.859 391.732 262.482 391.732 278.054C391.732 293.625 379.109 306.248 363.538 306.248Z" fill="url(#paint5_radial_49_56)"/>
<path d="M363.538 298.29C352.362 298.29 343.302 289.23 343.302 278.054C343.302 266.877 352.362 257.817 363.538 257.817C374.714 257.817 383.774 266.877 383.774 278.054C383.774 289.23 374.714 298.29 363.538 298.29Z" fill="#EEFDFF"/>
<path d="M363.538 295.042C354.155 295.042 346.55 287.436 346.55 278.054C346.55 268.671 354.155 261.065 363.538 261.065C372.92 261.065 380.526 268.671 380.526 278.054C380.526 287.436 372.92 295.042 363.538 295.042Z" fill="url(#paint6_linear_49_56)"/>
<path d="M352.656 273.652C352.656 277.128 355.482 279.954 358.958 279.954C362.433 279.954 365.259 277.128 365.259 273.652C365.259 270.177 362.433 267.351 358.958 267.351C355.466 267.351 352.656 270.177 352.656 273.652Z" fill="#EEFDFF"/>
<path d="M287.384 306.248C271.812 306.248 259.189 293.625 259.189 278.054C259.189 262.482 271.812 249.859 287.384 249.859C302.955 249.859 315.578 262.482 315.578 278.054C315.578 293.625 302.955 306.248 287.384 306.248Z" fill="url(#paint7_radial_49_56)"/>
<path d="M287.384 298.29C276.208 298.29 267.147 289.23 267.147 278.054C267.147 266.877 276.208 257.817 287.384 257.817C298.56 257.817 307.62 266.877 307.62 278.054C307.62 289.23 298.56 298.29 287.384 298.29Z" fill="#EEFDFF"/>
<path d="M287.384 295.042C278.002 295.042 270.396 287.436 270.396 278.054C270.396 268.671 278.002 261.065 287.384 261.065C296.766 261.065 304.372 268.671 304.372 278.054C304.372 287.436 296.766 295.042 287.384 295.042Z" fill="url(#paint8_linear_49_56)"/>
<path d="M276.502 273.652C276.502 277.128 279.328 279.954 282.803 279.954C286.279 279.954 289.105 277.128 289.105 273.652C289.105 270.177 286.279 267.351 282.803 267.351C279.328 267.351 276.502 270.177 276.502 273.652Z" fill="#EEFDFF"/>
<path d="M313.938 116.699C313.938 122.335 318.501 126.899 324.137 126.899C329.773 126.899 334.336 122.335 334.336 116.699C334.336 111.064 329.773 106.5 324.137 106.5C318.501 106.5 313.938 111.064 313.938 116.699Z" fill="url(#paint9_linear_49_56)"/>
<path d="M293.685 324.47C293.961 327.166 296.202 329.245 298.915 329.505L336.253 333.11C338.949 333.37 341.563 331.762 342.343 329.164C342.7 328.011 342.96 326.825 343.139 325.591C343.187 325.25 343.106 324.909 342.895 324.633C342.684 324.357 342.375 324.194 342.034 324.162L294.919 319.614C294.578 319.582 294.253 319.695 293.994 319.907C293.734 320.134 293.588 320.442 293.571 320.784C293.523 322.034 293.571 323.252 293.685 324.47Z" fill="#EEFDFF"/>
<path d="M293.685 324.47C294.871 336.05 304.08 345.567 316.114 346.72C327.97 347.874 338.689 340.516 342.197 329.619C341.255 331.941 338.803 333.37 336.253 333.11L298.899 329.521C296.203 329.245 293.962 327.166 293.685 324.47Z" fill="url(#paint10_linear_49_56)"/>
<path d="M234.844 408.339C234.844 408.68 234.844 409.005 234.861 409.329C234.974 412.464 235.705 414.819 236.062 415.874C246.343 447.268 252.498 463.834 261.139 477.233C262.633 479.539 264.192 481.764 265.881 483.94C268.09 486.848 270.51 489.69 273.189 492.613C279.15 499.11 288.18 502.049 291.087 503.056C301.725 506.808 311.128 506.126 317.365 506.191H318.453C324.722 506.126 334.109 506.824 344.731 503.056C347.638 502.049 356.684 499.11 362.628 492.613C379.032 474.764 385.35 459.92 399.755 415.874C400.096 414.868 400.779 412.675 400.941 409.735C400.99 408.891 401.006 408.03 400.957 407.186C400.649 401.923 398.505 396.759 394.721 392.049C388.224 383.961 378.204 379.527 367.842 379.495L317.885 379.284L268.837 379.089C258.248 379.04 247.983 383.49 241.26 391.675C238.011 395.638 235.933 399.926 235.169 404.343C235.072 404.977 234.974 405.61 234.909 406.244C234.893 406.926 234.844 407.624 234.844 408.339Z" fill="url(#paint11_linear_49_56)"/>
<path d="M317.933 379.267L367.89 379.479C378.252 379.527 388.289 383.961 394.769 392.033C398.553 396.743 400.697 401.907 401.006 407.169C400.746 401.777 398.537 396.467 394.574 391.659C387.867 383.474 377.586 379.024 366.997 379.072L317.933 379.267Z" fill="url(#paint12_linear_49_56)"/>
<path d="M268.285 452.871C269.016 414.12 274.261 406.455 266.531 397.23C265.637 396.174 261.106 390.766 253.652 389.385C247.707 388.281 242.315 390.181 239.766 391.643C224.255 400.429 228.868 438.514 239.067 462.551C241.292 467.797 247.269 481.862 254.545 481.521C257.533 481.391 259.726 478.873 261.269 477.071C268.09 469.08 268.171 458.718 268.285 452.871Z" fill="url(#paint13_linear_49_56)"/>
<path d="M261.154 477.233C262.649 479.539 264.208 481.764 265.897 483.941C266.433 483.388 266.904 482.836 267.342 482.333C274.18 474.342 274.245 463.98 274.358 458.134C275.089 419.383 280.335 411.717 272.604 402.508C272.036 401.826 269.957 399.358 266.595 397.311C274.228 406.504 269.031 414.234 268.3 452.872C268.203 458.718 268.106 469.08 261.284 477.087C261.219 477.119 261.171 477.168 261.154 477.233Z" fill="url(#paint14_linear_49_56)"/>
<defs>
<filter id="filter0_f_49_56" x="-47.09" y="-30.2858" width="649.026" height="647.572" filterUnits="userSpaceOnUse" color-interpolation-filters="sRGB">
<feFlood flood-opacity="0" result="BackgroundImageFix"/>
<feBlend mode="normal" in="SourceGraphic" in2="BackgroundImageFix" result="shape"/>
<feGaussianBlur stdDeviation="100" result="effect1_foregroundBlur_49_56"/>
</filter>
<linearGradient id="paint0_linear_49_56" x1="414.302" y1="395.002" x2="269.362" y2="507.648" gradientUnits="userSpaceOnUse">
<stop offset="0.0397" stop-color="#600EED"/>
<stop offset="1" stop-color="#DEFA8E"/>
</linearGradient>
<linearGradient id="paint1_linear_49_56" x1="340.353" y1="148.645" x2="316.485" y2="145.164" gradientUnits="userSpaceOnUse">
<stop offset="0.0397" stop-color="#5E0AF1"/>
<stop offset="1" stop-color="#F0F436"/>
</linearGradient>
<linearGradient id="paint2_linear_49_56" x1="346.441" y1="209.252" x2="304.083" y2="161.429" gradientUnits="userSpaceOnUse">
<stop offset="0.0397" stop-color="#6211E9"/>
<stop offset="1" stop-color="#CCCE14"/>
</linearGradient>
<linearGradient id="paint3_linear_49_56" x1="407.792" y1="374.903" x2="239.944" y2="207.055" gradientUnits="userSpaceOnUse">
<stop offset="0.0397" stop-color="#5E0AF1"/>
<stop offset="1" stop-color="#CCCE14"/>
</linearGradient>
<linearGradient id="paint4_linear_49_56" x1="324.58" y1="312.122" x2="323.088" y2="244.993" gradientUnits="userSpaceOnUse">
<stop stop-color="#02233A"/>
<stop offset="1" stop-color="#104160"/>
</linearGradient>
<radialGradient id="paint5_radial_49_56" cx="0" cy="0" r="1" gradientUnits="userSpaceOnUse" gradientTransform="translate(363.54 278.053) rotate(180) scale(27.8994)">
<stop offset="0.1296" stop-color="#3280FC"/>
<stop offset="1" stop-color="#0F213E"/>
</radialGradient>
<linearGradient id="paint6_linear_49_56" x1="380.536" y1="278.053" x2="346.545" y2="278.053" gradientUnits="userSpaceOnUse">
<stop stop-color="#030D14"/>
<stop offset="1" stop-color="#0B2F45"/>
</linearGradient>
<radialGradient id="paint7_radial_49_56" cx="0" cy="0" r="1" gradientUnits="userSpaceOnUse" gradientTransform="translate(287.383 278.053) rotate(180) scale(27.8994)">
<stop offset="0.1296" stop-color="#3280FC"/>
<stop offset="1" stop-color="#0F2444"/>
</radialGradient>
<linearGradient id="paint8_linear_49_56" x1="304.378" y1="278.053" x2="270.388" y2="278.053" gradientUnits="userSpaceOnUse">
<stop stop-color="#030D14"/>
<stop offset="1" stop-color="#0B2F45"/>
<stop offset="1" stop-color="#166FA5"/>
</linearGradient>
<linearGradient id="paint9_linear_49_56" x1="345.597" y1="119.823" x2="314.009" y2="115.217" gradientUnits="userSpaceOnUse">
<stop offset="0.0397" stop-color="#793ABB"/>
<stop offset="1" stop-color="#F1F30F"/>
</linearGradient>
<linearGradient id="paint10_linear_49_56" x1="325.158" y1="338.196" x2="276.561" y2="289.598" gradientUnits="userSpaceOnUse">
<stop offset="0.0714" stop-color="#5E0AF1"/>
<stop offset="1" stop-color="#DEFA8E"/>
</linearGradient>
<linearGradient id="paint11_linear_49_56" x1="371.057" y1="485.671" x2="242.297" y2="335.313" gradientUnits="userSpaceOnUse">
<stop offset="0.0397" stop-color="#06CFF1"/>
<stop offset="0.115881" stop-color="#6D25D3"/>
<stop offset="0.571412" stop-color="#B9F39F"/>
<stop offset="0.87119" stop-color="#CED210"/>
</linearGradient>
<linearGradient id="paint12_linear_49_56" x1="377.877" y1="410.711" x2="300.446" y2="320.291" gradientUnits="userSpaceOnUse">
<stop offset="0.0397" stop-color="#06CFF1"/>
<stop offset="1" stop-color="#DEFA8E"/>
</linearGradient>
<linearGradient id="paint13_linear_49_56" x1="211.506" y1="463.219" x2="307.911" y2="392.709" gradientUnits="userSpaceOnUse">
<stop offset="0.0397" stop-color="#5E0AF1"/>
<stop offset="1" stop-color="#DEFA8E"/>
</linearGradient>
<linearGradient id="paint14_linear_49_56" x1="296.464" y1="456.381" x2="228.141" y2="420.776" gradientUnits="userSpaceOnUse">
<stop offset="0.0397" stop-color="#A069FF"/>
<stop offset="1" stop-color="#DEFA8E"/>
</linearGradient>
</defs>
</svg>
