<svg width="43" height="69" viewBox="0 0 43 69" fill="none" xmlns="http://www.w3.org/2000/svg">
<path d="M37.7684 45.3499C31.8055 47.0984 30.3964 46.6099 29.3344 48.3223C29.2126 48.5194 28.5883 49.5241 28.7153 50.8118C28.8137 51.8387 29.3499 52.6325 29.684 52.9822C31.7252 55.0998 37.3462 52.5076 40.5659 49.6739C41.2679 49.055 43.151 47.3981 42.7702 46.2214C42.6148 45.7385 42.133 45.4998 41.7859 45.3333C40.2551 44.6006 38.6672 45.0863 37.7684 45.3499Z" fill="url(#paint0_linear_64_1191)"/>
<path d="M19.3592 2.41208H20.6284V11.3349H19.3592V2.41208Z" fill="url(#paint1_linear_64_1191)"/>
<path d="M15.6107 16.264H24.3763C25.0213 16.264 25.5471 15.7033 25.5471 15.0095V11.6541C25.5471 10.963 25.0239 10.3996 24.3763 10.3996H15.6133C14.9683 10.3996 14.4425 10.9602 14.4425 11.6541V15.0095C14.4425 15.7006 14.9657 16.264 15.6107 16.264Z" fill="url(#paint2_linear_64_1191)"/>
<path d="M0.126225 35.7638C0.126225 41.1841 4.22668 45.5775 9.28554 45.5775H30.6996C35.7377 45.5775 39.8589 41.1619 39.8589 35.7638V30.6654C39.8589 21.0599 32.5257 13.2028 23.5607 13.2028H16.4218C7.45678 13.2028 0.123638 21.0599 0.123638 30.6654V35.7638H0.126225Z" fill="url(#paint3_linear_64_1191)"/>
<path d="M6.37621 34.834C6.89686 35.1088 7.47968 35.2531 8.07027 35.2531H31.9166C32.5098 35.2531 33.0926 35.1088 33.6107 34.834C34.8877 34.1568 35.6078 32.7913 35.4291 31.3898L35.4161 31.2871C34.8048 26.5412 30.7924 22.8916 25.876 22.6196C23.796 22.503 21.6124 22.4447 19.3329 22.4586C17.5482 22.4697 15.823 22.5252 14.1627 22.6168C9.22554 22.8888 5.18467 26.5245 4.57076 31.2871C4.56558 31.3204 4.56299 31.3565 4.55781 31.3898C4.37908 32.7941 5.09919 34.1596 6.37621 34.834Z" fill="url(#paint4_linear_64_1191)"/>
<path d="M26.2776 34.2096C23.7942 34.2096 21.7809 32.0525 21.7809 29.3915C21.7809 26.7306 23.7942 24.5735 26.2776 24.5735C28.7611 24.5735 30.7744 26.7306 30.7744 29.3915C30.7744 32.0525 28.7611 34.2096 26.2776 34.2096Z" fill="url(#paint5_radial_64_1191)"/>
<path d="M26.2774 32.8496C24.4949 32.8496 23.0499 31.3014 23.0499 29.3915C23.0499 27.4817 24.4949 25.9334 26.2774 25.9334C28.0599 25.9334 29.5049 27.4817 29.5049 29.3915C29.5049 31.3014 28.0599 32.8496 26.2774 32.8496Z" fill="#EEFDFF"/>
<path d="M26.2776 32.2945C24.7812 32.2945 23.5681 30.9948 23.5681 29.3915C23.5681 27.7882 24.7812 26.4885 26.2776 26.4885C27.774 26.4885 28.9871 27.7882 28.9871 29.3915C28.9871 30.9948 27.774 32.2945 26.2776 32.2945Z" fill="url(#paint6_linear_64_1191)"/>
<path d="M24.5422 28.6393C24.5422 29.2333 24.9929 29.7162 25.5472 29.7162C26.1015 29.7162 26.5522 29.2333 26.5522 28.6393C26.5522 28.0454 26.1015 27.5625 25.5472 27.5625C24.9903 27.5625 24.5422 28.0454 24.5422 28.6393Z" fill="#EEFDFF"/>
<path d="M14.1319 34.2096C11.6484 34.2096 9.63513 32.0525 9.63513 29.3915C9.63513 26.7306 11.6484 24.5735 14.1319 24.5735C16.6154 24.5735 18.6287 26.7306 18.6287 29.3915C18.6287 32.0525 16.6154 34.2096 14.1319 34.2096Z" fill="url(#paint7_radial_64_1191)"/>
<path d="M14.1321 32.8496C12.3496 32.8496 10.9046 31.3014 10.9046 29.3915C10.9046 27.4816 12.3496 25.9334 14.1321 25.9334C15.9146 25.9334 17.3596 27.4816 17.3596 29.3915C17.3596 31.3014 15.9146 32.8496 14.1321 32.8496Z" fill="#EEFDFF"/>
<path d="M14.1321 32.2946C12.6357 32.2946 11.4226 30.9948 11.4226 29.3915C11.4226 27.7882 12.6357 26.4885 14.1321 26.4885C15.6285 26.4885 16.8416 27.7882 16.8416 29.3915C16.8416 30.9948 15.6285 32.2946 14.1321 32.2946Z" fill="url(#paint8_linear_64_1191)"/>
<path d="M12.3964 28.6393C12.3964 29.2333 12.8471 29.7162 13.4015 29.7162C13.9558 29.7162 14.4065 29.2333 14.4065 28.6393C14.4065 28.0454 13.9558 27.5625 13.4015 27.5625C12.8471 27.5625 12.3964 28.0454 12.3964 28.6393Z" fill="#EEFDFF"/>
<path d="M18.3672 1.81818C18.3672 2.78124 19.0951 3.56111 19.9939 3.56111C20.8927 3.56111 21.6206 2.78124 21.6206 1.81818C21.6206 0.855133 20.8927 0.0752563 19.9939 0.0752563C19.0951 0.0752563 18.3672 0.855133 18.3672 1.81818Z" fill="url(#paint9_linear_64_1191)"/>
<path d="M15.1367 37.3235C15.1807 37.7843 15.5382 38.1395 15.9708 38.1839L21.9259 38.8C22.3559 38.8445 22.7729 38.5697 22.8973 38.1256C22.9542 37.9286 22.9957 37.726 23.0242 37.515C23.032 37.4568 23.019 37.3985 22.9853 37.3513C22.9517 37.3041 22.9024 37.2764 22.848 37.2708L15.3336 36.4937C15.2792 36.4881 15.2274 36.5076 15.1859 36.5436C15.1445 36.5825 15.1212 36.6352 15.1186 36.6935C15.1108 36.9072 15.1186 37.1154 15.1367 37.3235Z" fill="#EEFDFF"/>
<path d="M15.1368 37.3235C15.3259 39.3024 16.7946 40.9287 18.714 41.1258C20.6049 41.3228 22.3145 40.0656 22.874 38.2033C22.7238 38.6002 22.3326 38.8444 21.926 38.8L15.9683 38.1867C15.5383 38.1395 15.1808 37.7842 15.1368 37.3235Z" fill="url(#paint10_linear_64_1191)"/>
<path d="M5.75217 51.6556C5.75217 51.7138 5.75217 51.7694 5.75476 51.8249C5.7729 52.3605 5.88946 52.7629 5.94644 52.9433C7.58611 58.3081 8.56783 61.139 9.94587 63.4287C10.1842 63.8228 10.4329 64.203 10.7022 64.5749C11.0545 65.0717 11.4405 65.5574 11.8679 66.0569C12.8185 67.1671 14.2587 67.6694 14.7224 67.8415C16.419 68.4826 17.9188 68.366 18.9135 68.3771H19.0871C20.0869 68.366 21.5841 68.4854 23.2782 67.8415C23.7418 67.6694 25.1846 67.1671 26.1327 66.0569C28.7489 63.0068 29.7565 60.4701 32.0541 52.9433C32.1085 52.7713 32.2173 52.3966 32.2432 51.8942C32.251 51.7499 32.2536 51.6028 32.2458 51.4585C32.1966 50.5593 31.8547 49.6767 31.2511 48.8719C30.215 47.4897 28.6168 46.7321 26.9642 46.7265L18.9964 46.6904L11.1737 46.6571C9.4848 46.6488 7.84773 47.4093 6.77534 48.808C6.25728 49.4852 5.92573 50.2179 5.80398 50.9728C5.78844 51.0811 5.7729 51.1893 5.76254 51.2975C5.75994 51.4141 5.75217 51.5334 5.75217 51.6556Z" fill="url(#paint11_linear_64_1191)"/>
<path d="M19.0043 46.6876L26.972 46.7237C28.6246 46.732 30.2255 47.4897 31.259 48.8691C31.8625 49.6739 32.2044 50.5565 32.2537 51.4557C32.2122 50.5343 31.8599 49.6267 31.2279 48.8052C30.1581 47.4065 28.5184 46.646 26.8296 46.6543L19.0043 46.6876Z" fill="url(#paint12_linear_64_1191)"/>
<path d="M11.0856 59.2656C11.2021 52.6436 12.0388 51.3336 10.8058 49.7572C10.6633 49.5768 9.94065 48.6526 8.7517 48.4167C7.80365 48.228 6.94367 48.5527 6.53699 48.8025C4.06326 50.304 4.7989 56.8122 6.42561 60.9197C6.78048 61.8161 7.73371 64.2196 8.89417 64.1613C9.37078 64.1391 9.72047 63.7089 9.96655 63.4009C11.0545 62.0354 11.0674 60.2647 11.0856 59.2656Z" fill="url(#paint13_linear_64_1191)"/>
<path d="M9.94839 63.4287C10.1867 63.8228 10.4354 64.2031 10.7048 64.575C10.7902 64.4806 10.8654 64.3863 10.9353 64.3002C12.0258 62.9347 12.0362 61.164 12.0543 60.1649C12.1709 53.5428 13.0075 52.2329 11.7746 50.6592C11.6839 50.5427 11.3523 50.1208 10.8161 49.7711C12.0336 51.342 11.2047 52.663 11.0881 59.2657C11.0726 60.2648 11.057 62.0355 9.96911 63.4038C9.95875 63.4093 9.95098 63.4176 9.94839 63.4287Z" fill="url(#paint14_linear_64_1191)"/>
<defs>
<linearGradient id="paint0_linear_64_1191" x1="34.3743" y1="49.3765" x2="10.078" y2="67.0001" gradientUnits="userSpaceOnUse">
<stop offset="0.0397" stop-color="#600EED"/>
<stop offset="1" stop-color="#DEFA8E"/>
</linearGradient>
<linearGradient id="paint1_linear_64_1191" x1="22.5801" y1="7.2773" x2="18.763" y2="6.75777" gradientUnits="userSpaceOnUse">
<stop offset="0.0397" stop-color="#5E0AF1"/>
<stop offset="1" stop-color="#F0F436"/>
</linearGradient>
<linearGradient id="paint2_linear_64_1191" x1="23.5508" y1="17.6343" x2="16.269" y2="9.96116" gradientUnits="userSpaceOnUse">
<stop offset="0.0397" stop-color="#6211E9"/>
<stop offset="1" stop-color="#CCCE14"/>
</linearGradient>
<linearGradient id="paint3_linear_64_1191" x1="33.3362" y1="45.9419" x2="4.72132" y2="19.2351" gradientUnits="userSpaceOnUse">
<stop offset="0.0397" stop-color="#5E0AF1"/>
<stop offset="1" stop-color="#CCCE14"/>
</linearGradient>
<linearGradient id="paint4_linear_64_1191" x1="20.064" y1="35.2134" x2="19.7909" y2="23.7426" gradientUnits="userSpaceOnUse">
<stop stop-color="#02233A"/>
<stop offset="1" stop-color="#104160"/>
</linearGradient>
<radialGradient id="paint5_radial_64_1191" cx="0" cy="0" r="1" gradientUnits="userSpaceOnUse" gradientTransform="translate(26.2781 29.3915) rotate(180) scale(4.44973 4.76765)">
<stop offset="0.1296" stop-color="#3280FC"/>
<stop offset="1" stop-color="#0F213E"/>
</radialGradient>
<linearGradient id="paint6_linear_64_1191" x1="28.9886" y1="29.3915" x2="23.5674" y2="29.3915" gradientUnits="userSpaceOnUse">
<stop stop-color="#030D14"/>
<stop offset="1" stop-color="#0B2F45"/>
</linearGradient>
<radialGradient id="paint7_radial_64_1191" cx="0" cy="0" r="1" gradientUnits="userSpaceOnUse" gradientTransform="translate(14.1318 29.3915) rotate(180) scale(4.44973 4.76765)">
<stop offset="0.1296" stop-color="#3280FC"/>
<stop offset="1" stop-color="#0F2444"/>
</radialGradient>
<linearGradient id="paint8_linear_64_1191" x1="16.8426" y1="29.3915" x2="11.4214" y2="29.3915" gradientUnits="userSpaceOnUse">
<stop stop-color="#030D14"/>
<stop offset="1" stop-color="#0B2F45"/>
<stop offset="1" stop-color="#166FA5"/>
</linearGradient>
<linearGradient id="paint9_linear_64_1191" x1="23.4166" y1="2.352" x2="18.365" y2="1.66443" gradientUnits="userSpaceOnUse">
<stop offset="0.0397" stop-color="#793ABB"/>
<stop offset="1" stop-color="#F1F30F"/>
</linearGradient>
<linearGradient id="paint10_linear_64_1191" x1="20.1565" y1="39.669" x2="11.8715" y2="31.9365" gradientUnits="userSpaceOnUse">
<stop offset="0.0714" stop-color="#5E0AF1"/>
<stop offset="1" stop-color="#DEFA8E"/>
</linearGradient>
<linearGradient id="paint11_linear_64_1191" x1="27.477" y1="64.8705" x2="5.29081" y2="40.6904" gradientUnits="userSpaceOnUse">
<stop offset="0.0397" stop-color="#06CFF1"/>
<stop offset="0.115881" stop-color="#6D25D3"/>
<stop offset="0.571412" stop-color="#B9F39F"/>
<stop offset="0.87119" stop-color="#CED210"/>
</linearGradient>
<linearGradient id="paint12_linear_64_1191" x1="28.5649" y1="52.0609" x2="15.223" y2="37.5198" gradientUnits="userSpaceOnUse">
<stop offset="0.0397" stop-color="#06CFF1"/>
<stop offset="1" stop-color="#DEFA8E"/>
</linearGradient>
<linearGradient id="paint13_linear_64_1191" x1="2.02984" y1="61.0338" x2="18.1289" y2="50.0443" gradientUnits="userSpaceOnUse">
<stop offset="0.0397" stop-color="#5E0AF1"/>
<stop offset="1" stop-color="#DEFA8E"/>
</linearGradient>
<linearGradient id="paint14_linear_64_1191" x1="15.58" y1="59.8654" x2="4.37452" y2="54.4153" gradientUnits="userSpaceOnUse">
<stop offset="0.0397" stop-color="#A069FF"/>
<stop offset="1" stop-color="#DEFA8E"/>
</linearGradient>
</defs>
</svg>
