<svg width="321" height="242" viewBox="0 0 321 242" fill="none" xmlns="http://www.w3.org/2000/svg">
<mask id="mask0_64_610" style="mask-type:alpha" maskUnits="userSpaceOnUse" x="0" y="0" width="321" height="242">
<rect x="0.5" width="320" height="242" fill="#0C0559"/>
</mask>
<g mask="url(#mask0_64_610)">
<rect x="-319.944" y="-39" width="652.444" height="281.778" fill="#1B1B1B"/>
<path d="M262.385 214.17C261.675 214.17 260.966 213.984 260.336 213.62L253.417 209.629C253.018 209.398 252.779 208.981 252.779 208.52C252.779 208.059 253.018 207.642 253.417 207.411L260.336 203.42C261.604 202.693 263.174 202.693 264.443 203.42L271.361 207.411C271.761 207.642 272 208.059 272 208.52C272 208.981 271.761 209.398 271.361 209.629L264.443 213.62C263.804 213.984 263.095 214.17 262.385 214.17ZM262.385 203.961C261.862 203.961 261.347 204.094 260.877 204.36L253.959 208.352C253.879 208.396 253.87 208.476 253.87 208.511C253.87 208.547 253.879 208.627 253.959 208.671L260.877 212.662C261.8 213.195 262.953 213.195 263.884 212.662L270.803 208.671C270.882 208.627 270.891 208.547 270.891 208.511C270.891 208.476 270.882 208.396 270.803 208.352L263.884 204.36C263.423 204.103 262.908 203.961 262.385 203.961Z" fill="url(#paint0_linear_64_610)"/>
<path d="M240.567 182.328C239.414 182.328 238.261 182.035 237.232 181.441L225.329 174.567C224.761 174.239 224.424 173.653 224.424 172.997C224.424 172.341 224.761 171.755 225.329 171.427L237.232 164.553C239.29 163.364 241.844 163.364 243.893 164.553L255.797 171.427C256.365 171.755 256.702 172.341 256.702 172.997C256.702 173.653 256.365 174.239 255.797 174.567L243.893 181.441C242.873 182.035 241.72 182.328 240.567 182.328ZM237.782 180.492C239.503 181.486 241.632 181.486 243.352 180.492L255.256 173.618C255.575 173.432 255.611 173.121 255.611 172.997C255.611 172.873 255.575 172.562 255.256 172.376L243.352 165.502C241.632 164.508 239.503 164.508 237.782 165.502L225.879 172.376C225.559 172.562 225.524 172.873 225.524 172.997C225.524 173.121 225.559 173.432 225.879 173.618L237.782 180.492Z" fill="url(#paint1_linear_64_610)"/>
<path opacity="0.6" d="M148.24 223.13L63.1324 173.99C61.8906 173.272 62.0502 172.021 63.4783 171.196L118.1 139.655C119.528 138.83 121.701 138.741 122.943 139.451L208.05 188.59C209.292 189.309 209.132 190.559 207.704 191.384L153.083 222.926C151.646 223.751 149.482 223.84 148.24 223.13Z" fill="#020230"/>
<path d="M150.191 232C149.198 232 148.24 231.796 147.512 231.37L50.3772 175.285C49.5878 174.824 49.1443 174.168 49.1443 173.423C49.1443 172.571 49.7386 171.737 50.7675 171.143L116.982 132.346C118.8 131.299 121.47 131.193 123.058 132.115L220.193 188.2C220.982 188.661 221.426 189.318 221.426 190.063C221.426 190.914 220.832 191.748 219.803 192.342L153.588 231.14C152.604 231.707 151.371 232 150.191 232ZM120.397 132.594C119.403 132.594 118.348 132.834 117.541 133.295L51.3263 172.092C50.6522 172.482 50.2442 172.979 50.2442 173.423C50.2442 173.848 50.6167 174.15 50.9272 174.336L148.062 230.421C149.304 231.14 151.584 231.033 153.038 230.191L219.253 191.393C219.927 191.003 220.335 190.506 220.335 190.063C220.335 189.637 219.962 189.335 219.652 189.149L122.517 133.064C121.958 132.754 121.195 132.594 120.397 132.594Z" fill="url(#paint2_linear_64_610)"/>
<path d="M230.66 106.215L145.88 57.2703C145.295 56.9333 144.692 56.8623 144.151 57.022H144.142L142.572 57.5719L143.122 57.7049C142.9 57.971 142.723 58.2904 142.607 58.6718L123.439 120.921C122.96 122.465 123.661 124.336 124.992 125.108L209.771 174.052C209.975 174.168 210.188 174.256 210.392 174.31L210.179 174.771L211.678 174.248C212.29 173.999 212.796 173.458 213.044 172.66L232.212 110.41C232.691 108.858 231.999 106.978 230.66 106.215Z" fill="url(#paint3_radial_64_610)"/>
<path d="M206.737 176.376L206.764 176.412L123.023 128.07C121.79 127.361 119.643 127.45 118.215 128.266L64.117 159.506L62.3164 158.814L62.822 161.342C62.893 161.723 63.1591 162.078 63.638 162.353L148.151 211.147C149.384 211.856 151.531 211.768 152.959 210.952L207.199 179.632C207.864 179.241 208.254 178.762 208.352 178.292L208.866 175.826L206.737 176.376Z" fill="url(#paint4_radial_64_610)"/>
<path d="M148.24 208.92L63.1324 159.781C61.8906 159.062 62.0502 157.812 63.4783 156.987L118.1 125.445C119.528 124.62 121.701 124.531 122.943 125.241L208.05 174.381C209.292 175.099 209.132 176.35 207.704 177.175L153.083 208.716C151.646 209.541 149.482 209.639 148.24 208.92Z" fill="url(#paint5_radial_64_610)"/>
<path d="M207.704 176.518L153.083 208.06C151.655 208.885 149.482 208.974 148.24 208.264L63.1324 159.124C62.7066 158.876 62.4583 158.574 62.3607 158.237C62.1922 158.805 62.4405 159.382 63.1324 159.781L148.24 208.92C149.482 209.639 151.646 209.55 153.083 208.716L207.704 177.175C208.644 176.634 209.026 175.906 208.822 175.259C208.698 175.711 208.334 176.155 207.704 176.518Z" fill="white"/>
<g opacity="0.4">
<path opacity="0.4" d="M103.721 151.807L100.847 150.148C100.617 150.015 100.643 149.784 100.909 149.625L104.298 147.664C104.564 147.513 104.963 147.496 105.194 147.629L108.068 149.287C108.298 149.421 108.272 149.651 108.005 149.811L104.617 151.771C104.36 151.922 103.952 151.94 103.721 151.807Z" fill="#06033E"/>
<path opacity="0.4" d="M108.165 154.37L105.291 152.711C105.06 152.578 105.087 152.348 105.353 152.188L108.741 150.228C109.008 150.077 109.407 150.059 109.637 150.192L112.511 151.851C112.742 151.984 112.715 152.215 112.449 152.374L109.061 154.334C108.795 154.485 108.395 154.503 108.165 154.37Z" fill="#06033E"/>
<path opacity="0.4" d="M112.6 156.933L109.726 155.275C109.495 155.142 109.522 154.911 109.788 154.751L113.176 152.791C113.443 152.64 113.842 152.623 114.072 152.756L116.946 154.414C117.177 154.547 117.15 154.778 116.884 154.938L113.496 156.898C113.23 157.049 112.831 157.066 112.6 156.933Z" fill="#06033E"/>
<path opacity="0.4" d="M118.738 154.813L115.864 153.155C115.634 153.022 115.66 152.791 115.927 152.631L118.774 150.99C119.04 150.84 119.439 150.822 119.67 150.955L122.544 152.614C122.774 152.747 122.748 152.977 122.481 153.137L119.634 154.778C119.368 154.929 118.969 154.946 118.738 154.813Z" fill="#06033E"/>
<path opacity="0.4" d="M123.173 157.377L120.299 155.718C120.069 155.585 120.095 155.355 120.361 155.195L123.209 153.554C123.475 153.403 123.874 153.385 124.105 153.518L126.978 155.177C127.209 155.31 127.182 155.541 126.916 155.7L124.069 157.341C123.812 157.492 123.404 157.51 123.173 157.377Z" fill="#06033E"/>
<path opacity="0.4" d="M127.608 159.94L124.735 158.282C124.504 158.149 124.531 157.918 124.797 157.758L127.644 156.117C127.91 155.967 128.309 155.949 128.54 156.082L131.414 157.741C131.644 157.874 131.618 158.104 131.352 158.264L128.504 159.905C128.247 160.056 127.839 160.073 127.608 159.94Z" fill="#06033E"/>
<path opacity="0.4" d="M132.052 162.504L129.178 160.845C128.948 160.712 128.974 160.481 129.24 160.322L132.088 158.681C132.354 158.53 132.753 158.512 132.983 158.645L135.857 160.304C136.088 160.437 136.061 160.668 135.795 160.827L132.948 162.468C132.682 162.619 132.283 162.637 132.052 162.504Z" fill="#06033E"/>
<path opacity="0.4" d="M136.487 165.058L133.613 163.4C133.383 163.267 133.409 163.036 133.675 162.876L136.523 161.235C136.789 161.085 137.188 161.067 137.418 161.2L140.292 162.859C140.523 162.992 140.496 163.222 140.23 163.382L137.383 165.023C137.117 165.174 136.718 165.191 136.487 165.058Z" fill="#06033E"/>
<path opacity="0.4" d="M140.922 167.622L138.048 165.963C137.817 165.83 137.844 165.599 138.11 165.44L140.957 163.799C141.224 163.648 141.623 163.63 141.853 163.763L144.727 165.422C144.958 165.555 144.931 165.786 144.665 165.945L141.818 167.586C141.561 167.737 141.153 167.755 140.922 167.622Z" fill="#06033E"/>
<path opacity="0.4" d="M145.366 170.185L142.492 168.526C142.262 168.393 142.288 168.163 142.554 168.003L145.402 166.362C145.668 166.211 146.067 166.194 146.297 166.327L149.171 167.985C149.402 168.118 149.375 168.349 149.109 168.509L146.262 170.15C145.996 170.3 145.597 170.318 145.366 170.185Z" fill="#06033E"/>
<path opacity="0.4" d="M149.801 172.749L146.927 171.09C146.697 170.957 146.723 170.726 146.989 170.567L149.837 168.926C150.103 168.775 150.502 168.757 150.732 168.89L153.606 170.549C153.837 170.682 153.81 170.912 153.544 171.072L150.697 172.713C150.431 172.864 150.032 172.882 149.801 172.749Z" fill="#06033E"/>
<path opacity="0.4" d="M154.236 175.312L151.362 173.653C151.131 173.52 151.158 173.29 151.424 173.13L154.271 171.489C154.537 171.338 154.937 171.32 155.167 171.454L158.041 173.112C158.272 173.245 158.245 173.476 157.979 173.636L155.132 175.277C154.875 175.427 154.467 175.445 154.236 175.312Z" fill="#06033E"/>
<path opacity="0.4" d="M158.671 177.875L155.797 176.217C155.566 176.084 155.593 175.853 155.859 175.693L158.706 174.052C158.973 173.902 159.372 173.884 159.602 174.017L162.476 175.676C162.707 175.809 162.68 176.039 162.414 176.199L159.567 177.84C159.31 177.991 158.902 178.008 158.671 177.875Z" fill="#06033E"/>
<path opacity="0.4" d="M125.275 153.598L122.402 151.94C122.171 151.807 122.198 151.576 122.464 151.416L125.311 149.775C125.577 149.625 125.976 149.607 126.207 149.74L129.081 151.399C129.311 151.532 129.285 151.762 129.019 151.922L126.171 153.563C125.905 153.714 125.506 153.731 125.275 153.598Z" fill="#06033E"/>
<path opacity="0.4" d="M120.77 150.999L117.896 149.341C117.665 149.208 117.692 148.977 117.958 148.817L120.805 147.176C121.071 147.026 121.471 147.008 121.701 147.141L124.575 148.8C124.806 148.933 124.779 149.163 124.513 149.323L121.666 150.964C121.408 151.115 121 151.132 120.77 150.999Z" fill="#06033E"/>
<path opacity="0.4" d="M116.263 148.392L110.072 144.817C109.842 144.684 109.868 144.453 110.134 144.294L112.982 142.653C113.248 142.502 113.647 142.484 113.877 142.617L120.069 146.192C120.299 146.325 120.273 146.556 120.007 146.715L117.159 148.356C116.893 148.516 116.494 148.525 116.263 148.392Z" fill="#06033E"/>
<path opacity="0.4" d="M119.412 145.225L114.392 142.325C114.161 142.191 114.188 141.961 114.454 141.801L117.301 140.16C117.567 140.009 117.966 139.992 118.197 140.125L123.217 143.025C123.448 143.158 123.421 143.389 123.155 143.549L120.308 145.19C120.051 145.34 119.643 145.358 119.412 145.225Z" fill="#06033E"/>
<path opacity="0.4" d="M129.71 156.162L126.836 154.503C126.606 154.37 126.632 154.139 126.898 153.98L129.746 152.339C130.012 152.188 130.411 152.17 130.642 152.303L133.515 153.962C133.746 154.095 133.719 154.326 133.453 154.485L130.606 156.126C130.349 156.277 129.941 156.295 129.71 156.162Z" fill="#06033E"/>
<path opacity="0.4" d="M134.154 158.725L131.28 157.066C131.05 156.933 131.076 156.703 131.343 156.543L134.19 154.902C134.456 154.751 134.855 154.734 135.086 154.867L137.96 156.525C138.19 156.658 138.164 156.889 137.897 157.049L135.05 158.69C134.784 158.84 134.385 158.858 134.154 158.725Z" fill="#06033E"/>
<path opacity="0.4" d="M138.589 161.289L135.716 159.63C135.485 159.497 135.512 159.266 135.778 159.107L138.625 157.466C138.891 157.315 139.29 157.297 139.521 157.43L142.395 159.089C142.625 159.222 142.599 159.452 142.333 159.612L139.485 161.253C139.219 161.404 138.82 161.422 138.589 161.289Z" fill="#06033E"/>
<path opacity="0.4" d="M143.024 163.852L140.15 162.193C139.92 162.06 139.946 161.83 140.212 161.67L143.06 160.029C143.326 159.878 143.725 159.86 143.956 159.994L146.829 161.652C147.06 161.785 147.033 162.016 146.767 162.176L143.92 163.816C143.663 163.967 143.255 163.985 143.024 163.852Z" fill="#06033E"/>
<path opacity="0.4" d="M147.459 166.407L144.585 164.748C144.355 164.615 144.381 164.384 144.648 164.224L147.495 162.584C147.761 162.433 148.16 162.415 148.391 162.548L151.265 164.207C151.495 164.34 151.469 164.57 151.202 164.73L148.355 166.371C148.098 166.531 147.69 166.54 147.459 166.407Z" fill="#06033E"/>
<path opacity="0.4" d="M151.903 168.97L149.029 167.311C148.798 167.178 148.825 166.948 149.091 166.788L151.938 165.147C152.204 164.996 152.604 164.978 152.834 165.112L155.708 166.77C155.939 166.903 155.912 167.134 155.646 167.294L152.799 168.934C152.533 169.085 152.134 169.103 151.903 168.97Z" fill="#06033E"/>
<path opacity="0.4" d="M156.338 171.533L153.464 169.875C153.233 169.742 153.26 169.511 153.526 169.351L156.373 167.71C156.64 167.56 157.039 167.542 157.269 167.675L160.143 169.334C160.374 169.467 160.347 169.697 160.081 169.857L157.234 171.498C156.968 171.649 156.569 171.666 156.338 171.533Z" fill="#06033E"/>
<path opacity="0.4" d="M160.773 174.097L157.899 172.438C157.668 172.305 157.695 172.074 157.961 171.915L160.808 170.274C161.074 170.123 161.474 170.105 161.704 170.238L164.578 171.897C164.809 172.03 164.782 172.261 164.516 172.42L161.669 174.061C161.411 174.212 161.003 174.23 160.773 174.097Z" fill="#06033E"/>
<path opacity="0.4" d="M165.217 176.66L162.343 175.002C162.112 174.868 162.139 174.638 162.405 174.478L165.252 172.837C165.518 172.686 165.918 172.669 166.148 172.802L169.022 174.46C169.253 174.594 169.226 174.824 168.96 174.984L166.113 176.625C165.847 176.776 165.447 176.793 165.217 176.66Z" fill="#06033E"/>
<path opacity="0.4" d="M173.102 181.211L166.831 177.592C166.601 177.459 166.627 177.228 166.893 177.068L169.741 175.427C170.007 175.276 170.406 175.259 170.636 175.392L176.908 179.011C177.138 179.144 177.112 179.374 176.845 179.534L173.998 181.175C173.732 181.326 173.333 181.344 173.102 181.211Z" fill="#06033E"/>
<path opacity="0.4" d="M181.742 176.226L176.446 173.174C176.216 173.041 176.242 172.811 176.508 172.651L179.356 171.01C179.622 170.859 180.021 170.841 180.251 170.975L185.547 174.026C185.777 174.159 185.751 174.389 185.485 174.549L182.637 176.19C182.371 176.341 181.972 176.359 181.742 176.226Z" fill="#06033E"/>
<path opacity="0.4" d="M137.481 155.665L134.607 154.006C134.376 153.873 134.403 153.643 134.669 153.483L137.516 151.842C137.782 151.691 138.181 151.673 138.412 151.807L141.286 153.465C141.516 153.598 141.49 153.829 141.224 153.989L138.376 155.629C138.119 155.78 137.711 155.798 137.481 155.665Z" fill="#06033E"/>
<path opacity="0.4" d="M132.939 153.039L130.065 151.381C129.834 151.248 129.861 151.017 130.127 150.857L132.974 149.216C133.24 149.066 133.64 149.048 133.87 149.181L136.744 150.84C136.975 150.973 136.948 151.203 136.682 151.363L133.835 153.004C133.569 153.155 133.169 153.172 132.939 153.039Z" fill="#06033E"/>
<path opacity="0.4" d="M128.389 150.414L125.515 148.755C125.284 148.622 125.311 148.392 125.577 148.232L128.424 146.591C128.691 146.44 129.09 146.422 129.32 146.555L132.194 148.214C132.425 148.347 132.398 148.578 132.132 148.738L129.285 150.378C129.019 150.529 128.62 150.547 128.389 150.414Z" fill="#06033E"/>
<path opacity="0.4" d="M123.838 147.78L120.965 146.121C120.734 145.988 120.761 145.757 121.027 145.598L123.874 143.957C124.14 143.806 124.539 143.788 124.77 143.921L127.644 145.58C127.874 145.713 127.848 145.943 127.582 146.103L124.734 147.744C124.477 147.904 124.069 147.921 123.838 147.78Z" fill="#06033E"/>
<path opacity="0.4" d="M141.924 158.22L139.05 156.561C138.82 156.428 138.846 156.197 139.112 156.037L141.96 154.397C142.226 154.246 142.625 154.228 142.855 154.361L145.729 156.02C145.96 156.153 145.933 156.383 145.667 156.543L142.82 158.184C142.554 158.344 142.155 158.353 141.924 158.22Z" fill="#06033E"/>
<path opacity="0.4" d="M146.359 160.783L143.485 159.124C143.255 158.991 143.281 158.761 143.547 158.601L146.395 156.96C146.661 156.809 147.06 156.791 147.291 156.925L150.164 158.583C150.395 158.716 150.368 158.947 150.102 159.107L147.255 160.747C146.989 160.898 146.59 160.916 146.359 160.783Z" fill="#06033E"/>
<path opacity="0.4" d="M150.794 163.346L147.92 161.688C147.69 161.555 147.716 161.324 147.982 161.164L150.83 159.523C151.096 159.373 151.495 159.355 151.726 159.488L154.599 161.147C154.83 161.28 154.803 161.51 154.537 161.67L151.69 163.311C151.433 163.462 151.025 163.479 150.794 163.346Z" fill="#06033E"/>
<path opacity="0.4" d="M155.238 165.91L152.364 164.251C152.134 164.118 152.16 163.887 152.427 163.728L155.274 162.087C155.54 161.936 155.939 161.918 156.17 162.051L159.044 163.71C159.274 163.843 159.248 164.074 158.981 164.233L156.134 165.874C155.868 166.025 155.469 166.043 155.238 165.91Z" fill="#06033E"/>
<path opacity="0.4" d="M159.673 168.473L156.799 166.815C156.569 166.681 156.595 166.451 156.861 166.291L159.709 164.65C159.975 164.499 160.374 164.482 160.605 164.615L163.478 166.273C163.709 166.407 163.682 166.637 163.416 166.797L160.569 168.438C160.303 168.589 159.904 168.606 159.673 168.473Z" fill="#06033E"/>
<path opacity="0.4" d="M164.108 171.037L161.234 169.378C161.004 169.245 161.03 169.014 161.296 168.855L164.144 167.214C164.41 167.063 164.809 167.045 165.04 167.178L167.913 168.837C168.144 168.97 168.117 169.201 167.851 169.36L165.013 170.992C164.747 171.152 164.339 171.17 164.108 171.037Z" fill="#06033E"/>
<path opacity="0.4" d="M168.543 173.591L165.669 171.933C165.439 171.799 165.465 171.569 165.731 171.409L168.579 169.768C168.845 169.617 169.244 169.6 169.475 169.733L172.348 171.391C172.579 171.524 172.553 171.755 172.286 171.915L169.439 173.556C169.182 173.715 168.774 173.724 168.543 173.591Z" fill="#06033E"/>
<path opacity="0.4" d="M172.987 176.155L170.113 174.496C169.882 174.363 169.909 174.132 170.175 173.973L173.022 172.332C173.288 172.181 173.688 172.163 173.918 172.296L176.792 173.955C177.023 174.088 176.996 174.319 176.73 174.478L173.883 176.119C173.617 176.27 173.218 176.288 172.987 176.155Z" fill="#06033E"/>
<path opacity="0.4" d="M177.422 178.718L174.548 177.059C174.317 176.926 174.344 176.696 174.61 176.536L177.457 174.895C177.724 174.744 178.123 174.727 178.353 174.86L181.227 176.518C181.458 176.651 181.431 176.882 181.165 177.042L178.318 178.683C178.052 178.833 177.653 178.851 177.422 178.718Z" fill="#06033E"/>
<path opacity="0.4" d="M135.148 149.323L132.274 147.664C132.043 147.531 132.07 147.301 132.336 147.141L135.183 145.5C135.449 145.349 135.849 145.331 136.079 145.464L138.953 147.123C139.184 147.256 139.157 147.487 138.891 147.647L136.044 149.287C135.778 149.438 135.378 149.456 135.148 149.323Z" fill="#06033E"/>
<path opacity="0.4" d="M130.731 146.777L127.857 145.119C127.626 144.986 127.653 144.755 127.919 144.595L130.766 142.954C131.032 142.804 131.432 142.786 131.662 142.919L134.536 144.577C134.767 144.711 134.74 144.941 134.474 145.101L131.627 146.742C131.369 146.893 130.961 146.91 130.731 146.777Z" fill="#06033E"/>
<path opacity="0.4" d="M126.314 144.223L123.44 142.564C123.209 142.431 123.236 142.2 123.502 142.041L126.349 140.4C126.615 140.249 127.014 140.231 127.245 140.364L130.119 142.023C130.349 142.156 130.323 142.387 130.057 142.546L127.209 144.187C126.952 144.338 126.544 144.356 126.314 144.223Z" fill="#06033E"/>
<path opacity="0.4" d="M121.905 141.677L119.031 140.018C118.8 139.885 118.827 139.655 119.093 139.495L121.94 137.854C122.206 137.703 122.606 137.686 122.836 137.819L125.71 139.477C125.941 139.61 125.914 139.841 125.648 140.001L122.801 141.642C122.535 141.792 122.135 141.81 121.905 141.677Z" fill="#06033E"/>
<path opacity="0.4" d="M126.446 139.051L123.572 137.393C123.342 137.26 123.368 137.029 123.635 136.869L124.575 136.328C124.841 136.178 125.24 136.16 125.471 136.293L128.345 137.952C128.575 138.085 128.549 138.315 128.282 138.475L127.342 139.016C127.076 139.176 126.677 139.185 126.446 139.051Z" fill="#06033E"/>
<path opacity="0.4" d="M132.203 142.378L129.329 140.719C129.098 140.586 129.125 140.355 129.391 140.196L130.331 139.655C130.597 139.504 130.996 139.486 131.227 139.619L134.101 141.278C134.331 141.411 134.305 141.642 134.039 141.801L133.099 142.342C132.841 142.502 132.433 142.511 132.203 142.378Z" fill="#06033E"/>
<path opacity="0.4" d="M136.602 144.923L133.728 143.265C133.498 143.132 133.524 142.901 133.791 142.741L134.731 142.2C134.997 142.05 135.396 142.032 135.627 142.165L138.501 143.824C138.731 143.957 138.705 144.187 138.438 144.347L137.498 144.888C137.232 145.039 136.833 145.056 136.602 144.923Z" fill="#06033E"/>
<path opacity="0.4" d="M141.002 147.46L138.128 145.802C137.897 145.669 137.924 145.438 138.19 145.278L139.13 144.737C139.396 144.586 139.795 144.569 140.026 144.702L142.9 146.36C143.13 146.493 143.104 146.724 142.838 146.884L141.897 147.425C141.631 147.576 141.232 147.593 141.002 147.46Z" fill="#06033E"/>
<path opacity="0.4" d="M145.393 149.997L142.519 148.338C142.288 148.205 142.315 147.975 142.581 147.815L143.521 147.274C143.787 147.123 144.186 147.105 144.417 147.238L147.291 148.897C147.521 149.03 147.495 149.261 147.229 149.42L146.289 149.962C146.031 150.112 145.623 150.13 145.393 149.997Z" fill="#06033E"/>
<path opacity="0.4" d="M169.945 164.171L167.071 162.513C166.84 162.38 166.867 162.149 167.133 161.989L168.073 161.448C168.339 161.297 168.738 161.28 168.969 161.413L171.843 163.071C172.073 163.204 172.047 163.435 171.781 163.595L170.841 164.136C170.574 164.287 170.175 164.304 169.945 164.171Z" fill="#06033E"/>
<path opacity="0.4" d="M174.344 166.708L171.47 165.049C171.24 164.916 171.266 164.686 171.533 164.526L172.473 163.985C172.739 163.834 173.138 163.816 173.369 163.95L176.242 165.608C176.473 165.741 176.446 165.972 176.18 166.132L175.24 166.673C174.974 166.823 174.575 166.841 174.344 166.708Z" fill="#06033E"/>
<path opacity="0.4" d="M178.734 169.245L175.861 167.586C175.63 167.453 175.657 167.223 175.923 167.063L176.863 166.522C177.129 166.371 177.528 166.353 177.759 166.486L180.633 168.145C180.863 168.278 180.837 168.509 180.571 168.668L179.63 169.209C179.373 169.36 178.965 169.378 178.734 169.245Z" fill="#06033E"/>
<path opacity="0.4" d="M183.134 171.791L180.26 170.132C180.03 169.999 180.056 169.768 180.322 169.609L181.263 169.068C181.529 168.917 181.928 168.899 182.158 169.032L185.032 170.691C185.263 170.824 185.236 171.054 184.97 171.214L184.03 171.755C183.764 171.906 183.365 171.924 183.134 171.791Z" fill="#06033E"/>
<path opacity="0.4" d="M139.583 151.886L136.709 150.228C136.478 150.095 136.505 149.864 136.771 149.704L139.618 148.063C139.884 147.913 140.284 147.895 140.514 148.028L143.388 149.687C143.619 149.82 143.592 150.05 143.326 150.21L140.479 151.851C140.221 152.002 139.813 152.019 139.583 151.886Z" fill="#06033E"/>
<path opacity="0.4" d="M144.026 154.45L141.153 152.791C140.922 152.658 140.949 152.427 141.215 152.268L144.062 150.627C144.328 150.476 144.727 150.458 144.958 150.591L147.832 152.25C148.062 152.383 148.036 152.614 147.77 152.773L144.922 154.414C144.656 154.565 144.257 154.583 144.026 154.45Z" fill="#06033E"/>
<path opacity="0.4" d="M148.461 157.013L145.588 155.355C145.357 155.221 145.384 154.991 145.65 154.831L148.497 153.19C148.763 153.039 149.162 153.022 149.393 153.155L152.267 154.813C152.497 154.947 152.471 155.177 152.205 155.337L149.357 156.978C149.091 157.129 148.692 157.146 148.461 157.013Z" fill="#06033E"/>
<path opacity="0.4" d="M152.897 159.568L150.023 157.909C149.792 157.776 149.819 157.545 150.085 157.386L152.932 155.745C153.198 155.594 153.597 155.576 153.828 155.709L156.702 157.368C156.932 157.501 156.906 157.732 156.64 157.891L153.792 159.532C153.535 159.692 153.127 159.71 152.897 159.568Z" fill="#06033E"/>
<path opacity="0.4" d="M157.331 162.131L154.457 160.472C154.227 160.339 154.253 160.109 154.52 159.949L157.367 158.308C157.633 158.157 158.032 158.14 158.263 158.273L161.137 159.931C161.367 160.064 161.341 160.295 161.074 160.455L158.227 162.096C157.97 162.246 157.562 162.264 157.331 162.131Z" fill="#06033E"/>
<path opacity="0.4" d="M161.775 164.695L158.902 163.036C158.671 162.903 158.698 162.672 158.964 162.513L161.811 160.872C162.077 160.721 162.476 160.703 162.707 160.836L165.581 162.495C165.811 162.628 165.785 162.859 165.519 163.018L162.671 164.659C162.405 164.81 162.006 164.828 161.775 164.695Z" fill="#06033E"/>
<path opacity="0.4" d="M166.211 167.258L163.337 165.599C163.106 165.466 163.133 165.236 163.399 165.076L166.246 163.435C166.512 163.284 166.911 163.267 167.142 163.4L170.016 165.058C170.246 165.191 170.22 165.422 169.954 165.582L167.106 167.223C166.84 167.373 166.441 167.391 166.211 167.258Z" fill="#06033E"/>
<path opacity="0.4" d="M170.645 169.821L167.771 168.163C167.541 168.03 167.567 167.799 167.834 167.639L170.681 165.998C170.947 165.848 171.346 165.83 171.577 165.963L174.451 167.622C174.681 167.755 174.655 167.985 174.388 168.145L171.541 169.786C171.284 169.937 170.876 169.955 170.645 169.821Z" fill="#06033E"/>
<path opacity="0.4" d="M175.089 172.385L172.215 170.726C171.985 170.593 172.011 170.363 172.277 170.203L175.125 168.562C175.391 168.411 175.79 168.393 176.021 168.526L178.894 170.185C179.125 170.318 179.098 170.549 178.832 170.708L175.985 172.349C175.719 172.5 175.32 172.518 175.089 172.385Z" fill="#06033E"/>
<path opacity="0.4" d="M114.214 152.206L105.752 147.318C105.522 147.185 105.548 146.955 105.815 146.795L108.662 145.154C108.928 145.003 109.327 144.986 109.558 145.119L118.02 150.006C118.25 150.139 118.224 150.37 117.957 150.529L115.11 152.17C114.853 152.321 114.445 152.339 114.214 152.206Z" fill="#06033E"/>
<path opacity="0.4" d="M168.73 183.676L160.268 178.789C160.037 178.656 160.064 178.425 160.33 178.266L163.177 176.625C163.443 176.474 163.842 176.456 164.073 176.589L172.535 181.477C172.765 181.61 172.739 181.84 172.473 182L169.625 183.641C169.368 183.792 168.96 183.809 168.73 183.676Z" fill="#06033E"/>
<path opacity="0.4" d="M150.98 179.091L148.106 177.432C147.876 177.299 147.902 177.068 148.169 176.909L151.557 174.948C151.823 174.798 152.222 174.78 152.453 174.913L155.327 176.572C155.557 176.705 155.531 176.935 155.264 177.095L151.876 179.055C151.619 179.206 151.22 179.224 150.98 179.091Z" fill="#06033E"/>
<path opacity="0.4" d="M118.756 160.481L114.161 157.829C113.93 157.696 113.957 157.466 114.223 157.306L117.611 155.346C117.877 155.195 118.277 155.177 118.507 155.31L123.102 157.962C123.332 158.095 123.306 158.326 123.04 158.486L119.651 160.446C119.394 160.606 118.986 160.614 118.756 160.481Z" fill="#06033E"/>
<path opacity="0.4" d="M146.705 176.625L142.111 173.973C141.88 173.84 141.907 173.609 142.173 173.449L145.561 171.489C145.827 171.338 146.226 171.32 146.457 171.454L151.052 174.106C151.282 174.239 151.256 174.469 150.989 174.629L147.601 176.589C147.344 176.74 146.936 176.758 146.705 176.625Z" fill="#06033E"/>
<path opacity="0.4" d="M125.16 164.18L120.565 161.528C120.335 161.395 120.361 161.164 120.627 161.005L124.016 159.044C124.282 158.894 124.681 158.876 124.912 159.009L129.506 161.661C129.737 161.794 129.71 162.025 129.444 162.184L126.056 164.145C125.799 164.295 125.391 164.313 125.16 164.18Z" fill="#06033E"/>
<path opacity="0.4" d="M124.956 159.036L144.94 170.575C145.189 170.717 145.189 170.948 144.94 171.09L141.481 173.086C141.233 173.228 140.834 173.228 140.585 173.086L120.601 161.555L124.956 159.036Z" fill="#06033E"/>
<path opacity="0.4" d="M163.39 183.738L166.592 185.583C166.778 185.69 166.76 185.885 166.539 186.009L165.155 186.807C164.933 186.932 164.605 186.949 164.419 186.834L161.217 184.989C161.03 184.883 161.048 184.688 161.27 184.563L162.654 183.765C162.866 183.641 163.195 183.623 163.39 183.738Z" fill="#06033E"/>
<path opacity="0.4" d="M158.91 181.148L162.112 182.993C162.299 183.1 162.281 183.295 162.059 183.419L160.675 184.217C160.454 184.342 160.126 184.359 159.939 184.244L156.737 182.399C156.551 182.293 156.569 182.098 156.79 181.973L158.174 181.175C158.396 181.06 158.724 181.042 158.91 181.148Z" fill="#06033E"/>
<path opacity="0.4" d="M154.476 178.594L157.678 180.439C157.864 180.545 157.846 180.74 157.624 180.865L156.241 181.663C156.019 181.787 155.691 181.805 155.504 181.689L152.302 179.845C152.116 179.738 152.134 179.543 152.356 179.419L153.739 178.62C153.952 178.496 154.289 178.479 154.476 178.594Z" fill="#06033E"/>
<path opacity="0.4" d="M161.367 179.738L164.569 181.583C164.756 181.689 164.738 181.885 164.516 182.009L163.132 182.807C162.911 182.931 162.583 182.949 162.396 182.834L159.194 180.989C159.008 180.882 159.026 180.687 159.247 180.563L160.631 179.765C160.844 179.641 161.172 179.632 161.367 179.738Z" fill="#06033E"/>
</g>
<g opacity="0.4">
<path opacity="0.4" d="M103.721 151.807L100.847 150.148C100.617 150.015 100.643 149.784 100.909 149.625L104.298 147.664C104.564 147.513 104.963 147.496 105.194 147.629L108.068 149.287C108.298 149.421 108.272 149.651 108.005 149.811L104.617 151.771C104.36 151.922 103.952 151.94 103.721 151.807Z" fill="#06033E"/>
<path opacity="0.4" d="M108.165 154.37L105.291 152.711C105.06 152.578 105.087 152.348 105.353 152.188L108.741 150.228C109.008 150.077 109.407 150.059 109.637 150.192L112.511 151.851C112.742 151.984 112.715 152.215 112.449 152.374L109.061 154.334C108.795 154.485 108.395 154.503 108.165 154.37Z" fill="#06033E"/>
<path opacity="0.4" d="M112.6 156.933L109.726 155.275C109.495 155.142 109.522 154.911 109.788 154.751L113.176 152.791C113.443 152.64 113.842 152.623 114.072 152.756L116.946 154.414C117.177 154.547 117.15 154.778 116.884 154.938L113.496 156.898C113.23 157.049 112.831 157.066 112.6 156.933Z" fill="#06033E"/>
<path opacity="0.4" d="M118.738 154.813L115.864 153.155C115.634 153.022 115.66 152.791 115.927 152.631L118.774 150.99C119.04 150.84 119.439 150.822 119.67 150.955L122.544 152.614C122.774 152.747 122.748 152.977 122.481 153.137L119.634 154.778C119.368 154.929 118.969 154.946 118.738 154.813Z" fill="#06033E"/>
<path opacity="0.4" d="M123.173 157.377L120.299 155.718C120.069 155.585 120.095 155.355 120.361 155.195L123.209 153.554C123.475 153.403 123.874 153.385 124.105 153.518L126.978 155.177C127.209 155.31 127.182 155.541 126.916 155.7L124.069 157.341C123.812 157.492 123.404 157.51 123.173 157.377Z" fill="#06033E"/>
<path opacity="0.4" d="M127.608 159.94L124.735 158.282C124.504 158.149 124.531 157.918 124.797 157.758L127.644 156.117C127.91 155.967 128.309 155.949 128.54 156.082L131.414 157.741C131.644 157.874 131.618 158.104 131.352 158.264L128.504 159.905C128.247 160.056 127.839 160.073 127.608 159.94Z" fill="#06033E"/>
<path opacity="0.4" d="M132.052 162.504L129.178 160.845C128.948 160.712 128.974 160.481 129.24 160.322L132.088 158.681C132.354 158.53 132.753 158.512 132.983 158.645L135.857 160.304C136.088 160.437 136.061 160.668 135.795 160.827L132.948 162.468C132.682 162.619 132.283 162.637 132.052 162.504Z" fill="#06033E"/>
<path opacity="0.4" d="M136.487 165.058L133.613 163.4C133.383 163.267 133.409 163.036 133.675 162.876L136.523 161.235C136.789 161.085 137.188 161.067 137.418 161.2L140.292 162.859C140.523 162.992 140.496 163.222 140.23 163.382L137.383 165.023C137.117 165.174 136.718 165.191 136.487 165.058Z" fill="#06033E"/>
<path opacity="0.4" d="M140.922 167.622L138.048 165.963C137.817 165.83 137.844 165.599 138.11 165.44L140.957 163.799C141.224 163.648 141.623 163.63 141.853 163.763L144.727 165.422C144.958 165.555 144.931 165.786 144.665 165.945L141.818 167.586C141.561 167.737 141.153 167.755 140.922 167.622Z" fill="#06033E"/>
<path opacity="0.4" d="M145.366 170.185L142.492 168.526C142.262 168.393 142.288 168.163 142.554 168.003L145.402 166.362C145.668 166.211 146.067 166.194 146.297 166.327L149.171 167.985C149.402 168.118 149.375 168.349 149.109 168.509L146.262 170.15C145.996 170.3 145.597 170.318 145.366 170.185Z" fill="#06033E"/>
<path opacity="0.4" d="M149.801 172.749L146.927 171.09C146.697 170.957 146.723 170.726 146.989 170.567L149.837 168.926C150.103 168.775 150.502 168.757 150.732 168.89L153.606 170.549C153.837 170.682 153.81 170.912 153.544 171.072L150.697 172.713C150.431 172.864 150.032 172.882 149.801 172.749Z" fill="#06033E"/>
<path opacity="0.4" d="M154.236 175.312L151.362 173.653C151.131 173.52 151.158 173.29 151.424 173.13L154.271 171.489C154.537 171.338 154.937 171.32 155.167 171.454L158.041 173.112C158.272 173.245 158.245 173.476 157.979 173.636L155.132 175.277C154.875 175.427 154.467 175.445 154.236 175.312Z" fill="#06033E"/>
<path opacity="0.4" d="M158.671 177.875L155.797 176.217C155.566 176.084 155.593 175.853 155.859 175.693L158.706 174.052C158.973 173.902 159.372 173.884 159.602 174.017L162.476 175.676C162.707 175.809 162.68 176.039 162.414 176.199L159.567 177.84C159.31 177.991 158.902 178.008 158.671 177.875Z" fill="#06033E"/>
<path opacity="0.4" d="M125.275 153.598L122.402 151.94C122.171 151.807 122.198 151.576 122.464 151.416L125.311 149.775C125.577 149.625 125.976 149.607 126.207 149.74L129.081 151.399C129.311 151.532 129.285 151.762 129.019 151.922L126.171 153.563C125.905 153.714 125.506 153.731 125.275 153.598Z" fill="#06033E"/>
<path opacity="0.4" d="M120.77 150.999L117.896 149.341C117.665 149.208 117.692 148.977 117.958 148.817L120.805 147.176C121.071 147.026 121.471 147.008 121.701 147.141L124.575 148.8C124.806 148.933 124.779 149.163 124.513 149.323L121.666 150.964C121.408 151.115 121 151.132 120.77 150.999Z" fill="#06033E"/>
<path opacity="0.4" d="M116.263 148.392L110.072 144.817C109.842 144.684 109.868 144.453 110.134 144.294L112.982 142.653C113.248 142.502 113.647 142.484 113.877 142.617L120.069 146.192C120.299 146.325 120.273 146.556 120.007 146.715L117.159 148.356C116.893 148.516 116.494 148.525 116.263 148.392Z" fill="#06033E"/>
<path opacity="0.4" d="M119.412 145.225L114.392 142.325C114.161 142.191 114.188 141.961 114.454 141.801L117.301 140.16C117.567 140.009 117.966 139.992 118.197 140.125L123.217 143.025C123.448 143.158 123.421 143.389 123.155 143.549L120.308 145.19C120.051 145.34 119.643 145.358 119.412 145.225Z" fill="#06033E"/>
<path opacity="0.4" d="M129.71 156.162L126.836 154.503C126.606 154.37 126.632 154.139 126.898 153.98L129.746 152.339C130.012 152.188 130.411 152.17 130.642 152.303L133.515 153.962C133.746 154.095 133.719 154.326 133.453 154.485L130.606 156.126C130.349 156.277 129.941 156.295 129.71 156.162Z" fill="#06033E"/>
<path opacity="0.4" d="M134.154 158.725L131.28 157.066C131.05 156.933 131.076 156.703 131.343 156.543L134.19 154.902C134.456 154.751 134.855 154.734 135.086 154.867L137.96 156.525C138.19 156.658 138.164 156.889 137.897 157.049L135.05 158.69C134.784 158.84 134.385 158.858 134.154 158.725Z" fill="#06033E"/>
<path opacity="0.4" d="M138.589 161.289L135.716 159.63C135.485 159.497 135.512 159.266 135.778 159.107L138.625 157.466C138.891 157.315 139.29 157.297 139.521 157.43L142.395 159.089C142.625 159.222 142.599 159.452 142.333 159.612L139.485 161.253C139.219 161.404 138.82 161.422 138.589 161.289Z" fill="#06033E"/>
<path opacity="0.4" d="M143.024 163.852L140.15 162.193C139.92 162.06 139.946 161.83 140.212 161.67L143.06 160.029C143.326 159.878 143.725 159.86 143.956 159.994L146.829 161.652C147.06 161.785 147.033 162.016 146.767 162.176L143.92 163.816C143.663 163.967 143.255 163.985 143.024 163.852Z" fill="#06033E"/>
<path opacity="0.4" d="M147.459 166.407L144.585 164.748C144.355 164.615 144.381 164.384 144.648 164.224L147.495 162.584C147.761 162.433 148.16 162.415 148.391 162.548L151.265 164.207C151.495 164.34 151.469 164.57 151.202 164.73L148.355 166.371C148.098 166.531 147.69 166.54 147.459 166.407Z" fill="#06033E"/>
<path opacity="0.4" d="M151.903 168.97L149.029 167.311C148.798 167.178 148.825 166.948 149.091 166.788L151.938 165.147C152.204 164.996 152.604 164.978 152.834 165.112L155.708 166.77C155.939 166.903 155.912 167.134 155.646 167.294L152.799 168.934C152.533 169.085 152.134 169.103 151.903 168.97Z" fill="#06033E"/>
<path opacity="0.4" d="M156.338 171.533L153.464 169.875C153.233 169.742 153.26 169.511 153.526 169.351L156.373 167.71C156.64 167.56 157.039 167.542 157.269 167.675L160.143 169.334C160.374 169.467 160.347 169.697 160.081 169.857L157.234 171.498C156.968 171.649 156.569 171.666 156.338 171.533Z" fill="#06033E"/>
<path opacity="0.4" d="M160.773 174.097L157.899 172.438C157.668 172.305 157.695 172.074 157.961 171.915L160.808 170.274C161.074 170.123 161.474 170.105 161.704 170.238L164.578 171.897C164.809 172.03 164.782 172.261 164.516 172.42L161.669 174.061C161.411 174.212 161.003 174.23 160.773 174.097Z" fill="#06033E"/>
<path opacity="0.4" d="M165.217 176.66L162.343 175.002C162.112 174.868 162.139 174.638 162.405 174.478L165.252 172.837C165.518 172.686 165.918 172.669 166.148 172.802L169.022 174.46C169.253 174.594 169.226 174.824 168.96 174.984L166.113 176.625C165.847 176.776 165.447 176.793 165.217 176.66Z" fill="#06033E"/>
<path opacity="0.4" d="M173.102 181.211L166.831 177.592C166.601 177.459 166.627 177.228 166.893 177.068L169.741 175.427C170.007 175.276 170.406 175.259 170.636 175.392L176.908 179.011C177.138 179.144 177.112 179.374 176.845 179.534L173.998 181.175C173.732 181.326 173.333 181.344 173.102 181.211Z" fill="#06033E"/>
<path opacity="0.4" d="M181.742 176.226L176.446 173.174C176.216 173.041 176.242 172.811 176.508 172.651L179.356 171.01C179.622 170.859 180.021 170.841 180.251 170.975L185.547 174.026C185.777 174.159 185.751 174.389 185.485 174.549L182.637 176.19C182.371 176.341 181.972 176.359 181.742 176.226Z" fill="#06033E"/>
<path opacity="0.4" d="M137.481 155.665L134.607 154.006C134.376 153.873 134.403 153.643 134.669 153.483L137.516 151.842C137.782 151.691 138.181 151.673 138.412 151.807L141.286 153.465C141.516 153.598 141.49 153.829 141.224 153.989L138.376 155.629C138.119 155.78 137.711 155.798 137.481 155.665Z" fill="#06033E"/>
<path opacity="0.4" d="M132.939 153.039L130.065 151.381C129.834 151.248 129.861 151.017 130.127 150.857L132.974 149.216C133.24 149.066 133.64 149.048 133.87 149.181L136.744 150.84C136.975 150.973 136.948 151.203 136.682 151.363L133.835 153.004C133.569 153.155 133.169 153.172 132.939 153.039Z" fill="#06033E"/>
<path opacity="0.4" d="M128.389 150.414L125.515 148.755C125.284 148.622 125.311 148.392 125.577 148.232L128.424 146.591C128.691 146.44 129.09 146.422 129.32 146.555L132.194 148.214C132.425 148.347 132.398 148.578 132.132 148.738L129.285 150.378C129.019 150.529 128.62 150.547 128.389 150.414Z" fill="#06033E"/>
<path opacity="0.4" d="M123.838 147.78L120.965 146.121C120.734 145.988 120.761 145.757 121.027 145.598L123.874 143.957C124.14 143.806 124.539 143.788 124.77 143.921L127.644 145.58C127.874 145.713 127.848 145.943 127.582 146.103L124.734 147.744C124.477 147.904 124.069 147.921 123.838 147.78Z" fill="#06033E"/>
<path opacity="0.4" d="M141.924 158.22L139.05 156.561C138.82 156.428 138.846 156.197 139.112 156.037L141.96 154.397C142.226 154.246 142.625 154.228 142.855 154.361L145.729 156.02C145.96 156.153 145.933 156.383 145.667 156.543L142.82 158.184C142.554 158.344 142.155 158.353 141.924 158.22Z" fill="#06033E"/>
<path opacity="0.4" d="M146.359 160.783L143.485 159.124C143.255 158.991 143.281 158.761 143.547 158.601L146.395 156.96C146.661 156.809 147.06 156.791 147.291 156.925L150.164 158.583C150.395 158.716 150.368 158.947 150.102 159.107L147.255 160.747C146.989 160.898 146.59 160.916 146.359 160.783Z" fill="#06033E"/>
<path opacity="0.4" d="M150.794 163.346L147.92 161.688C147.69 161.555 147.716 161.324 147.982 161.164L150.83 159.523C151.096 159.373 151.495 159.355 151.726 159.488L154.599 161.147C154.83 161.28 154.803 161.51 154.537 161.67L151.69 163.311C151.433 163.462 151.025 163.479 150.794 163.346Z" fill="#06033E"/>
<path opacity="0.4" d="M155.238 165.91L152.364 164.251C152.134 164.118 152.16 163.887 152.427 163.728L155.274 162.087C155.54 161.936 155.939 161.918 156.17 162.051L159.044 163.71C159.274 163.843 159.248 164.074 158.981 164.233L156.134 165.874C155.868 166.025 155.469 166.043 155.238 165.91Z" fill="#06033E"/>
<path opacity="0.4" d="M159.673 168.473L156.799 166.815C156.569 166.681 156.595 166.451 156.861 166.291L159.709 164.65C159.975 164.499 160.374 164.482 160.605 164.615L163.478 166.273C163.709 166.407 163.682 166.637 163.416 166.797L160.569 168.438C160.303 168.589 159.904 168.606 159.673 168.473Z" fill="#06033E"/>
<path opacity="0.4" d="M164.108 171.037L161.234 169.378C161.004 169.245 161.03 169.014 161.296 168.855L164.144 167.214C164.41 167.063 164.809 167.045 165.04 167.178L167.913 168.837C168.144 168.97 168.117 169.201 167.851 169.36L165.013 170.992C164.747 171.152 164.339 171.17 164.108 171.037Z" fill="#06033E"/>
<path opacity="0.4" d="M168.543 173.591L165.669 171.933C165.439 171.799 165.465 171.569 165.731 171.409L168.579 169.768C168.845 169.617 169.244 169.6 169.475 169.733L172.348 171.391C172.579 171.524 172.553 171.755 172.286 171.915L169.439 173.556C169.182 173.715 168.774 173.724 168.543 173.591Z" fill="#06033E"/>
<path opacity="0.4" d="M172.987 176.155L170.113 174.496C169.882 174.363 169.909 174.132 170.175 173.973L173.022 172.332C173.288 172.181 173.688 172.163 173.918 172.296L176.792 173.955C177.023 174.088 176.996 174.319 176.73 174.478L173.883 176.119C173.617 176.27 173.218 176.288 172.987 176.155Z" fill="#06033E"/>
<path opacity="0.4" d="M177.422 178.718L174.548 177.059C174.317 176.926 174.344 176.696 174.61 176.536L177.457 174.895C177.724 174.744 178.123 174.727 178.353 174.86L181.227 176.518C181.458 176.651 181.431 176.882 181.165 177.042L178.318 178.683C178.052 178.833 177.653 178.851 177.422 178.718Z" fill="#06033E"/>
<path opacity="0.4" d="M135.148 149.323L132.274 147.664C132.043 147.531 132.07 147.301 132.336 147.141L135.183 145.5C135.449 145.349 135.849 145.331 136.079 145.464L138.953 147.123C139.184 147.256 139.157 147.487 138.891 147.647L136.044 149.287C135.778 149.438 135.378 149.456 135.148 149.323Z" fill="#06033E"/>
<path opacity="0.4" d="M130.731 146.777L127.857 145.119C127.626 144.986 127.653 144.755 127.919 144.595L130.766 142.954C131.032 142.804 131.432 142.786 131.662 142.919L134.536 144.577C134.767 144.711 134.74 144.941 134.474 145.101L131.627 146.742C131.369 146.893 130.961 146.91 130.731 146.777Z" fill="#06033E"/>
<path opacity="0.4" d="M126.314 144.223L123.44 142.564C123.209 142.431 123.236 142.2 123.502 142.041L126.349 140.4C126.615 140.249 127.014 140.231 127.245 140.364L130.119 142.023C130.349 142.156 130.323 142.387 130.057 142.546L127.209 144.187C126.952 144.338 126.544 144.356 126.314 144.223Z" fill="#06033E"/>
<path opacity="0.4" d="M121.905 141.677L119.031 140.018C118.8 139.885 118.827 139.655 119.093 139.495L121.94 137.854C122.206 137.703 122.606 137.686 122.836 137.819L125.71 139.477C125.941 139.61 125.914 139.841 125.648 140.001L122.801 141.642C122.535 141.792 122.135 141.81 121.905 141.677Z" fill="#06033E"/>
<path opacity="0.4" d="M126.446 139.051L123.572 137.393C123.342 137.26 123.368 137.029 123.635 136.869L124.575 136.328C124.841 136.178 125.24 136.16 125.471 136.293L128.345 137.952C128.575 138.085 128.549 138.315 128.282 138.475L127.342 139.016C127.076 139.176 126.677 139.185 126.446 139.051Z" fill="#06033E"/>
<path opacity="0.4" d="M132.203 142.378L129.329 140.719C129.098 140.586 129.125 140.355 129.391 140.196L130.331 139.655C130.597 139.504 130.996 139.486 131.227 139.619L134.101 141.278C134.331 141.411 134.305 141.642 134.039 141.801L133.099 142.342C132.841 142.502 132.433 142.511 132.203 142.378Z" fill="#06033E"/>
<path opacity="0.4" d="M136.602 144.923L133.728 143.265C133.498 143.132 133.524 142.901 133.791 142.741L134.731 142.2C134.997 142.05 135.396 142.032 135.627 142.165L138.501 143.824C138.731 143.957 138.705 144.187 138.438 144.347L137.498 144.888C137.232 145.039 136.833 145.056 136.602 144.923Z" fill="#06033E"/>
<path opacity="0.4" d="M141.002 147.46L138.128 145.802C137.897 145.669 137.924 145.438 138.19 145.278L139.13 144.737C139.396 144.586 139.795 144.569 140.026 144.702L142.9 146.36C143.13 146.493 143.104 146.724 142.838 146.884L141.897 147.425C141.631 147.576 141.232 147.593 141.002 147.46Z" fill="#06033E"/>
<path opacity="0.4" d="M145.393 149.997L142.519 148.338C142.288 148.205 142.315 147.975 142.581 147.815L143.521 147.274C143.787 147.123 144.186 147.105 144.417 147.238L147.291 148.897C147.521 149.03 147.495 149.261 147.229 149.42L146.289 149.962C146.031 150.112 145.623 150.13 145.393 149.997Z" fill="#06033E"/>
<path opacity="0.4" d="M169.945 164.171L167.071 162.513C166.84 162.38 166.867 162.149 167.133 161.989L168.073 161.448C168.339 161.297 168.738 161.28 168.969 161.413L171.843 163.071C172.073 163.204 172.047 163.435 171.781 163.595L170.841 164.136C170.574 164.287 170.175 164.304 169.945 164.171Z" fill="#06033E"/>
<path opacity="0.4" d="M174.344 166.708L171.47 165.049C171.24 164.916 171.266 164.686 171.533 164.526L172.473 163.985C172.739 163.834 173.138 163.816 173.369 163.95L176.242 165.608C176.473 165.741 176.446 165.972 176.18 166.132L175.24 166.673C174.974 166.823 174.575 166.841 174.344 166.708Z" fill="#06033E"/>
<path opacity="0.4" d="M178.734 169.245L175.861 167.586C175.63 167.453 175.657 167.223 175.923 167.063L176.863 166.522C177.129 166.371 177.528 166.353 177.759 166.486L180.633 168.145C180.863 168.278 180.837 168.509 180.571 168.668L179.63 169.209C179.373 169.36 178.965 169.378 178.734 169.245Z" fill="#06033E"/>
<path opacity="0.4" d="M183.134 171.791L180.26 170.132C180.03 169.999 180.056 169.768 180.322 169.609L181.263 169.068C181.529 168.917 181.928 168.899 182.158 169.032L185.032 170.691C185.263 170.824 185.236 171.054 184.97 171.214L184.03 171.755C183.764 171.906 183.365 171.924 183.134 171.791Z" fill="#06033E"/>
<path opacity="0.4" d="M139.583 151.886L136.709 150.228C136.478 150.095 136.505 149.864 136.771 149.704L139.618 148.063C139.884 147.913 140.284 147.895 140.514 148.028L143.388 149.687C143.619 149.82 143.592 150.05 143.326 150.21L140.479 151.851C140.221 152.002 139.813 152.019 139.583 151.886Z" fill="#06033E"/>
<path opacity="0.4" d="M144.026 154.45L141.153 152.791C140.922 152.658 140.949 152.427 141.215 152.268L144.062 150.627C144.328 150.476 144.727 150.458 144.958 150.591L147.832 152.25C148.062 152.383 148.036 152.614 147.77 152.773L144.922 154.414C144.656 154.565 144.257 154.583 144.026 154.45Z" fill="#06033E"/>
<path opacity="0.4" d="M148.461 157.013L145.588 155.355C145.357 155.221 145.384 154.991 145.65 154.831L148.497 153.19C148.763 153.039 149.162 153.022 149.393 153.155L152.267 154.813C152.497 154.947 152.471 155.177 152.205 155.337L149.357 156.978C149.091 157.129 148.692 157.146 148.461 157.013Z" fill="#06033E"/>
<path opacity="0.4" d="M152.897 159.568L150.023 157.909C149.792 157.776 149.819 157.545 150.085 157.386L152.932 155.745C153.198 155.594 153.597 155.576 153.828 155.709L156.702 157.368C156.932 157.501 156.906 157.732 156.64 157.891L153.792 159.532C153.535 159.692 153.127 159.71 152.897 159.568Z" fill="#06033E"/>
<path opacity="0.4" d="M157.331 162.131L154.457 160.472C154.227 160.339 154.253 160.109 154.52 159.949L157.367 158.308C157.633 158.157 158.032 158.14 158.263 158.273L161.137 159.931C161.367 160.064 161.341 160.295 161.074 160.455L158.227 162.096C157.97 162.246 157.562 162.264 157.331 162.131Z" fill="#06033E"/>
<path opacity="0.4" d="M161.775 164.695L158.902 163.036C158.671 162.903 158.698 162.672 158.964 162.513L161.811 160.872C162.077 160.721 162.476 160.703 162.707 160.836L165.581 162.495C165.811 162.628 165.785 162.859 165.519 163.018L162.671 164.659C162.405 164.81 162.006 164.828 161.775 164.695Z" fill="#06033E"/>
<path opacity="0.4" d="M166.211 167.258L163.337 165.599C163.106 165.466 163.133 165.236 163.399 165.076L166.246 163.435C166.512 163.284 166.911 163.267 167.142 163.4L170.016 165.058C170.246 165.191 170.22 165.422 169.954 165.582L167.106 167.223C166.84 167.373 166.441 167.391 166.211 167.258Z" fill="#06033E"/>
<path opacity="0.4" d="M170.645 169.821L167.771 168.163C167.541 168.03 167.567 167.799 167.834 167.639L170.681 165.998C170.947 165.848 171.346 165.83 171.577 165.963L174.451 167.622C174.681 167.755 174.655 167.985 174.388 168.145L171.541 169.786C171.284 169.937 170.876 169.955 170.645 169.821Z" fill="#06033E"/>
<path opacity="0.4" d="M175.089 172.385L172.215 170.726C171.985 170.593 172.011 170.363 172.277 170.203L175.125 168.562C175.391 168.411 175.79 168.393 176.021 168.526L178.894 170.185C179.125 170.318 179.098 170.549 178.832 170.708L175.985 172.349C175.719 172.5 175.32 172.518 175.089 172.385Z" fill="#06033E"/>
<path opacity="0.4" d="M114.214 152.206L105.752 147.318C105.522 147.185 105.548 146.955 105.815 146.795L108.662 145.154C108.928 145.003 109.327 144.986 109.558 145.119L118.02 150.006C118.25 150.139 118.224 150.37 117.957 150.529L115.11 152.17C114.853 152.321 114.445 152.339 114.214 152.206Z" fill="#06033E"/>
<path opacity="0.4" d="M168.73 183.676L160.268 178.789C160.037 178.656 160.064 178.425 160.33 178.266L163.177 176.625C163.443 176.474 163.842 176.456 164.073 176.589L172.535 181.477C172.765 181.61 172.739 181.84 172.473 182L169.625 183.641C169.368 183.792 168.96 183.809 168.73 183.676Z" fill="#06033E"/>
<path opacity="0.4" d="M150.98 179.091L148.106 177.432C147.876 177.299 147.902 177.068 148.169 176.909L151.557 174.948C151.823 174.798 152.222 174.78 152.453 174.913L155.327 176.572C155.557 176.705 155.531 176.935 155.264 177.095L151.876 179.055C151.619 179.206 151.22 179.224 150.98 179.091Z" fill="#06033E"/>
<path opacity="0.4" d="M118.756 160.481L114.161 157.829C113.93 157.696 113.957 157.466 114.223 157.306L117.611 155.346C117.877 155.195 118.277 155.177 118.507 155.31L123.102 157.962C123.332 158.095 123.306 158.326 123.04 158.486L119.651 160.446C119.394 160.606 118.986 160.614 118.756 160.481Z" fill="#06033E"/>
<path opacity="0.4" d="M146.705 176.625L142.111 173.973C141.88 173.84 141.907 173.609 142.173 173.449L145.561 171.489C145.827 171.338 146.226 171.32 146.457 171.454L151.052 174.106C151.282 174.239 151.256 174.469 150.989 174.629L147.601 176.589C147.344 176.74 146.936 176.758 146.705 176.625Z" fill="#06033E"/>
<path opacity="0.4" d="M125.16 164.18L120.565 161.528C120.335 161.395 120.361 161.164 120.627 161.005L124.016 159.044C124.282 158.894 124.681 158.876 124.912 159.009L129.506 161.661C129.737 161.794 129.71 162.025 129.444 162.184L126.056 164.145C125.799 164.295 125.391 164.313 125.16 164.18Z" fill="#06033E"/>
<path opacity="0.4" d="M124.956 159.036L144.94 170.575C145.189 170.717 145.189 170.948 144.94 171.09L141.481 173.086C141.233 173.228 140.834 173.228 140.585 173.086L120.601 161.555L124.956 159.036Z" fill="#06033E"/>
<path opacity="0.4" d="M163.39 183.738L166.592 185.583C166.778 185.69 166.76 185.885 166.539 186.009L165.155 186.807C164.933 186.932 164.605 186.949 164.419 186.834L161.217 184.989C161.03 184.883 161.048 184.688 161.27 184.563L162.654 183.765C162.866 183.641 163.195 183.623 163.39 183.738Z" fill="#06033E"/>
<path opacity="0.4" d="M158.91 181.148L162.112 182.993C162.299 183.1 162.281 183.295 162.059 183.419L160.675 184.217C160.454 184.342 160.126 184.359 159.939 184.244L156.737 182.399C156.551 182.293 156.569 182.098 156.79 181.973L158.174 181.175C158.396 181.06 158.724 181.042 158.91 181.148Z" fill="#06033E"/>
<path opacity="0.4" d="M154.476 178.594L157.678 180.439C157.864 180.545 157.846 180.74 157.624 180.865L156.241 181.663C156.019 181.787 155.691 181.805 155.504 181.689L152.302 179.845C152.116 179.738 152.134 179.543 152.356 179.419L153.739 178.62C153.952 178.496 154.289 178.479 154.476 178.594Z" fill="#06033E"/>
<path opacity="0.4" d="M161.367 179.738L164.569 181.583C164.756 181.689 164.738 181.885 164.516 182.009L163.132 182.807C162.911 182.931 162.583 182.949 162.396 182.834L159.194 180.989C159.008 180.882 159.026 180.687 159.247 180.563L160.631 179.765C160.844 179.641 161.172 179.632 161.367 179.738Z" fill="#06033E"/>
</g>
<path d="M208.325 174.558L123.546 125.613C122.215 124.842 121.515 122.97 121.994 121.427L141.162 59.1774C141.641 57.634 143.104 57.0042 144.435 57.7759L229.214 106.72C230.544 107.492 231.245 109.364 230.766 110.907L211.598 173.157C211.128 174.7 209.664 175.321 208.325 174.558Z" fill="url(#paint6_radial_64_610)"/>
<path d="M207.527 172.376L125.302 124.86C124.025 124.123 123.359 122.332 123.812 120.85L142.137 61.3416C142.59 59.8603 143.991 59.2661 145.268 60.0023L227.493 107.519C228.77 108.255 229.435 110.047 228.983 111.528L210.658 171.037C210.205 172.509 208.804 173.112 207.527 172.376Z" fill="url(#paint7_linear_64_610)"/>
<path opacity="0.4" d="M207.527 172.376L125.302 124.86C124.025 124.123 123.359 122.332 123.812 120.85L142.137 61.3416C142.59 59.8603 143.991 59.2661 145.268 60.0023L227.493 107.519C228.77 108.255 229.435 110.047 228.983 111.528L210.658 171.037C210.205 172.509 208.804 173.112 207.527 172.376Z" fill="#06033E"/>
<path opacity="0.4" d="M207.527 172.376L125.302 124.86C124.025 124.123 123.359 122.332 123.812 120.85L142.137 61.3416C142.59 59.8603 143.991 59.2661 145.268 60.0023L227.493 107.519C228.77 108.255 229.435 110.047 228.983 111.528L210.658 171.037C210.205 172.509 208.804 173.112 207.527 172.376Z" fill="#06033E"/>
<path opacity="0.5" d="M203.109 154.193L147.441 122.057C146.563 121.551 146.111 120.318 146.421 119.307L159.008 78.4341C159.318 77.4229 160.285 77.006 161.154 77.5116L216.822 109.648C217.7 110.153 218.153 111.386 217.842 112.397L205.256 153.27C204.945 154.281 203.987 154.698 203.109 154.193Z" fill="#06033E"/>
<path d="M195.588 155.177L139.92 123.041C139.041 122.536 138.589 121.303 138.9 120.291L151.486 79.4186C151.797 78.4075 152.763 77.9906 153.633 78.4962L209.301 110.632C210.179 111.138 210.631 112.371 210.321 113.382L197.734 154.255C197.424 155.266 196.466 155.683 195.588 155.177Z" fill="url(#paint8_radial_64_610)"/>
<g opacity="0.5">
<path opacity="0.5" d="M195.588 155.177L139.92 123.041C139.041 122.536 138.589 121.303 138.9 120.291L151.486 79.4186C151.797 78.4075 152.763 77.9906 153.633 78.4962L209.301 110.632C210.179 111.138 210.631 112.371 210.321 113.382L197.734 154.255C197.424 155.266 196.466 155.683 195.588 155.177Z" fill="#06033E"/>
</g>
<path d="M209.31 110.632L153.642 78.4962C153.092 78.1769 152.506 78.2212 152.072 78.5494C152.338 78.5405 152.604 78.6026 152.879 78.7534L208.547 110.889C209.425 111.395 209.877 112.628 209.567 113.639L196.98 154.512C196.865 154.893 196.652 155.186 196.395 155.381C196.989 155.363 197.521 154.955 197.743 154.255L210.33 113.382C210.64 112.371 210.179 111.138 209.31 110.632Z" fill="white"/>
<path opacity="0.4" d="M125.382 188.555C124.619 188.555 123.883 188.395 123.315 188.076L101.016 175.197C100.422 174.851 100.103 174.372 100.103 173.822C100.103 173.192 100.555 172.571 101.335 172.119L112.813 165.493C114.215 164.686 116.273 164.606 117.505 165.316L139.805 178.195C140.399 178.532 140.718 179.02 140.718 179.57C140.718 180.199 140.266 180.82 139.485 181.273L128.007 187.898C127.245 188.324 126.296 188.555 125.382 188.555ZM115.448 165.475C114.64 165.475 113.789 165.67 113.133 166.043L101.655 172.669C101.078 173.006 100.75 173.423 100.75 173.813C100.75 174.203 101.069 174.469 101.344 174.629L123.643 187.508C124.655 188.094 126.508 188.014 127.688 187.331L139.166 180.705C139.742 180.368 140.071 179.951 140.071 179.561C140.071 179.17 139.751 178.904 139.476 178.745L117.177 165.865C116.725 165.599 116.104 165.475 115.448 165.475Z" fill="#06033E"/>
<path d="M167.204 99.9349L163.763 97.9481C163.443 97.7618 163.275 97.3183 163.381 96.9546C163.488 96.5909 163.834 96.449 164.153 96.6353L167.594 98.6222C167.914 98.8084 168.082 99.2519 167.976 99.6156C167.869 99.9793 167.524 100.121 167.204 99.9349Z" fill="white"/>
<path d="M175.4 104.672L170.326 101.744C170.007 101.558 169.838 101.115 169.945 100.751C170.051 100.387 170.397 100.245 170.716 100.432L175.79 103.359C176.109 103.545 176.278 103.989 176.171 104.352C176.065 104.707 175.719 104.858 175.4 104.672Z" fill="white"/>
<path d="M160.259 115.262L156.817 113.275C156.498 113.089 156.329 112.646 156.436 112.282C156.542 111.918 156.888 111.776 157.207 111.963L160.649 113.949C160.968 114.136 161.137 114.579 161.03 114.943C160.924 115.298 160.578 115.449 160.259 115.262Z" fill="white"/>
<path d="M167.567 119.475L162.494 116.548C162.175 116.362 162.006 115.919 162.112 115.555C162.219 115.191 162.565 115.049 162.884 115.236L167.958 118.163C168.277 118.349 168.446 118.793 168.339 119.156C168.233 119.52 167.887 119.662 167.567 119.475Z" fill="white"/>
<path d="M156.888 97.2118L154.742 95.97C154.423 95.7838 154.254 95.3403 154.36 94.9766C154.467 94.6129 154.813 94.471 155.132 94.6573L157.279 95.8991C157.598 96.0854 157.767 96.5289 157.66 96.8925C157.554 97.2473 157.208 97.3892 156.888 97.2118Z" fill="white"/>
<path d="M163.363 104.166L156.791 100.37C156.471 100.183 156.303 99.7398 156.409 99.3761C156.516 99.0124 156.862 98.8705 157.181 99.0568L163.754 102.853C164.073 103.039 164.241 103.483 164.135 103.847C164.029 104.201 163.683 104.352 163.363 104.166Z" fill="white"/>
<path d="M157.305 107.111L155.158 105.869C154.839 105.683 154.671 105.239 154.777 104.876C154.883 104.512 155.229 104.37 155.549 104.556L157.695 105.798C158.015 105.984 158.183 106.428 158.077 106.791C157.97 107.146 157.624 107.297 157.305 107.111Z" fill="white"/>
<path d="M168.357 126.376L162.618 123.059C162.299 122.873 162.13 122.429 162.237 122.066C162.343 121.702 162.689 121.56 163.008 121.746L168.747 125.064C169.067 125.25 169.235 125.693 169.129 126.057C169.022 126.421 168.676 126.563 168.357 126.376Z" fill="white"/>
<path d="M154.892 112.158L153.509 111.359C153.189 111.173 153.021 110.73 153.127 110.366C153.234 110.002 153.58 109.86 153.899 110.047L155.283 110.845C155.602 111.031 155.771 111.475 155.664 111.838C155.558 112.202 155.212 112.344 154.892 112.158Z" fill="white"/>
<path d="M153.589 117.852L151.877 116.859C151.558 116.673 151.389 116.229 151.495 115.865C151.602 115.502 151.948 115.36 152.267 115.546L153.979 116.54C154.298 116.726 154.467 117.169 154.361 117.533C154.254 117.888 153.908 118.03 153.589 117.852Z" fill="white"/>
<path d="M160.25 121.702L155.735 119.094C155.415 118.908 155.247 118.464 155.353 118.101C155.46 117.737 155.806 117.595 156.125 117.781L160.64 120.389C160.959 120.575 161.128 121.019 161.021 121.383C160.915 121.737 160.569 121.879 160.25 121.702Z" fill="white"/>
<path d="M154.298 121.48L151.052 119.609C150.732 119.422 150.564 118.979 150.67 118.615C150.777 118.251 151.123 118.109 151.442 118.296L154.688 120.167C155.008 120.354 155.176 120.797 155.07 121.161C154.963 121.524 154.617 121.666 154.298 121.48Z" fill="white"/>
<path d="M173.289 129.232L171.205 128.026C170.885 127.84 170.717 127.396 170.823 127.033C170.93 126.669 171.275 126.527 171.595 126.713L173.679 127.92C173.999 128.106 174.167 128.549 174.061 128.913C173.954 129.277 173.608 129.419 173.289 129.232Z" fill="white"/>
<path d="M165.297 111.723L159.558 108.406C159.238 108.219 159.07 107.776 159.176 107.412C159.283 107.049 159.629 106.907 159.948 107.093L165.687 110.41C166.006 110.597 166.175 111.04 166.068 111.404C165.962 111.767 165.616 111.909 165.297 111.723Z" fill="white"/>
<path d="M165.98 108.894L155.975 103.119C155.655 102.933 155.487 102.489 155.593 102.126C155.7 101.762 156.046 101.62 156.365 101.806L166.37 107.581C166.689 107.767 166.858 108.211 166.752 108.574C166.645 108.938 166.299 109.08 165.98 108.894Z" fill="#CED210"/>
<path d="M160.072 111.927L154.333 108.61C154.014 108.423 153.846 107.98 153.952 107.616C154.058 107.253 154.404 107.111 154.724 107.297L160.463 110.614C160.782 110.801 160.95 111.244 160.844 111.608C160.738 111.971 160.392 112.113 160.072 111.927Z" fill="#CED210"/>
<path d="M169.652 114.242L167.567 113.036C167.248 112.85 167.079 112.406 167.186 112.042C167.292 111.679 167.638 111.537 167.958 111.723L170.042 112.929C170.361 113.116 170.53 113.559 170.423 113.923C170.317 114.278 169.971 114.428 169.652 114.242Z" fill="#CED210"/>
<path d="M190.878 113.604L178.522 106.472C178.203 106.286 178.034 105.842 178.141 105.479C178.247 105.115 178.593 104.973 178.912 105.159L191.268 112.291C191.587 112.477 191.756 112.921 191.649 113.284C191.543 113.648 191.197 113.79 190.878 113.604Z" fill="#CED210"/>
<path d="M159.593 118.101L152.692 114.118C152.373 113.932 152.204 113.488 152.311 113.125C152.417 112.761 152.763 112.619 153.083 112.805L159.983 116.788C160.303 116.974 160.471 117.418 160.365 117.781C160.258 118.136 159.912 118.278 159.593 118.101Z" fill="#F8359E"/>
<path d="M160.64 96.1474L155.566 93.2203C155.247 93.0341 155.079 92.5906 155.185 92.2269C155.291 91.8632 155.637 91.7213 155.957 91.9076L161.03 94.8347C161.35 95.0209 161.518 95.4644 161.412 95.8281C161.305 96.1918 160.959 96.3337 160.64 96.1474Z" fill="#F8359E"/>
<path d="M153.243 124.097L147.362 120.7C147.042 120.513 146.874 120.07 146.98 119.706C147.087 119.342 147.433 119.201 147.752 119.387L153.633 122.784C153.952 122.97 154.121 123.414 154.014 123.777C153.908 124.132 153.562 124.274 153.243 124.097Z" fill="#CED210"/>
<path d="M192.261 107.253L189.742 105.798C189.512 105.665 189.387 105.337 189.458 105.071C189.538 104.805 189.787 104.698 190.026 104.831L192.545 106.286C192.776 106.419 192.9 106.747 192.829 107.013C192.749 107.279 192.492 107.386 192.261 107.253Z" fill="white"/>
<path d="M197.06 110.02L194.541 108.565C194.31 108.432 194.186 108.104 194.257 107.838C194.337 107.572 194.585 107.466 194.825 107.599L197.344 109.053C197.575 109.186 197.699 109.515 197.628 109.781C197.548 110.056 197.291 110.162 197.06 110.02Z" fill="white"/>
<path d="M201.858 112.796L199.339 111.342C199.109 111.209 198.985 110.88 199.056 110.614C199.135 110.348 199.384 110.242 199.623 110.375L202.142 111.83C202.373 111.963 202.497 112.291 202.426 112.557C202.346 112.823 202.089 112.929 201.858 112.796Z" fill="white"/>
<path d="M204.218 114.154L204.138 114.109C203.907 113.976 203.783 113.648 203.854 113.382C203.934 113.116 204.182 113.009 204.422 113.142L204.502 113.187C204.732 113.32 204.856 113.648 204.786 113.914C204.706 114.189 204.448 114.295 204.218 114.154Z" fill="#F8359E"/>
<path d="M74.3881 143.593C72.8003 143.593 71.2037 143.185 69.7845 142.36L52.9316 132.63C52.2042 132.204 51.7607 131.45 51.7607 130.607C51.7607 129.765 52.1954 129.011 52.9316 128.585L69.7845 118.855C72.6229 117.214 76.1532 117.214 78.9916 118.855L95.8445 128.585C96.5719 129.011 97.0154 129.765 97.0154 130.607C97.0154 131.45 96.5807 132.204 95.8445 132.63L78.9916 142.36C77.5724 143.185 75.9758 143.593 74.3881 143.593ZM70.3345 141.42C72.8358 142.866 75.9492 142.866 78.4505 141.42L95.3035 131.689C95.6937 131.468 95.9244 131.069 95.9244 130.616C95.9244 130.164 95.6937 129.765 95.3035 129.543L78.4505 119.813C75.9492 118.367 72.8358 118.367 70.3345 119.813L53.4815 129.543C53.0912 129.765 52.8606 130.164 52.8606 130.616C52.8606 131.06 53.0912 131.468 53.4815 131.689L70.3345 141.42Z" fill="url(#paint9_linear_64_610)"/>
<path opacity="0.6" d="M74.2992 137.526C80.6921 137.526 85.8745 134.536 85.8745 130.847C85.8745 127.158 80.6921 124.168 74.2992 124.168C67.9063 124.168 62.7239 127.158 62.7239 130.847C62.7239 134.536 67.9063 137.526 74.2992 137.526Z" fill="#020230"/>
<path d="M91.4626 83.215H58.4929L61.5619 118.908C61.5619 120.886 62.8747 122.873 65.4913 124.389C70.7335 127.414 79.2221 127.414 84.4642 124.389C87.0809 122.873 88.3936 120.895 88.3936 118.908L91.4626 83.215Z" fill="url(#paint10_radial_64_610)"/>
<path opacity="0.4" d="M91.4626 83.215H58.4929L58.9985 89.087C59.7525 90.0538 60.7725 90.9851 62.0498 91.8366C68.3475 96.0144 78.7431 96.8216 85.8391 93.8147L84.7392 119.919C84.6948 121.054 84.2957 122.163 83.5595 123.032C82.4951 124.292 80.4372 125.764 76.4812 126.607C79.3995 126.421 82.229 125.684 84.4642 124.389C87.0809 122.873 88.3936 120.895 88.3936 118.908L90.8506 90.2844L91.4626 83.215Z" fill="#06033E"/>
<path opacity="0.4" d="M74.9733 92.7325C84.0752 92.7325 91.4538 88.4714 91.4538 83.215C91.4538 77.9586 84.0752 73.6975 74.9733 73.6975C65.8715 73.6975 58.4929 77.9586 58.4929 83.215C58.4929 88.4714 65.8715 92.7325 74.9733 92.7325Z" fill="#06033E"/>
<path opacity="0.4" d="M74.9738 88.058C82.8167 88.058 89.1746 84.3886 89.1746 79.8622C89.1746 75.3357 82.8167 71.6663 74.9738 71.6663C67.1309 71.6663 60.7729 75.3357 60.7729 79.8622C60.7729 84.3886 67.1309 88.058 74.9738 88.058Z" fill="#06033E"/>
<path d="M92.4384 82.7716V82.745C92.4384 82.7272 92.4384 82.7095 92.4296 82.6917L92.1102 79.4986L92.0925 79.534C91.9506 77.1125 90.283 74.7176 87.0898 72.8727C80.393 69.0054 69.545 69.0054 62.8571 72.8727C59.5752 74.762 57.9076 77.2367 57.8455 79.7203V79.7114L57.5439 82.5587C57.5351 82.6297 57.5262 82.7095 57.5173 82.7804L57.5085 82.8248C57.3311 85.539 59.0252 88.2798 62.6087 90.3465C69.4297 94.2848 80.4994 94.2848 87.3293 90.3465C90.9394 88.2621 92.6424 85.4947 92.4384 82.7716Z" fill="url(#paint11_linear_64_610)"/>
<path d="M74.9738 88.058C82.8167 88.058 89.1746 84.3886 89.1746 79.8622C89.1746 75.3357 82.8167 71.6663 74.9738 71.6663C67.1309 71.6663 60.7729 75.3357 60.7729 79.8622C60.7729 84.3886 67.1309 88.058 74.9738 88.058Z" fill="url(#paint12_linear_64_610)"/>
<path d="M74.2992 88.058C82.1421 88.058 88.5001 84.3886 88.5001 79.8622C88.5001 75.3357 82.1421 71.6663 74.2992 71.6663C66.4563 71.6663 60.0984 75.3357 60.0984 79.8622C60.0984 84.3886 66.4563 88.058 74.2992 88.058Z" fill="url(#paint13_linear_64_610)"/>
<path opacity="0.4" d="M66.6179 75.2853C72.1617 72.0832 81.1558 72.0832 86.6995 75.2853C86.7705 75.3296 86.8326 75.374 86.8947 75.4094C86.3625 74.9305 85.7327 74.4781 85.0142 74.0612C79.4705 70.8591 70.4764 70.8591 64.9326 74.0612C59.4598 77.2189 59.3978 82.3191 64.7375 85.5301C61.1806 82.3546 61.8015 78.0704 66.6179 75.2853Z" fill="#06033E"/>
<path d="M64.9329 75.4893C70.4766 72.2872 79.4708 72.2872 85.0145 75.4893C87.4715 76.9085 88.8375 78.7179 89.1213 80.5718C89.4673 78.2478 88.1013 75.8441 85.0145 74.0612C79.4708 70.8591 70.4766 70.8591 64.9329 74.0612C61.8461 75.8441 60.4802 78.239 60.8261 80.5718C61.1099 78.7179 62.4759 76.9085 64.9329 75.4893Z" fill="url(#paint14_linear_64_610)"/>
<path d="M87.1963 72.9525C80.5172 69.0142 69.6249 68.9166 62.8749 72.7396C56.1248 76.5625 56.0716 82.8425 62.7507 86.7808C69.4298 90.719 80.3221 90.8166 87.0721 86.9936C93.8311 83.1707 93.8843 76.8907 87.1963 72.9525ZM85.0143 85.6631C83.1605 86.7364 80.9253 87.4371 78.557 87.7919L78.2997 86.9493C78.1933 86.6033 77.8829 86.3727 77.5192 86.3727H72.4189C72.0641 86.3727 71.7448 86.6033 71.6384 86.9493L71.3812 87.7919C69.0129 87.4371 66.7776 86.7364 64.9238 85.6631C59.3801 82.4611 59.3801 77.2721 64.9238 74.0701C70.4676 70.868 79.4617 70.868 85.0054 74.0701C90.5581 77.2721 90.558 82.4611 85.0143 85.6631Z" fill="url(#paint15_radial_64_610)"/>
<path d="M85.0146 73.4581C79.4709 70.256 70.4767 70.256 64.933 73.4581C62.0236 75.1345 60.6488 77.3609 60.7907 79.5606C60.9149 77.5649 62.2986 75.5957 64.933 74.0701C70.4767 70.868 79.4709 70.868 85.0146 74.0701C87.649 75.5957 89.0327 77.5649 89.1569 79.5606C89.2988 77.3609 87.924 75.1434 85.0146 73.4581Z" fill="white"/>
<path d="M87.0722 86.3905C80.3222 90.2134 69.4298 90.1159 62.7508 86.1776C59.5664 84.306 57.9166 81.9023 57.7836 79.4808C57.6505 82.0974 59.3003 84.7584 62.7508 86.7896C69.4298 90.7279 80.3222 90.8255 87.0722 87.0025C90.6114 84.9979 92.3055 82.3192 92.1636 79.6582C92.0394 82.1063 90.3453 84.5367 87.0722 86.3905Z" fill="white"/>
<path d="M76.4729 88.2266H73.4837C73.2531 88.2266 73.0757 88.0403 73.0757 87.8186C73.0757 87.5879 73.262 87.4105 73.4837 87.4105H76.4729C76.7035 87.4105 76.8809 87.5968 76.8809 87.8186C76.8809 88.0492 76.7035 88.2266 76.4729 88.2266Z" fill="#0C0A78"/>
<path d="M76.4991 87.4016H73.4478C73.2349 87.4016 73.0664 87.5702 73.0664 87.7831V87.8363C73.0664 87.8718 73.0753 87.9072 73.0841 87.9427C73.1285 87.7831 73.2704 87.6589 73.4478 87.6589H76.4991C76.6765 87.6589 76.8184 87.7831 76.8628 87.9427C76.8716 87.9072 76.8805 87.8806 76.8805 87.8363V87.7919C76.8805 87.579 76.712 87.4016 76.4991 87.4016Z" fill="url(#paint16_linear_64_610)"/>
<path d="M75.444 115.245C75.0714 116.646 73.6256 117.489 72.2242 117.116C70.8227 116.744 69.98 115.298 70.3526 113.896C70.7251 112.495 72.0556 112.096 73.4571 112.468C74.8674 112.832 75.8165 113.843 75.444 115.245Z" fill="#CED210"/>
<path d="M77.5195 112.468C76.9873 112.983 76.3132 112.921 75.8609 112.459C75.4085 111.998 75.3553 111.315 75.8875 110.801C76.4197 110.286 77.422 110.029 77.8743 110.49C78.3267 110.951 78.0429 111.954 77.5195 112.468Z" fill="#CED210"/>
<path d="M74.7607 110.268C74.6276 110.996 74.0422 111.342 73.4036 111.226C72.7738 111.111 72.3303 110.588 72.4634 109.86C72.5964 109.133 73.2617 108.335 73.9003 108.45C74.5389 108.557 74.8937 109.541 74.7607 110.268Z" fill="#CED210"/>
<path d="M71.3635 109.931C71.6473 110.614 71.328 111.218 70.7337 111.466C70.1394 111.714 69.4919 111.501 69.2081 110.818C68.9242 110.135 69.0662 109.106 69.6605 108.858C70.2636 108.61 71.0885 109.248 71.3635 109.931Z" fill="#CED210"/>
<path opacity="0.45" d="M76.056 87.8185C76.056 87.8185 85.2719 84.7318 81.5376 74.141C77.8034 63.5503 70.5389 60.3216 73.466 51.8508C73.466 51.8508 68.8802 58.7072 73.1644 67.9852C77.4486 77.2632 78.3888 76.1988 78.3444 80.6338C78.2824 85.9026 74.0248 87.8185 74.0248 87.8185H76.056Z" fill="white"/>
<path opacity="0.45" d="M76.8804 53.3232C76.8804 53.3232 75.9225 46.99 81.8654 40.6036C81.8654 40.6036 76.6143 52.3386 78.3262 58.1307C78.3351 58.1307 76.9425 54.4497 76.8804 53.3232Z" fill="white"/>
<g filter="url(#filter0_f_64_610)">
<ellipse cx="217.001" cy="117.277" rx="35.227" ry="36.0554" transform="rotate(-163.695 217.001 117.277)" fill="url(#paint17_linear_64_610)"/>
</g>
<path fill-rule="evenodd" clip-rule="evenodd" d="M190.336 18.3421C182.018 17.254 174.617 23.1408 173.805 31.4907C172.994 39.8406 179.08 47.4916 187.398 48.5797L233.806 54.6501C233.811 54.6688 233.817 54.6875 233.823 54.7062L238.318 68.7863C238.83 70.3899 240.973 70.6823 241.896 69.2746L250 56.914C250.029 56.8695 250.056 56.8245 250.081 56.779L253.224 57.1902C261.542 58.2782 268.943 52.3914 269.755 44.0415C270.566 35.6916 264.481 28.0406 256.162 26.9526L190.336 18.3421Z" fill="url(#paint18_linear_64_610)"/>
<path d="M206.619 34.4412L206.395 36.7742L199.965 35.9394L200.189 33.6064L206.619 34.4412ZM201.676 28.7429L200.467 41.3237L197.445 40.9315L198.655 28.3506L201.676 28.7429ZM209.131 29.7107L207.921 42.2915L204.909 41.9004L206.118 29.3195L209.131 29.7107Z" fill="white"/>
<path d="M216.861 30.7142L215.652 43.2951L212.63 42.9028L213.84 30.3219L216.861 30.7142ZM220.632 31.2037L220.407 33.5453L209.93 32.1853L210.156 29.8436L220.632 31.2037Z" fill="white"/>
<path d="M223.412 31.5646L225.874 31.8843L227.83 41.0005L231.47 32.6107L233.932 32.9303L228.461 44.958L226.464 44.6987L223.412 31.5646ZM221.914 31.3702L224.463 31.701L224.009 41.4055L223.726 44.3433L220.705 43.9511L221.914 31.3702ZM232.881 32.7939L235.438 33.1258L234.229 45.7067L231.198 45.3133L231.481 42.3755L232.881 32.7939Z" fill="white"/>
<path d="M244.671 44.7002L244.447 47.0332L238.111 46.2107L238.335 43.8777L244.671 44.7002ZM240.397 33.7695L239.187 46.3504L236.165 45.9582L237.375 33.3773L240.397 33.7695Z" fill="white"/>
</g>
<defs>
<filter id="filter0_f_64_610" x="81.6987" y="-18.7225" width="270.604" height="272" filterUnits="userSpaceOnUse" color-interpolation-filters="sRGB">
<feFlood flood-opacity="0" result="BackgroundImageFix"/>
<feBlend mode="normal" in="SourceGraphic" in2="BackgroundImageFix" result="shape"/>
<feGaussianBlur stdDeviation="50" result="effect1_foregroundBlur_64_610"/>
</filter>
<linearGradient id="paint0_linear_64_610" x1="252.777" y1="208.52" x2="271.995" y2="208.52" gradientUnits="userSpaceOnUse">
<stop stop-color="#CED20F"/>
<stop offset="1" stop-color="#560BD3"/>
</linearGradient>
<linearGradient id="paint1_linear_64_610" x1="224.427" y1="173.003" x2="256.707" y2="173.003" gradientUnits="userSpaceOnUse">
<stop stop-color="#CED210"/>
<stop offset="1" stop-color="#550BD1"/>
</linearGradient>
<linearGradient id="paint2_linear_64_610" x1="49.1438" y1="181.747" x2="221.428" y2="181.747" gradientUnits="userSpaceOnUse">
<stop offset="0.453125" stop-color="#CED20F"/>
<stop offset="1" stop-color="#560BD2"/>
</linearGradient>
<radialGradient id="paint3_radial_64_610" cx="0" cy="0" r="1" gradientUnits="userSpaceOnUse" gradientTransform="translate(144.306 54.1927) scale(131.586)">
<stop stop-color="#E39A65"/>
<stop offset="0.4742" stop-color="#A92FFB"/>
<stop offset="0.5947" stop-color="#891CFB"/>
<stop offset="0.7421" stop-color="#6507FA"/>
<stop offset="0.8016" stop-color="#0D0C6F"/>
</radialGradient>
<radialGradient id="paint4_radial_64_610" cx="0" cy="0" r="1" gradientUnits="userSpaceOnUse" gradientTransform="translate(63.8255 159.866) scale(143.888)">
<stop stop-color="#CED20F"/>
<stop offset="0.4742" stop-color="#A92FFB"/>
<stop offset="0.5679" stop-color="#891CFB"/>
<stop offset="0.6825" stop-color="#6507FA"/>
<stop offset="0.7381" stop-color="#0D0C6F"/>
</radialGradient>
<radialGradient id="paint5_radial_64_610" cx="0" cy="0" r="1" gradientUnits="userSpaceOnUse" gradientTransform="translate(77.0593 130.985) scale(129.031)">
<stop stop-color="#E39A65"/>
<stop offset="0.4742" stop-color="#A92FFB"/>
<stop offset="0.5875" stop-color="#891CFB"/>
<stop offset="0.7262" stop-color="#6507FA"/>
<stop offset="1" stop-color="#3919BB"/>
</radialGradient>
<radialGradient id="paint6_radial_64_610" cx="0" cy="0" r="1" gradientUnits="userSpaceOnUse" gradientTransform="translate(109.204 81.6404) scale(131.613)">
<stop stop-color="#E39A65"/>
<stop offset="0.4742" stop-color="#A92FFB"/>
<stop offset="0.5875" stop-color="#891CFB"/>
<stop offset="0.7262" stop-color="#6507FA"/>
<stop offset="1" stop-color="#3919BB"/>
</radialGradient>
<linearGradient id="paint7_linear_64_610" x1="123.669" y1="116.189" x2="229.132" y2="116.189" gradientUnits="userSpaceOnUse">
<stop stop-color="#3919BB"/>
<stop offset="1" stop-color="#6507FA"/>
</linearGradient>
<radialGradient id="paint8_radial_64_610" cx="0" cy="0" r="1" gradientUnits="userSpaceOnUse" gradientTransform="translate(61.1576 53.5352) scale(204.983)">
<stop stop-color="#E39A65"/>
<stop offset="0.4742" stop-color="#A92FFB"/>
<stop offset="0.5875" stop-color="#891CFB"/>
<stop offset="0.7262" stop-color="#6507FA"/>
<stop offset="1" stop-color="#3919BB"/>
</radialGradient>
<linearGradient id="paint9_linear_64_610" x1="51.7661" y1="130.616" x2="97.0091" y2="130.616" gradientUnits="userSpaceOnUse">
<stop stop-color="#CED20F"/>
<stop offset="1" stop-color="#560BD1"/>
</linearGradient>
<radialGradient id="paint10_radial_64_610" cx="0" cy="0" r="1" gradientUnits="userSpaceOnUse" gradientTransform="translate(55.777 93.711) scale(97.4386)">
<stop stop-color="#E39A65"/>
<stop offset="0.1528" stop-color="#A92FFB"/>
<stop offset="0.4087" stop-color="#3919BB"/>
<stop offset="0.9311" stop-color="#3919BB"/>
</radialGradient>
<linearGradient id="paint11_linear_64_610" x1="57.5016" y1="81.6404" x2="92.4521" y2="81.6404" gradientUnits="userSpaceOnUse">
<stop stop-color="#E39A65"/>
<stop offset="0.252" stop-color="#A92FFB"/>
<stop offset="0.5556" stop-color="#3919BB"/>
</linearGradient>
<linearGradient id="paint12_linear_64_610" x1="60.7792" y1="79.8645" x2="89.1736" y2="79.8645" gradientUnits="userSpaceOnUse">
<stop stop-color="#4F1FEC"/>
<stop offset="1" stop-color="#A92FFB"/>
</linearGradient>
<linearGradient id="paint13_linear_64_610" x1="60.105" y1="79.8645" x2="88.4995" y2="79.8645" gradientUnits="userSpaceOnUse">
<stop stop-color="#4F1FEC"/>
<stop offset="1" stop-color="#A92FFB"/>
</linearGradient>
<linearGradient id="paint14_linear_64_610" x1="60.7814" y1="76.1219" x2="96.582" y2="76.1219" gradientUnits="userSpaceOnUse">
<stop stop-color="#131060"/>
<stop offset="0.1857" stop-color="#141062"/>
<stop offset="0.2823" stop-color="#19106A"/>
<stop offset="0.3584" stop-color="#221078"/>
<stop offset="0.4238" stop-color="#2E0F8B"/>
<stop offset="0.4823" stop-color="#3E0FA3"/>
<stop offset="0.5359" stop-color="#510EC2"/>
<stop offset="0.5847" stop-color="#680DE5"/>
<stop offset="0.6071" stop-color="#740DF8"/>
<stop offset="0.6179" stop-color="#7A14F0"/>
<stop offset="0.6826" stop-color="#9B3CC3"/>
<stop offset="0.7477" stop-color="#B75D9D"/>
<stop offset="0.8123" stop-color="#CC7680"/>
<stop offset="0.8762" stop-color="#DC886C"/>
<stop offset="0.9391" stop-color="#E5935F"/>
<stop offset="1" stop-color="#E8975B"/>
</linearGradient>
<radialGradient id="paint15_radial_64_610" cx="0" cy="0" r="1" gradientUnits="userSpaceOnUse" gradientTransform="translate(53.1393 71.752) scale(63.7403)">
<stop stop-color="#E39A65"/>
<stop offset="0.252" stop-color="#A92FFB"/>
<stop offset="0.7357" stop-color="#3919BB"/>
</radialGradient>
<linearGradient id="paint16_linear_64_610" x1="72.7289" y1="87.6762" x2="77.6817" y2="87.6762" gradientUnits="userSpaceOnUse">
<stop stop-color="#131060"/>
<stop offset="0.1857" stop-color="#141062"/>
<stop offset="0.2823" stop-color="#19106A"/>
<stop offset="0.3584" stop-color="#221078"/>
<stop offset="0.4238" stop-color="#2E0F8B"/>
<stop offset="0.4823" stop-color="#3E0FA3"/>
<stop offset="0.5359" stop-color="#510EC2"/>
<stop offset="0.5847" stop-color="#680DE5"/>
<stop offset="0.6071" stop-color="#740DF8"/>
<stop offset="0.6179" stop-color="#7A14F0"/>
<stop offset="0.6826" stop-color="#9B3CC3"/>
<stop offset="0.7477" stop-color="#B75D9D"/>
<stop offset="0.8123" stop-color="#CC7680"/>
<stop offset="0.8762" stop-color="#DC886C"/>
<stop offset="0.9391" stop-color="#E5935F"/>
<stop offset="1" stop-color="#E8975B"/>
</linearGradient>
<linearGradient id="paint17_linear_64_610" x1="217.001" y1="81.2221" x2="217.001" y2="153.333" gradientUnits="userSpaceOnUse">
<stop stop-color="#CED210"/>
<stop offset="1" stop-color="#2526B8"/>
</linearGradient>
<linearGradient id="paint18_linear_64_610" x1="197.892" y1="26.1594" x2="244.599" y2="47.6282" gradientUnits="userSpaceOnUse">
<stop stop-color="#CCCE14"/>
<stop offset="1" stop-color="#570CD1"/>
</linearGradient>
</defs>
</svg>
