<svg width="784" height="634" viewBox="0 0 784 634" fill="none" xmlns="http://www.w3.org/2000/svg">
<g opacity="0.6" filter="url(#filter0_f_37_520)">
<ellipse cx="431.144" cy="306.806" rx="202.038" ry="206.789" transform="rotate(-163.695 431.144 306.806)" fill="url(#paint0_linear_37_520)"/>
</g>
<path d="M637.49 541.549C635.944 541.549 634.398 541.143 633.026 540.351L617.952 531.654C617.082 531.152 616.561 530.244 616.561 529.239C616.561 528.234 617.082 527.325 617.952 526.823L633.026 518.126C635.79 516.542 639.21 516.542 641.974 518.126L657.048 526.823C657.918 527.325 658.44 528.234 658.44 529.239C658.44 530.244 657.918 531.152 657.048 531.654L641.974 540.351C640.583 541.143 639.037 541.549 637.49 541.549ZM637.49 519.305C636.35 519.305 635.229 519.595 634.205 520.175L619.131 528.872C618.957 528.968 618.938 529.142 618.938 529.219C618.938 529.297 618.957 529.471 619.131 529.567L634.205 538.264C636.215 539.423 638.727 539.423 640.757 538.264L655.831 529.567C656.005 529.471 656.024 529.297 656.024 529.219C656.024 529.142 656.005 528.968 655.831 528.872L640.757 520.175C639.752 519.614 638.631 519.305 637.49 519.305Z" fill="url(#paint1_linear_37_520)"/>
<path d="M589.954 472.172C587.442 472.172 584.93 471.534 582.688 470.239L556.752 455.262C555.516 454.547 554.781 453.271 554.781 451.841C554.781 450.411 555.516 449.135 556.752 448.42L582.688 433.443C587.171 430.853 592.737 430.853 597.201 433.443L623.137 448.42C624.374 449.135 625.108 450.411 625.108 451.841C625.108 453.271 624.374 454.547 623.137 455.262L597.201 470.239C594.979 471.534 592.467 472.172 589.954 472.172ZM583.886 468.171C587.635 470.336 592.273 470.336 596.023 468.171L621.958 453.194C622.654 452.788 622.731 452.112 622.731 451.841C622.731 451.57 622.654 450.894 621.958 450.488L596.023 435.511C592.273 433.346 587.635 433.346 583.886 435.511L557.951 450.488C557.255 450.894 557.178 451.57 557.178 451.841C557.178 452.112 557.255 452.788 557.951 453.194L583.886 468.171Z" fill="url(#paint2_linear_37_520)"/>
<path d="M44.6262 562.531C41.5318 562.558 38.4305 561.8 35.6555 560.229L3.55086 542.061C2.01978 541.193 1.10156 539.63 1.08619 537.869C1.07081 536.107 1.96162 534.528 3.47732 533.634L35.26 514.908C40.7544 511.67 47.6097 511.611 53.136 514.752L85.2407 532.921C86.7717 533.788 87.69 535.351 87.7053 537.113C87.7207 538.874 86.8299 540.453 85.3142 541.347L53.5315 560.073C50.8079 561.668 47.7206 562.504 44.6262 562.531ZM44.2149 515.401C41.6204 515.424 39.0555 516.113 36.7582 517.466L4.97555 536.192C4.123 536.7 4.03506 537.533 4.03797 537.867C4.04087 538.2 4.14336 539.032 5.00463 539.525L37.1092 557.693C41.7503 560.319 47.463 560.269 52.0575 557.563L83.8402 538.837C84.6927 538.329 84.7807 537.495 84.7778 537.162C84.7749 536.829 84.6724 535.997 83.8111 535.504L51.7065 517.336C49.386 516.023 46.7856 515.379 44.2149 515.401Z" fill="url(#paint3_linear_37_520)"/>
<path opacity="0.6" d="M388.792 561.071L203.361 454.005C200.655 452.44 201.003 449.715 204.114 447.918L323.123 379.195C326.234 377.398 330.969 377.205 333.675 378.751L519.106 485.816C521.812 487.381 521.464 490.106 518.352 491.903L399.344 560.626C396.213 562.423 391.498 562.617 388.792 561.071Z" fill="#020230"/>
<path d="M393.044 580.396C390.879 580.396 388.792 579.952 387.207 579.024L175.57 456.827C173.85 455.822 172.884 454.392 172.884 452.769C172.884 450.913 174.179 449.097 176.42 447.802L320.688 363.271C324.65 360.99 330.467 360.758 333.926 362.768L545.563 484.965C547.283 485.97 548.249 487.4 548.249 489.024C548.249 490.879 546.955 492.696 544.713 493.991L400.445 578.522C398.3 579.759 395.614 580.396 393.044 580.396ZM328.128 363.812C325.964 363.812 323.664 364.334 321.905 365.339L177.638 449.87C176.169 450.72 175.28 451.802 175.28 452.769C175.28 453.696 176.092 454.353 176.768 454.759L388.405 576.956C391.111 578.522 396.078 578.29 399.247 576.454L543.515 491.923C544.983 491.072 545.872 489.99 545.872 489.024C545.872 488.096 545.061 487.439 544.384 487.033L332.747 364.836C331.53 364.16 329.868 363.812 328.128 363.812Z" fill="url(#paint4_linear_37_520)"/>
<path d="M568.367 306.337L383.651 199.697C382.376 198.962 381.062 198.808 379.883 199.156H379.863L376.443 200.354L377.641 200.644C377.158 201.224 376.771 201.919 376.52 202.75L334.757 338.379C333.713 341.742 335.24 345.819 338.139 347.501L522.855 454.141C523.3 454.392 523.763 454.585 524.208 454.701L523.744 455.706L527.01 454.566C528.344 454.025 529.445 452.846 529.986 451.107L571.749 315.478C572.793 312.096 571.286 307.999 568.367 306.337Z" fill="url(#paint5_radial_37_520)"/>
<path d="M516.246 459.204L516.304 459.281L333.849 353.956C331.163 352.41 326.486 352.603 323.374 354.381L205.506 422.446L201.583 420.939L202.684 426.447C202.839 427.278 203.419 428.051 204.462 428.65L388.599 534.961C391.285 536.507 395.962 536.314 399.074 534.536L517.251 466.297C518.7 465.446 519.551 464.403 519.763 463.378L520.884 458.006L516.246 459.204Z" fill="url(#paint6_radial_37_520)"/>
<path d="M388.792 530.111L203.361 423.045C200.655 421.48 201.003 418.755 204.114 416.958L323.123 348.235C326.234 346.438 330.969 346.245 333.675 347.791L519.106 454.856C521.812 456.421 521.464 459.146 518.352 460.943L399.344 529.666C396.213 531.463 391.498 531.676 388.792 530.111Z" fill="url(#paint7_radial_37_520)"/>
<path d="M518.353 459.513L399.344 528.236C396.233 530.033 391.498 530.227 388.792 528.68L203.361 421.615C202.433 421.074 201.892 420.417 201.68 419.683C201.312 420.92 201.854 422.176 203.361 423.045L388.792 530.111C391.498 531.676 396.213 531.483 399.344 529.666L518.353 460.943C520.401 459.765 521.232 458.18 520.788 456.769C520.517 457.755 519.725 458.721 518.353 459.513Z" fill="white"/>
<g opacity="0.4">
<path opacity="0.4" d="M291.796 405.672L285.534 402.058C285.032 401.768 285.09 401.265 285.669 400.917L293.052 396.646C293.632 396.318 294.501 396.279 295.004 396.569L301.265 400.183C301.768 400.473 301.71 400.975 301.13 401.323L293.748 405.594C293.187 405.923 292.298 405.961 291.796 405.672Z" fill="#06033E"/>
<path opacity="0.4" d="M301.477 411.257L295.216 407.643C294.713 407.353 294.771 406.85 295.351 406.503L302.734 402.232C303.313 401.903 304.183 401.864 304.685 402.154L310.947 405.768C311.45 406.058 311.392 406.561 310.812 406.908L303.429 411.179C302.85 411.508 301.98 411.547 301.477 411.257Z" fill="#06033E"/>
<path opacity="0.4" d="M311.14 416.842L304.879 413.228C304.376 412.938 304.434 412.436 305.014 412.088L312.397 407.817C312.976 407.488 313.846 407.45 314.348 407.739L320.61 411.353C321.112 411.643 321.055 412.146 320.475 412.494L313.092 416.765C312.512 417.093 311.643 417.132 311.14 416.842Z" fill="#06033E"/>
<path opacity="0.4" d="M324.515 412.223L318.253 408.609C317.751 408.319 317.809 407.817 318.388 407.469L324.592 403.894C325.172 403.565 326.041 403.526 326.544 403.816L332.805 407.43C333.308 407.72 333.25 408.223 332.67 408.57L326.467 412.146C325.887 412.474 325.017 412.513 324.515 412.223Z" fill="#06033E"/>
<path opacity="0.4" d="M334.177 417.808L327.916 414.194C327.413 413.904 327.471 413.402 328.051 413.054L334.255 409.479C334.835 409.15 335.704 409.112 336.207 409.401L342.468 413.015C342.971 413.305 342.913 413.808 342.333 414.156L336.129 417.731C335.569 418.059 334.68 418.098 334.177 417.808Z" fill="#06033E"/>
<path opacity="0.4" d="M343.841 423.393L337.579 419.779C337.077 419.49 337.134 418.987 337.714 418.639L343.918 415.064C344.498 414.735 345.367 414.697 345.87 414.987L352.131 418.601C352.634 418.89 352.576 419.393 351.996 419.741L345.792 423.316C345.232 423.645 344.343 423.683 343.841 423.393Z" fill="#06033E"/>
<path opacity="0.4" d="M353.522 428.978L347.261 425.365C346.758 425.075 346.816 424.572 347.396 424.224L353.6 420.649C354.179 420.321 355.049 420.282 355.551 420.572L361.813 424.186C362.315 424.476 362.257 424.978 361.678 425.326L355.474 428.901C354.894 429.23 354.025 429.268 353.522 428.978Z" fill="#06033E"/>
<path opacity="0.4" d="M363.185 434.544L356.923 430.93C356.421 430.641 356.479 430.138 357.059 429.79L363.262 426.215C363.842 425.886 364.712 425.848 365.214 426.138L371.476 429.752C371.978 430.041 371.92 430.544 371.341 430.892L365.137 434.467C364.557 434.796 363.687 434.834 363.185 434.544Z" fill="#06033E"/>
<path opacity="0.4" d="M372.848 440.129L366.587 436.516C366.084 436.226 366.142 435.723 366.722 435.375L372.925 431.8C373.505 431.472 374.375 431.433 374.877 431.723L381.139 435.337C381.641 435.627 381.583 436.129 381.004 436.477L374.8 440.052C374.24 440.381 373.351 440.419 372.848 440.129Z" fill="#06033E"/>
<path opacity="0.4" d="M382.531 445.715L376.269 442.101C375.767 441.811 375.825 441.308 376.404 440.961L382.608 437.385C383.188 437.057 384.057 437.018 384.56 437.308L390.822 440.922C391.324 441.212 391.266 441.714 390.686 442.062L384.483 445.637C383.903 445.966 383.033 446.005 382.531 445.715Z" fill="#06033E"/>
<path opacity="0.4" d="M392.194 451.3L385.932 447.686C385.43 447.396 385.488 446.894 386.068 446.546L392.271 442.97C392.851 442.642 393.721 442.603 394.223 442.893L400.485 446.507C400.987 446.797 400.929 447.299 400.349 447.647L394.146 451.223C393.566 451.551 392.696 451.59 392.194 451.3Z" fill="#06033E"/>
<path opacity="0.4" d="M401.857 456.885L395.595 453.271C395.093 452.981 395.151 452.479 395.73 452.131L401.934 448.556C402.514 448.227 403.383 448.188 403.886 448.478L410.147 452.092C410.65 452.382 410.592 452.885 410.012 453.232L403.809 456.808C403.248 457.136 402.359 457.175 401.857 456.885Z" fill="#06033E"/>
<path opacity="0.4" d="M411.52 462.47L405.258 458.856C404.755 458.566 404.813 458.064 405.393 457.716L411.597 454.141C412.177 453.812 413.046 453.774 413.549 454.063L419.81 457.677C420.313 457.967 420.255 458.47 419.675 458.818L413.471 462.393C412.911 462.721 412.022 462.76 411.52 462.47Z" fill="#06033E"/>
<path opacity="0.4" d="M338.757 409.575L332.495 405.961C331.993 405.672 332.051 405.169 332.631 404.821L338.834 401.246C339.414 400.917 340.284 400.879 340.786 401.169L347.048 404.783C347.55 405.072 347.492 405.575 346.913 405.923L340.709 409.498C340.129 409.827 339.26 409.865 338.757 409.575Z" fill="#06033E"/>
<path opacity="0.4" d="M328.94 403.913L322.679 400.299C322.176 400.009 322.234 399.507 322.814 399.159L329.018 395.583C329.597 395.255 330.467 395.216 330.97 395.506L337.231 399.12C337.734 399.41 337.676 399.912 337.096 400.26L330.892 403.836C330.332 404.164 329.443 404.203 328.94 403.913Z" fill="#06033E"/>
<path opacity="0.4" d="M319.122 398.231L305.633 390.443C305.13 390.153 305.188 389.65 305.768 389.303L311.972 385.727C312.551 385.399 313.421 385.36 313.923 385.65L327.413 393.438C327.915 393.728 327.857 394.231 327.278 394.579L321.074 398.154C320.494 398.502 319.625 398.521 319.122 398.231Z" fill="#06033E"/>
<path opacity="0.4" d="M325.983 391.332L315.045 385.012C314.542 384.722 314.6 384.22 315.18 383.872L321.384 380.297C321.963 379.968 322.833 379.93 323.335 380.219L334.274 386.539C334.776 386.829 334.718 387.331 334.139 387.679L327.935 391.254C327.375 391.583 326.486 391.622 325.983 391.332Z" fill="#06033E"/>
<path opacity="0.4" d="M348.42 415.161L342.158 411.547C341.656 411.257 341.714 410.754 342.294 410.406L348.497 406.831C349.077 406.503 349.947 406.464 350.449 406.754L356.711 410.368C357.213 410.658 357.155 411.16 356.575 411.508L350.372 415.083C349.811 415.412 348.922 415.45 348.42 415.161Z" fill="#06033E"/>
<path opacity="0.4" d="M358.103 420.746L351.841 417.132C351.339 416.842 351.397 416.339 351.976 415.992L358.18 412.416C358.76 412.088 359.629 412.049 360.132 412.339L366.393 415.953C366.896 416.243 366.838 416.745 366.258 417.093L360.055 420.668C359.475 420.997 358.605 421.036 358.103 420.746Z" fill="#06033E"/>
<path opacity="0.4" d="M367.766 426.331L361.504 422.717C361.002 422.427 361.06 421.925 361.639 421.577L367.843 418.001C368.423 417.673 369.292 417.634 369.795 417.924L376.056 421.538C376.559 421.828 376.501 422.33 375.921 422.678L369.718 426.254C369.138 426.582 368.268 426.621 367.766 426.331Z" fill="#06033E"/>
<path opacity="0.4" d="M377.428 431.916L371.167 428.302C370.664 428.012 370.722 427.51 371.302 427.162L377.506 423.587C378.086 423.258 378.955 423.219 379.458 423.509L385.719 427.123C386.222 427.413 386.164 427.916 385.584 428.263L379.38 431.839C378.82 432.167 377.931 432.206 377.428 431.916Z" fill="#06033E"/>
<path opacity="0.4" d="M387.092 437.482L380.83 433.868C380.327 433.578 380.385 433.076 380.965 432.728L387.169 429.152C387.749 428.824 388.618 428.785 389.121 429.075L395.382 432.689C395.885 432.979 395.827 433.481 395.247 433.829L389.043 437.405C388.483 437.752 387.594 437.772 387.092 437.482Z" fill="#06033E"/>
<path opacity="0.4" d="M396.773 443.067L390.512 439.453C390.009 439.163 390.067 438.661 390.647 438.313L396.85 434.738C397.43 434.409 398.3 434.37 398.802 434.66L405.064 438.274C405.566 438.564 405.508 439.067 404.929 439.414L398.725 442.99C398.145 443.318 397.276 443.357 396.773 443.067Z" fill="#06033E"/>
<path opacity="0.4" d="M406.436 448.652L400.175 445.038C399.672 444.748 399.73 444.246 400.31 443.898L406.514 440.323C407.093 439.994 407.963 439.956 408.465 440.245L414.727 443.859C415.23 444.149 415.172 444.652 414.592 445L408.388 448.575C407.808 448.903 406.939 448.942 406.436 448.652Z" fill="#06033E"/>
<path opacity="0.4" d="M416.099 454.237L409.838 450.623C409.335 450.334 409.393 449.831 409.973 449.483L416.176 445.908C416.756 445.579 417.626 445.541 418.128 445.831L424.39 449.445C424.892 449.734 424.834 450.237 424.255 450.585L418.051 454.16C417.491 454.489 416.602 454.527 416.099 454.237Z" fill="#06033E"/>
<path opacity="0.4" d="M425.782 459.823L419.52 456.209C419.018 455.919 419.076 455.416 419.655 455.068L425.859 451.493C426.439 451.165 427.308 451.126 427.811 451.416L434.073 455.03C434.575 455.32 434.517 455.822 433.937 456.17L427.734 459.745C427.154 460.074 426.284 460.112 425.782 459.823Z" fill="#06033E"/>
<path opacity="0.4" d="M442.963 469.737L429.299 461.852C428.797 461.562 428.855 461.059 429.434 460.712L435.638 457.136C436.218 456.808 437.088 456.769 437.59 457.059L451.253 464.944C451.756 465.234 451.698 465.736 451.118 466.084L444.914 469.659C444.335 469.988 443.465 470.027 442.963 469.737Z" fill="#06033E"/>
<path opacity="0.4" d="M461.786 458.876L450.248 452.228C449.746 451.938 449.804 451.435 450.383 451.087L456.587 447.512C457.167 447.183 458.036 447.145 458.539 447.435L470.076 454.083C470.579 454.373 470.521 454.875 469.941 455.223L463.738 458.798C463.158 459.127 462.288 459.165 461.786 458.876Z" fill="#06033E"/>
<path opacity="0.4" d="M365.35 414.078L359.088 410.464C358.586 410.174 358.644 409.672 359.224 409.324L365.427 405.749C366.007 405.42 366.877 405.382 367.379 405.672L373.641 409.285C374.143 409.575 374.085 410.078 373.505 410.426L367.302 414.001C366.741 414.33 365.852 414.368 365.35 414.078Z" fill="#06033E"/>
<path opacity="0.4" d="M355.455 408.358L349.193 404.744C348.691 404.454 348.749 403.952 349.329 403.604L355.532 400.028C356.112 399.7 356.982 399.661 357.484 399.951L363.746 403.565C364.248 403.855 364.19 404.357 363.61 404.705L357.407 408.281C356.827 408.609 355.957 408.648 355.455 408.358Z" fill="#06033E"/>
<path opacity="0.4" d="M345.541 402.637L339.279 399.023C338.777 398.734 338.835 398.231 339.415 397.883L345.618 394.308C346.198 393.979 347.068 393.941 347.57 394.231L353.832 397.845C354.334 398.134 354.276 398.637 353.696 398.985L347.493 402.56C346.913 402.889 346.043 402.927 345.541 402.637Z" fill="#06033E"/>
<path opacity="0.4" d="M335.627 396.898L329.365 393.284C328.863 392.994 328.921 392.491 329.501 392.143L335.704 388.568C336.284 388.24 337.154 388.201 337.656 388.491L343.918 392.105C344.42 392.395 344.362 392.897 343.782 393.245L337.579 396.82C337.018 397.168 336.129 397.207 335.627 396.898Z" fill="#06033E"/>
<path opacity="0.4" d="M375.032 419.644L368.77 416.03C368.268 415.74 368.326 415.238 368.905 414.89L375.109 411.315C375.689 410.986 376.558 410.947 377.061 411.237L383.322 414.851C383.825 415.141 383.767 415.644 383.187 415.992L376.984 419.567C376.404 419.915 375.534 419.934 375.032 419.644Z" fill="#06033E"/>
<path opacity="0.4" d="M384.695 425.229L378.433 421.615C377.931 421.325 377.989 420.823 378.568 420.475L384.772 416.9C385.352 416.571 386.221 416.533 386.724 416.823L392.985 420.436C393.488 420.726 393.43 421.229 392.85 421.577L386.646 425.152C386.067 425.481 385.197 425.519 384.695 425.229Z" fill="#06033E"/>
<path opacity="0.4" d="M394.357 430.814L388.096 427.201C387.593 426.911 387.651 426.408 388.231 426.06L394.435 422.485C395.014 422.157 395.884 422.118 396.387 422.408L402.648 426.022C403.151 426.312 403.093 426.814 402.513 427.162L396.309 430.737C395.749 431.066 394.86 431.104 394.357 430.814Z" fill="#06033E"/>
<path opacity="0.4" d="M404.04 436.4L397.779 432.786C397.276 432.496 397.334 431.993 397.914 431.645L404.118 428.07C404.697 427.742 405.567 427.703 406.069 427.993L412.331 431.607C412.834 431.897 412.776 432.399 412.196 432.747L405.992 436.322C405.412 436.651 404.543 436.69 404.04 436.4Z" fill="#06033E"/>
<path opacity="0.4" d="M413.703 441.985L407.442 438.371C406.939 438.081 406.997 437.578 407.577 437.231L413.78 433.655C414.36 433.327 415.23 433.288 415.732 433.578L421.994 437.192C422.496 437.482 422.438 437.984 421.859 438.332L415.655 441.907C415.075 442.236 414.206 442.275 413.703 441.985Z" fill="#06033E"/>
<path opacity="0.4" d="M423.366 447.57L417.104 443.956C416.602 443.666 416.66 443.164 417.24 442.816L423.443 439.241C424.023 438.912 424.893 438.873 425.395 439.163L431.657 442.777C432.159 443.067 432.101 443.57 431.521 443.917L425.337 447.473C424.757 447.821 423.868 447.86 423.366 447.57Z" fill="#06033E"/>
<path opacity="0.4" d="M433.029 453.136L426.767 449.522C426.265 449.232 426.323 448.729 426.903 448.382L433.106 444.806C433.686 444.478 434.556 444.439 435.058 444.729L441.32 448.343C441.822 448.633 441.764 449.135 441.185 449.483L434.981 453.058C434.42 453.406 433.531 453.426 433.029 453.136Z" fill="#06033E"/>
<path opacity="0.4" d="M442.711 458.721L436.449 455.107C435.947 454.817 436.005 454.315 436.584 453.967L442.788 450.392C443.368 450.063 444.237 450.024 444.74 450.314L451.001 453.928C451.504 454.218 451.446 454.72 450.866 455.068L444.663 458.644C444.083 458.972 443.213 459.011 442.711 458.721Z" fill="#06033E"/>
<path opacity="0.4" d="M452.374 464.306L446.112 460.692C445.61 460.402 445.668 459.9 446.247 459.552L452.451 455.977C453.031 455.648 453.9 455.609 454.403 455.899L460.665 459.513C461.167 459.803 461.109 460.306 460.529 460.654L454.326 464.229C453.746 464.557 452.876 464.596 452.374 464.306Z" fill="#06033E"/>
<path opacity="0.4" d="M360.267 400.26L354.006 396.646C353.503 396.356 353.561 395.854 354.141 395.506L360.345 391.931C360.924 391.602 361.794 391.564 362.297 391.854L368.558 395.467C369.061 395.757 369.003 396.26 368.423 396.608L362.219 400.183C361.639 400.512 360.77 400.55 360.267 400.26Z" fill="#06033E"/>
<path opacity="0.4" d="M350.643 394.714L344.382 391.1C343.879 390.81 343.937 390.308 344.517 389.96L350.721 386.384C351.3 386.056 352.17 386.017 352.672 386.307L358.934 389.921C359.437 390.211 359.379 390.713 358.799 391.061L352.595 394.637C352.035 394.965 351.146 395.004 350.643 394.714Z" fill="#06033E"/>
<path opacity="0.4" d="M341.019 389.148L334.757 385.534C334.255 385.244 334.313 384.742 334.893 384.394L341.096 380.819C341.676 380.49 342.546 380.451 343.048 380.741L349.31 384.355C349.812 384.645 349.754 385.148 349.174 385.495L342.971 389.071C342.41 389.399 341.521 389.438 341.019 389.148Z" fill="#06033E"/>
<path opacity="0.4" d="M331.414 383.601L325.152 379.988C324.65 379.698 324.707 379.195 325.287 378.847L331.491 375.272C332.071 374.943 332.94 374.905 333.443 375.195L339.704 378.809C340.207 379.099 340.149 379.601 339.569 379.949L333.365 383.524C332.786 383.853 331.916 383.891 331.414 383.601Z" fill="#06033E"/>
<path opacity="0.4" d="M341.309 377.881L335.047 374.267C334.545 373.977 334.603 373.475 335.182 373.127L337.231 371.948C337.811 371.619 338.68 371.581 339.183 371.871L345.444 375.485C345.947 375.774 345.889 376.277 345.309 376.625L343.261 377.804C342.681 378.152 341.811 378.171 341.309 377.881Z" fill="#06033E"/>
<path opacity="0.4" d="M353.851 385.128L347.589 381.514C347.087 381.224 347.144 380.722 347.724 380.374L349.773 379.195C350.353 378.867 351.222 378.828 351.725 379.118L357.986 382.732C358.489 383.022 358.431 383.524 357.851 383.872L355.802 385.051C355.242 385.399 354.353 385.418 353.851 385.128Z" fill="#06033E"/>
<path opacity="0.4" d="M363.436 390.675L357.175 387.061C356.672 386.771 356.73 386.268 357.31 385.921L359.359 384.742C359.938 384.413 360.808 384.374 361.31 384.664L367.572 388.278C368.074 388.568 368.016 389.071 367.437 389.419L365.388 390.597C364.808 390.926 363.939 390.965 363.436 390.675Z" fill="#06033E"/>
<path opacity="0.4" d="M373.022 396.202L366.76 392.588C366.258 392.298 366.316 391.796 366.895 391.448L368.944 390.269C369.524 389.94 370.393 389.902 370.896 390.192L377.157 393.806C377.66 394.095 377.602 394.598 377.022 394.946L374.974 396.125C374.394 396.453 373.524 396.492 373.022 396.202Z" fill="#06033E"/>
<path opacity="0.4" d="M382.588 401.729L376.327 398.115C375.824 397.825 375.882 397.323 376.462 396.975L378.511 395.796C379.09 395.467 379.96 395.429 380.463 395.719L386.724 399.333C387.227 399.623 387.169 400.125 386.589 400.473L384.54 401.652C383.98 401.98 383.091 402.019 382.588 401.729Z" fill="#06033E"/>
<path opacity="0.4" d="M436.082 432.612L429.821 428.998C429.318 428.708 429.376 428.205 429.956 427.858L432.005 426.679C432.585 426.35 433.454 426.312 433.957 426.601L440.218 430.215C440.721 430.505 440.663 431.008 440.083 431.356L438.034 432.534C437.455 432.863 436.585 432.902 436.082 432.612Z" fill="#06033E"/>
<path opacity="0.4" d="M445.668 438.139L439.407 434.525C438.904 434.235 438.962 433.733 439.542 433.385L441.59 432.206C442.17 431.877 443.04 431.839 443.542 432.129L449.804 435.743C450.306 436.032 450.248 436.535 449.669 436.883L447.62 438.062C447.04 438.39 446.171 438.429 445.668 438.139Z" fill="#06033E"/>
<path opacity="0.4" d="M455.234 443.666L448.972 440.052C448.47 439.762 448.528 439.26 449.108 438.912L451.156 437.733C451.736 437.405 452.606 437.366 453.108 437.656L459.37 441.27C459.872 441.56 459.814 442.062 459.234 442.41L457.186 443.589C456.625 443.917 455.736 443.956 455.234 443.666Z" fill="#06033E"/>
<path opacity="0.4" d="M464.819 449.213L458.558 445.599C458.055 445.309 458.113 444.806 458.693 444.459L460.742 443.28C461.321 442.951 462.191 442.912 462.693 443.202L468.955 446.816C469.458 447.106 469.4 447.609 468.82 447.956L466.771 449.135C466.191 449.464 465.322 449.503 464.819 449.213Z" fill="#06033E"/>
<path opacity="0.4" d="M369.93 405.845L363.669 402.232C363.166 401.942 363.224 401.439 363.804 401.091L370.008 397.516C370.587 397.188 371.457 397.149 371.96 397.439L378.221 401.053C378.724 401.343 378.666 401.845 378.086 402.193L371.882 405.768C371.322 406.097 370.433 406.135 369.93 405.845Z" fill="#06033E"/>
<path opacity="0.4" d="M379.612 411.431L373.35 407.817C372.848 407.527 372.906 407.024 373.486 406.676L379.689 403.101C380.269 402.773 381.139 402.734 381.641 403.024L387.903 406.638C388.405 406.928 388.347 407.43 387.768 407.778L381.564 411.353C380.984 411.682 380.114 411.721 379.612 411.431Z" fill="#06033E"/>
<path opacity="0.4" d="M389.275 417.016L383.014 413.402C382.511 413.112 382.569 412.61 383.149 412.262L389.352 408.686C389.932 408.358 390.802 408.319 391.304 408.609L397.566 412.223C398.068 412.513 398.01 413.015 397.431 413.363L391.227 416.939C390.647 417.267 389.778 417.306 389.275 417.016Z" fill="#06033E"/>
<path opacity="0.4" d="M398.938 422.582L392.676 418.968C392.174 418.678 392.232 418.175 392.812 417.827L399.015 414.252C399.595 413.924 400.465 413.885 400.967 414.175L407.229 417.789C407.731 418.079 407.673 418.581 407.093 418.929L400.89 422.504C400.329 422.852 399.44 422.891 398.938 422.582Z" fill="#06033E"/>
<path opacity="0.4" d="M408.601 428.167L402.339 424.553C401.837 424.263 401.895 423.761 402.475 423.413L408.678 419.837C409.258 419.509 410.128 419.47 410.63 419.76L416.892 423.374C417.394 423.664 417.336 424.166 416.756 424.514L410.553 428.09C409.992 428.418 409.103 428.457 408.601 428.167Z" fill="#06033E"/>
<path opacity="0.4" d="M418.284 433.752L412.022 430.138C411.52 429.848 411.578 429.346 412.157 428.998L418.361 425.423C418.941 425.094 419.81 425.055 420.313 425.345L426.574 428.959C427.077 429.249 427.019 429.752 426.439 430.099L420.236 433.675C419.656 434.003 418.786 434.042 418.284 433.752Z" fill="#06033E"/>
<path opacity="0.4" d="M427.947 439.337L421.685 435.723C421.182 435.433 421.24 434.931 421.82 434.583L428.024 431.008C428.604 430.679 429.473 430.641 429.976 430.93L436.237 434.544C436.74 434.834 436.682 435.337 436.102 435.685L429.898 439.26C429.319 439.588 428.449 439.627 427.947 439.337Z" fill="#06033E"/>
<path opacity="0.4" d="M437.609 444.922L431.348 441.308C430.845 441.018 430.903 440.516 431.483 440.168L437.687 436.593C438.266 436.264 439.136 436.226 439.639 436.516L445.9 440.129C446.403 440.419 446.345 440.922 445.765 441.27L439.561 444.845C439.001 445.174 438.112 445.212 437.609 444.922Z" fill="#06033E"/>
<path opacity="0.4" d="M447.291 450.507L441.03 446.894C440.527 446.604 440.585 446.101 441.165 445.753L447.369 442.178C447.948 441.849 448.818 441.811 449.32 442.101L455.582 445.715C456.084 446.005 456.027 446.507 455.447 446.855L449.243 450.43C448.663 450.759 447.794 450.797 447.291 450.507Z" fill="#06033E"/>
<path opacity="0.4" d="M314.658 406.541L296.221 395.893C295.718 395.603 295.776 395.1 296.356 394.752L302.56 391.177C303.139 390.849 304.009 390.81 304.512 391.1L322.948 401.748C323.451 402.038 323.393 402.541 322.813 402.889L316.61 406.464C316.049 406.792 315.16 406.831 314.658 406.541Z" fill="#06033E"/>
<path opacity="0.4" d="M433.435 475.109L414.998 464.461C414.496 464.171 414.554 463.668 415.133 463.321L421.337 459.745C421.917 459.417 422.786 459.378 423.289 459.668L441.726 470.316C442.228 470.606 442.17 471.109 441.591 471.457L435.387 475.032C434.826 475.361 433.938 475.399 433.435 475.109Z" fill="#06033E"/>
<path opacity="0.4" d="M394.763 465.118L388.502 461.504C387.999 461.214 388.057 460.712 388.637 460.364L396.019 456.093C396.599 455.764 397.469 455.725 397.971 456.015L404.233 459.629C404.735 459.919 404.677 460.422 404.098 460.77L396.715 465.041C396.155 465.369 395.285 465.408 394.763 465.118Z" fill="#06033E"/>
<path opacity="0.4" d="M324.552 424.572L314.542 418.794C314.039 418.504 314.097 418.001 314.677 417.654L322.059 413.383C322.639 413.054 323.509 413.015 324.011 413.305L334.022 419.084C334.525 419.374 334.467 419.876 333.887 420.224L326.504 424.495C325.944 424.843 325.055 424.862 324.552 424.572Z" fill="#06033E"/>
<path opacity="0.4" d="M385.449 459.745L375.438 453.967C374.935 453.677 374.993 453.174 375.573 452.827L382.956 448.556C383.535 448.227 384.405 448.188 384.908 448.478L394.918 454.257C395.421 454.547 395.363 455.049 394.783 455.397L387.401 459.668C386.84 459.996 385.951 460.035 385.449 459.745Z" fill="#06033E"/>
<path opacity="0.4" d="M338.506 432.631L328.495 426.853C327.993 426.563 328.051 426.06 328.631 425.712L336.013 421.441C336.593 421.113 337.462 421.074 337.965 421.364L347.976 427.143C348.478 427.432 348.42 427.935 347.84 428.283L340.458 432.554C339.897 432.882 339.009 432.921 338.506 432.631Z" fill="#06033E"/>
<path opacity="0.4" d="M338.062 421.422L381.603 446.565C382.144 446.874 382.144 447.377 381.603 447.686L374.066 452.034C373.525 452.343 372.655 452.343 372.114 452.034L328.573 426.911L338.062 421.422Z" fill="#06033E"/>
<path opacity="0.4" d="M421.8 475.245L428.777 479.264C429.183 479.496 429.144 479.921 428.661 480.192L425.646 481.931C425.163 482.202 424.448 482.241 424.042 481.989L417.066 477.969C416.66 477.738 416.698 477.312 417.181 477.042L420.196 475.303C420.66 475.032 421.375 474.993 421.8 475.245Z" fill="#06033E"/>
<path opacity="0.4" d="M412.041 469.601L419.018 473.621C419.424 473.853 419.385 474.278 418.902 474.549L415.887 476.288C415.404 476.559 414.689 476.597 414.283 476.346L407.306 472.326C406.9 472.094 406.939 471.669 407.422 471.399L410.437 469.659C410.92 469.408 411.635 469.369 412.041 469.601Z" fill="#06033E"/>
<path opacity="0.4" d="M402.378 464.036L409.355 468.055C409.761 468.287 409.722 468.712 409.239 468.983L406.224 470.722C405.741 470.993 405.026 471.032 404.62 470.78L397.643 466.761C397.238 466.529 397.276 466.103 397.759 465.833L400.774 464.094C401.238 463.823 401.972 463.784 402.378 464.036Z" fill="#06033E"/>
<path opacity="0.4" d="M417.394 466.529L424.371 470.548C424.777 470.78 424.738 471.205 424.255 471.476L421.24 473.215C420.757 473.486 420.042 473.525 419.636 473.273L412.66 469.254C412.254 469.022 412.292 468.596 412.775 468.326L415.79 466.587C416.254 466.316 416.969 466.297 417.394 466.529Z" fill="#06033E"/>
</g>
<g opacity="0.4">
<path opacity="0.4" d="M291.796 405.672L285.534 402.058C285.032 401.768 285.09 401.265 285.669 400.917L293.052 396.646C293.632 396.318 294.501 396.279 295.004 396.569L301.265 400.183C301.768 400.473 301.71 400.975 301.13 401.323L293.748 405.594C293.187 405.923 292.298 405.961 291.796 405.672Z" fill="#06033E"/>
<path opacity="0.4" d="M301.477 411.257L295.216 407.643C294.713 407.353 294.771 406.85 295.351 406.503L302.734 402.232C303.313 401.903 304.183 401.864 304.685 402.154L310.947 405.768C311.45 406.058 311.392 406.561 310.812 406.908L303.429 411.179C302.85 411.508 301.98 411.547 301.477 411.257Z" fill="#06033E"/>
<path opacity="0.4" d="M311.14 416.842L304.879 413.228C304.376 412.938 304.434 412.436 305.014 412.088L312.397 407.817C312.976 407.488 313.846 407.45 314.348 407.739L320.61 411.353C321.112 411.643 321.055 412.146 320.475 412.494L313.092 416.765C312.512 417.093 311.643 417.132 311.14 416.842Z" fill="#06033E"/>
<path opacity="0.4" d="M324.515 412.223L318.253 408.609C317.751 408.319 317.809 407.817 318.388 407.469L324.592 403.894C325.172 403.565 326.041 403.526 326.544 403.816L332.805 407.43C333.308 407.72 333.25 408.223 332.67 408.57L326.467 412.146C325.887 412.474 325.017 412.513 324.515 412.223Z" fill="#06033E"/>
<path opacity="0.4" d="M334.177 417.808L327.916 414.194C327.413 413.904 327.471 413.402 328.051 413.054L334.255 409.479C334.835 409.15 335.704 409.112 336.207 409.401L342.468 413.015C342.971 413.305 342.913 413.808 342.333 414.156L336.129 417.731C335.569 418.059 334.68 418.098 334.177 417.808Z" fill="#06033E"/>
<path opacity="0.4" d="M343.841 423.393L337.579 419.779C337.077 419.49 337.134 418.987 337.714 418.639L343.918 415.064C344.498 414.735 345.367 414.697 345.87 414.987L352.131 418.601C352.634 418.89 352.576 419.393 351.996 419.741L345.792 423.316C345.232 423.645 344.343 423.683 343.841 423.393Z" fill="#06033E"/>
<path opacity="0.4" d="M353.522 428.978L347.261 425.365C346.758 425.075 346.816 424.572 347.396 424.224L353.6 420.649C354.179 420.321 355.049 420.282 355.551 420.572L361.813 424.186C362.315 424.476 362.257 424.978 361.678 425.326L355.474 428.901C354.894 429.23 354.025 429.268 353.522 428.978Z" fill="#06033E"/>
<path opacity="0.4" d="M363.185 434.544L356.923 430.93C356.421 430.641 356.479 430.138 357.059 429.79L363.262 426.215C363.842 425.886 364.712 425.848 365.214 426.138L371.476 429.752C371.978 430.041 371.92 430.544 371.341 430.892L365.137 434.467C364.557 434.796 363.687 434.834 363.185 434.544Z" fill="#06033E"/>
<path opacity="0.4" d="M372.848 440.129L366.587 436.516C366.084 436.226 366.142 435.723 366.722 435.375L372.925 431.8C373.505 431.472 374.375 431.433 374.877 431.723L381.139 435.337C381.641 435.627 381.583 436.129 381.004 436.477L374.8 440.052C374.24 440.381 373.351 440.419 372.848 440.129Z" fill="#06033E"/>
<path opacity="0.4" d="M382.531 445.715L376.269 442.101C375.767 441.811 375.825 441.308 376.404 440.961L382.608 437.385C383.188 437.057 384.057 437.018 384.56 437.308L390.822 440.922C391.324 441.212 391.266 441.714 390.686 442.062L384.483 445.637C383.903 445.966 383.033 446.005 382.531 445.715Z" fill="#06033E"/>
<path opacity="0.4" d="M392.194 451.3L385.932 447.686C385.43 447.396 385.488 446.894 386.068 446.546L392.271 442.97C392.851 442.642 393.721 442.603 394.223 442.893L400.485 446.507C400.987 446.797 400.929 447.299 400.349 447.647L394.146 451.223C393.566 451.551 392.696 451.59 392.194 451.3Z" fill="#06033E"/>
<path opacity="0.4" d="M401.857 456.885L395.595 453.271C395.093 452.981 395.151 452.479 395.73 452.131L401.934 448.556C402.514 448.227 403.383 448.188 403.886 448.478L410.147 452.092C410.65 452.382 410.592 452.885 410.012 453.232L403.809 456.808C403.248 457.136 402.359 457.175 401.857 456.885Z" fill="#06033E"/>
<path opacity="0.4" d="M411.52 462.47L405.258 458.856C404.755 458.566 404.813 458.064 405.393 457.716L411.597 454.141C412.177 453.812 413.046 453.774 413.549 454.063L419.81 457.677C420.313 457.967 420.255 458.47 419.675 458.818L413.471 462.393C412.911 462.721 412.022 462.76 411.52 462.47Z" fill="#06033E"/>
<path opacity="0.4" d="M338.757 409.575L332.495 405.961C331.993 405.672 332.051 405.169 332.631 404.821L338.834 401.246C339.414 400.917 340.284 400.879 340.786 401.169L347.048 404.783C347.55 405.072 347.492 405.575 346.913 405.923L340.709 409.498C340.129 409.827 339.26 409.865 338.757 409.575Z" fill="#06033E"/>
<path opacity="0.4" d="M328.94 403.913L322.679 400.299C322.176 400.009 322.234 399.507 322.814 399.159L329.018 395.583C329.597 395.255 330.467 395.216 330.97 395.506L337.231 399.12C337.734 399.41 337.676 399.912 337.096 400.26L330.892 403.836C330.332 404.164 329.443 404.203 328.94 403.913Z" fill="#06033E"/>
<path opacity="0.4" d="M319.122 398.231L305.633 390.443C305.13 390.153 305.188 389.65 305.768 389.303L311.972 385.727C312.551 385.399 313.421 385.36 313.923 385.65L327.413 393.438C327.915 393.728 327.857 394.231 327.278 394.579L321.074 398.154C320.494 398.502 319.625 398.521 319.122 398.231Z" fill="#06033E"/>
<path opacity="0.4" d="M325.983 391.332L315.045 385.012C314.542 384.722 314.6 384.22 315.18 383.872L321.384 380.297C321.963 379.968 322.833 379.93 323.335 380.219L334.274 386.539C334.776 386.829 334.718 387.331 334.139 387.679L327.935 391.254C327.375 391.583 326.486 391.622 325.983 391.332Z" fill="#06033E"/>
<path opacity="0.4" d="M348.42 415.161L342.158 411.547C341.656 411.257 341.714 410.754 342.294 410.406L348.497 406.831C349.077 406.503 349.947 406.464 350.449 406.754L356.711 410.368C357.213 410.658 357.155 411.16 356.575 411.508L350.372 415.083C349.811 415.412 348.922 415.45 348.42 415.161Z" fill="#06033E"/>
<path opacity="0.4" d="M358.103 420.746L351.841 417.132C351.339 416.842 351.397 416.339 351.976 415.992L358.18 412.416C358.76 412.088 359.629 412.049 360.132 412.339L366.393 415.953C366.896 416.243 366.838 416.745 366.258 417.093L360.055 420.668C359.475 420.997 358.605 421.036 358.103 420.746Z" fill="#06033E"/>
<path opacity="0.4" d="M367.766 426.331L361.504 422.717C361.002 422.427 361.06 421.925 361.639 421.577L367.843 418.001C368.423 417.673 369.292 417.634 369.795 417.924L376.056 421.538C376.559 421.828 376.501 422.33 375.921 422.678L369.718 426.254C369.138 426.582 368.268 426.621 367.766 426.331Z" fill="#06033E"/>
<path opacity="0.4" d="M377.428 431.916L371.167 428.302C370.664 428.012 370.722 427.51 371.302 427.162L377.506 423.587C378.086 423.258 378.955 423.219 379.458 423.509L385.719 427.123C386.222 427.413 386.164 427.916 385.584 428.263L379.38 431.839C378.82 432.167 377.931 432.206 377.428 431.916Z" fill="#06033E"/>
<path opacity="0.4" d="M387.092 437.482L380.83 433.868C380.327 433.578 380.385 433.076 380.965 432.728L387.169 429.152C387.749 428.824 388.618 428.785 389.121 429.075L395.382 432.689C395.885 432.979 395.827 433.481 395.247 433.829L389.043 437.405C388.483 437.752 387.594 437.772 387.092 437.482Z" fill="#06033E"/>
<path opacity="0.4" d="M396.773 443.067L390.512 439.453C390.009 439.163 390.067 438.661 390.647 438.313L396.85 434.738C397.43 434.409 398.3 434.37 398.802 434.66L405.064 438.274C405.566 438.564 405.508 439.067 404.929 439.414L398.725 442.99C398.145 443.318 397.276 443.357 396.773 443.067Z" fill="#06033E"/>
<path opacity="0.4" d="M406.436 448.652L400.175 445.038C399.672 444.748 399.73 444.246 400.31 443.898L406.514 440.323C407.093 439.994 407.963 439.956 408.465 440.245L414.727 443.859C415.23 444.149 415.172 444.652 414.592 445L408.388 448.575C407.808 448.903 406.939 448.942 406.436 448.652Z" fill="#06033E"/>
<path opacity="0.4" d="M416.099 454.237L409.838 450.623C409.335 450.334 409.393 449.831 409.973 449.483L416.176 445.908C416.756 445.579 417.626 445.541 418.128 445.831L424.39 449.445C424.892 449.734 424.834 450.237 424.255 450.585L418.051 454.16C417.491 454.489 416.602 454.527 416.099 454.237Z" fill="#06033E"/>
<path opacity="0.4" d="M425.782 459.823L419.52 456.209C419.018 455.919 419.076 455.416 419.655 455.068L425.859 451.493C426.439 451.165 427.308 451.126 427.811 451.416L434.073 455.03C434.575 455.32 434.517 455.822 433.937 456.17L427.734 459.745C427.154 460.074 426.284 460.112 425.782 459.823Z" fill="#06033E"/>
<path opacity="0.4" d="M442.963 469.737L429.299 461.852C428.797 461.562 428.855 461.059 429.434 460.712L435.638 457.136C436.218 456.808 437.088 456.769 437.59 457.059L451.253 464.944C451.756 465.234 451.698 465.736 451.118 466.084L444.914 469.659C444.335 469.988 443.465 470.027 442.963 469.737Z" fill="#06033E"/>
<path opacity="0.4" d="M461.786 458.876L450.248 452.228C449.746 451.938 449.804 451.435 450.383 451.087L456.587 447.512C457.167 447.183 458.036 447.145 458.539 447.435L470.076 454.083C470.579 454.373 470.521 454.875 469.941 455.223L463.738 458.798C463.158 459.127 462.288 459.165 461.786 458.876Z" fill="#06033E"/>
<path opacity="0.4" d="M365.35 414.078L359.088 410.464C358.586 410.174 358.644 409.672 359.224 409.324L365.427 405.749C366.007 405.42 366.877 405.382 367.379 405.672L373.641 409.285C374.143 409.575 374.085 410.078 373.505 410.426L367.302 414.001C366.741 414.33 365.852 414.368 365.35 414.078Z" fill="#06033E"/>
<path opacity="0.4" d="M355.455 408.358L349.193 404.744C348.691 404.454 348.749 403.952 349.329 403.604L355.532 400.028C356.112 399.7 356.982 399.661 357.484 399.951L363.746 403.565C364.248 403.855 364.19 404.357 363.61 404.705L357.407 408.281C356.827 408.609 355.957 408.648 355.455 408.358Z" fill="#06033E"/>
<path opacity="0.4" d="M345.541 402.637L339.279 399.023C338.777 398.734 338.835 398.231 339.415 397.883L345.618 394.308C346.198 393.979 347.068 393.941 347.57 394.231L353.832 397.845C354.334 398.134 354.276 398.637 353.696 398.985L347.493 402.56C346.913 402.889 346.043 402.927 345.541 402.637Z" fill="#06033E"/>
<path opacity="0.4" d="M335.627 396.898L329.365 393.284C328.863 392.994 328.921 392.491 329.501 392.143L335.704 388.568C336.284 388.24 337.154 388.201 337.656 388.491L343.918 392.105C344.42 392.395 344.362 392.897 343.782 393.245L337.579 396.82C337.018 397.168 336.129 397.207 335.627 396.898Z" fill="#06033E"/>
<path opacity="0.4" d="M375.032 419.644L368.77 416.03C368.268 415.74 368.326 415.238 368.905 414.89L375.109 411.315C375.689 410.986 376.558 410.947 377.061 411.237L383.322 414.851C383.825 415.141 383.767 415.644 383.187 415.992L376.984 419.567C376.404 419.915 375.534 419.934 375.032 419.644Z" fill="#06033E"/>
<path opacity="0.4" d="M384.695 425.229L378.433 421.615C377.931 421.325 377.989 420.823 378.568 420.475L384.772 416.9C385.352 416.571 386.221 416.533 386.724 416.823L392.985 420.436C393.488 420.726 393.43 421.229 392.85 421.577L386.646 425.152C386.067 425.481 385.197 425.519 384.695 425.229Z" fill="#06033E"/>
<path opacity="0.4" d="M394.357 430.814L388.096 427.201C387.593 426.911 387.651 426.408 388.231 426.06L394.435 422.485C395.014 422.157 395.884 422.118 396.387 422.408L402.648 426.022C403.151 426.312 403.093 426.814 402.513 427.162L396.309 430.737C395.749 431.066 394.86 431.104 394.357 430.814Z" fill="#06033E"/>
<path opacity="0.4" d="M404.04 436.4L397.779 432.786C397.276 432.496 397.334 431.993 397.914 431.645L404.118 428.07C404.697 427.742 405.567 427.703 406.069 427.993L412.331 431.607C412.834 431.897 412.776 432.399 412.196 432.747L405.992 436.322C405.412 436.651 404.543 436.69 404.04 436.4Z" fill="#06033E"/>
<path opacity="0.4" d="M413.703 441.985L407.442 438.371C406.939 438.081 406.997 437.578 407.577 437.231L413.78 433.655C414.36 433.327 415.23 433.288 415.732 433.578L421.994 437.192C422.496 437.482 422.438 437.984 421.859 438.332L415.655 441.907C415.075 442.236 414.206 442.275 413.703 441.985Z" fill="#06033E"/>
<path opacity="0.4" d="M423.366 447.57L417.104 443.956C416.602 443.666 416.66 443.164 417.24 442.816L423.443 439.241C424.023 438.912 424.893 438.873 425.395 439.163L431.657 442.777C432.159 443.067 432.101 443.57 431.521 443.917L425.337 447.473C424.757 447.821 423.868 447.86 423.366 447.57Z" fill="#06033E"/>
<path opacity="0.4" d="M433.029 453.136L426.767 449.522C426.265 449.232 426.323 448.729 426.903 448.382L433.106 444.806C433.686 444.478 434.556 444.439 435.058 444.729L441.32 448.343C441.822 448.633 441.764 449.135 441.185 449.483L434.981 453.058C434.42 453.406 433.531 453.426 433.029 453.136Z" fill="#06033E"/>
<path opacity="0.4" d="M442.711 458.721L436.449 455.107C435.947 454.817 436.005 454.315 436.584 453.967L442.788 450.392C443.368 450.063 444.237 450.024 444.74 450.314L451.001 453.928C451.504 454.218 451.446 454.72 450.866 455.068L444.663 458.644C444.083 458.972 443.213 459.011 442.711 458.721Z" fill="#06033E"/>
<path opacity="0.4" d="M452.374 464.306L446.112 460.692C445.61 460.402 445.668 459.9 446.247 459.552L452.451 455.977C453.031 455.648 453.9 455.609 454.403 455.899L460.665 459.513C461.167 459.803 461.109 460.306 460.529 460.654L454.326 464.229C453.746 464.557 452.876 464.596 452.374 464.306Z" fill="#06033E"/>
<path opacity="0.4" d="M360.267 400.26L354.006 396.646C353.503 396.356 353.561 395.854 354.141 395.506L360.345 391.931C360.924 391.602 361.794 391.564 362.297 391.854L368.558 395.467C369.061 395.757 369.003 396.26 368.423 396.608L362.219 400.183C361.639 400.512 360.77 400.55 360.267 400.26Z" fill="#06033E"/>
<path opacity="0.4" d="M350.643 394.714L344.382 391.1C343.879 390.81 343.937 390.308 344.517 389.96L350.721 386.384C351.3 386.056 352.17 386.017 352.672 386.307L358.934 389.921C359.437 390.211 359.379 390.713 358.799 391.061L352.595 394.637C352.035 394.965 351.146 395.004 350.643 394.714Z" fill="#06033E"/>
<path opacity="0.4" d="M341.019 389.148L334.757 385.534C334.255 385.244 334.313 384.742 334.893 384.394L341.096 380.819C341.676 380.49 342.546 380.451 343.048 380.741L349.31 384.355C349.812 384.645 349.754 385.148 349.174 385.495L342.971 389.071C342.41 389.399 341.521 389.438 341.019 389.148Z" fill="#06033E"/>
<path opacity="0.4" d="M331.414 383.601L325.152 379.988C324.65 379.698 324.707 379.195 325.287 378.847L331.491 375.272C332.071 374.943 332.94 374.905 333.443 375.195L339.704 378.809C340.207 379.099 340.149 379.601 339.569 379.949L333.365 383.524C332.786 383.853 331.916 383.891 331.414 383.601Z" fill="#06033E"/>
<path opacity="0.4" d="M341.309 377.881L335.047 374.267C334.545 373.977 334.603 373.475 335.182 373.127L337.231 371.948C337.811 371.619 338.68 371.581 339.183 371.871L345.444 375.485C345.947 375.774 345.889 376.277 345.309 376.625L343.261 377.804C342.681 378.152 341.811 378.171 341.309 377.881Z" fill="#06033E"/>
<path opacity="0.4" d="M353.851 385.128L347.589 381.514C347.087 381.224 347.144 380.722 347.724 380.374L349.773 379.195C350.353 378.867 351.222 378.828 351.725 379.118L357.986 382.732C358.489 383.022 358.431 383.524 357.851 383.872L355.802 385.051C355.242 385.399 354.353 385.418 353.851 385.128Z" fill="#06033E"/>
<path opacity="0.4" d="M363.436 390.675L357.175 387.061C356.672 386.771 356.73 386.268 357.31 385.921L359.359 384.742C359.938 384.413 360.808 384.374 361.31 384.664L367.572 388.278C368.074 388.568 368.016 389.071 367.437 389.419L365.388 390.597C364.808 390.926 363.939 390.965 363.436 390.675Z" fill="#06033E"/>
<path opacity="0.4" d="M373.022 396.202L366.76 392.588C366.258 392.298 366.316 391.796 366.895 391.448L368.944 390.269C369.524 389.94 370.393 389.902 370.896 390.192L377.157 393.806C377.66 394.095 377.602 394.598 377.022 394.946L374.974 396.125C374.394 396.453 373.524 396.492 373.022 396.202Z" fill="#06033E"/>
<path opacity="0.4" d="M382.588 401.729L376.327 398.115C375.824 397.825 375.882 397.323 376.462 396.975L378.511 395.796C379.09 395.467 379.96 395.429 380.463 395.719L386.724 399.333C387.227 399.623 387.169 400.125 386.589 400.473L384.54 401.652C383.98 401.98 383.091 402.019 382.588 401.729Z" fill="#06033E"/>
<path opacity="0.4" d="M436.082 432.612L429.821 428.998C429.318 428.708 429.376 428.205 429.956 427.858L432.005 426.679C432.585 426.35 433.454 426.312 433.957 426.601L440.218 430.215C440.721 430.505 440.663 431.008 440.083 431.356L438.034 432.534C437.455 432.863 436.585 432.902 436.082 432.612Z" fill="#06033E"/>
<path opacity="0.4" d="M445.668 438.139L439.407 434.525C438.904 434.235 438.962 433.733 439.542 433.385L441.59 432.206C442.17 431.877 443.04 431.839 443.542 432.129L449.804 435.743C450.306 436.032 450.248 436.535 449.669 436.883L447.62 438.062C447.04 438.39 446.171 438.429 445.668 438.139Z" fill="#06033E"/>
<path opacity="0.4" d="M455.234 443.666L448.972 440.052C448.47 439.762 448.528 439.26 449.108 438.912L451.156 437.733C451.736 437.405 452.606 437.366 453.108 437.656L459.37 441.27C459.872 441.56 459.814 442.062 459.234 442.41L457.186 443.589C456.625 443.917 455.736 443.956 455.234 443.666Z" fill="#06033E"/>
<path opacity="0.4" d="M464.819 449.213L458.558 445.599C458.055 445.309 458.113 444.806 458.693 444.459L460.742 443.28C461.321 442.951 462.191 442.912 462.693 443.202L468.955 446.816C469.458 447.106 469.4 447.609 468.82 447.956L466.771 449.135C466.191 449.464 465.322 449.503 464.819 449.213Z" fill="#06033E"/>
<path opacity="0.4" d="M369.93 405.845L363.669 402.232C363.166 401.942 363.224 401.439 363.804 401.091L370.008 397.516C370.587 397.188 371.457 397.149 371.96 397.439L378.221 401.053C378.724 401.343 378.666 401.845 378.086 402.193L371.882 405.768C371.322 406.097 370.433 406.135 369.93 405.845Z" fill="#06033E"/>
<path opacity="0.4" d="M379.612 411.431L373.35 407.817C372.848 407.527 372.906 407.024 373.486 406.676L379.689 403.101C380.269 402.773 381.139 402.734 381.641 403.024L387.903 406.638C388.405 406.928 388.347 407.43 387.768 407.778L381.564 411.353C380.984 411.682 380.114 411.721 379.612 411.431Z" fill="#06033E"/>
<path opacity="0.4" d="M389.275 417.016L383.014 413.402C382.511 413.112 382.569 412.61 383.149 412.262L389.352 408.686C389.932 408.358 390.802 408.319 391.304 408.609L397.566 412.223C398.068 412.513 398.01 413.015 397.431 413.363L391.227 416.939C390.647 417.267 389.778 417.306 389.275 417.016Z" fill="#06033E"/>
<path opacity="0.4" d="M398.938 422.582L392.676 418.968C392.174 418.678 392.232 418.175 392.812 417.827L399.015 414.252C399.595 413.924 400.465 413.885 400.967 414.175L407.229 417.789C407.731 418.079 407.673 418.581 407.093 418.929L400.89 422.504C400.329 422.852 399.44 422.891 398.938 422.582Z" fill="#06033E"/>
<path opacity="0.4" d="M408.601 428.167L402.339 424.553C401.837 424.263 401.895 423.761 402.475 423.413L408.678 419.837C409.258 419.509 410.128 419.47 410.63 419.76L416.892 423.374C417.394 423.664 417.336 424.166 416.756 424.514L410.553 428.09C409.992 428.418 409.103 428.457 408.601 428.167Z" fill="#06033E"/>
<path opacity="0.4" d="M418.284 433.752L412.022 430.138C411.52 429.848 411.578 429.346 412.157 428.998L418.361 425.423C418.941 425.094 419.81 425.055 420.313 425.345L426.574 428.959C427.077 429.249 427.019 429.752 426.439 430.099L420.236 433.675C419.656 434.003 418.786 434.042 418.284 433.752Z" fill="#06033E"/>
<path opacity="0.4" d="M427.947 439.337L421.685 435.723C421.182 435.433 421.24 434.931 421.82 434.583L428.024 431.008C428.604 430.679 429.473 430.641 429.976 430.93L436.237 434.544C436.74 434.834 436.682 435.337 436.102 435.685L429.898 439.26C429.319 439.588 428.449 439.627 427.947 439.337Z" fill="#06033E"/>
<path opacity="0.4" d="M437.609 444.922L431.348 441.308C430.845 441.018 430.903 440.516 431.483 440.168L437.687 436.593C438.266 436.264 439.136 436.226 439.639 436.516L445.9 440.129C446.403 440.419 446.345 440.922 445.765 441.27L439.561 444.845C439.001 445.174 438.112 445.212 437.609 444.922Z" fill="#06033E"/>
<path opacity="0.4" d="M447.291 450.507L441.03 446.894C440.527 446.604 440.585 446.101 441.165 445.753L447.369 442.178C447.948 441.849 448.818 441.811 449.32 442.101L455.582 445.715C456.084 446.005 456.027 446.507 455.447 446.855L449.243 450.43C448.663 450.759 447.794 450.797 447.291 450.507Z" fill="#06033E"/>
<path opacity="0.4" d="M314.658 406.541L296.221 395.893C295.718 395.603 295.776 395.1 296.356 394.752L302.56 391.177C303.139 390.849 304.009 390.81 304.512 391.1L322.948 401.748C323.451 402.038 323.393 402.541 322.813 402.889L316.61 406.464C316.049 406.792 315.16 406.831 314.658 406.541Z" fill="#06033E"/>
<path opacity="0.4" d="M433.435 475.109L414.998 464.461C414.496 464.171 414.554 463.668 415.133 463.321L421.337 459.745C421.917 459.417 422.786 459.378 423.289 459.668L441.726 470.316C442.228 470.606 442.17 471.109 441.591 471.457L435.387 475.032C434.826 475.361 433.938 475.399 433.435 475.109Z" fill="#06033E"/>
<path opacity="0.4" d="M394.763 465.118L388.502 461.504C387.999 461.214 388.057 460.712 388.637 460.364L396.019 456.093C396.599 455.764 397.469 455.725 397.971 456.015L404.233 459.629C404.735 459.919 404.677 460.422 404.098 460.77L396.715 465.041C396.155 465.369 395.285 465.408 394.763 465.118Z" fill="#06033E"/>
<path opacity="0.4" d="M324.552 424.572L314.542 418.794C314.039 418.504 314.097 418.001 314.677 417.654L322.059 413.383C322.639 413.054 323.509 413.015 324.011 413.305L334.022 419.084C334.525 419.374 334.467 419.876 333.887 420.224L326.504 424.495C325.944 424.843 325.055 424.862 324.552 424.572Z" fill="#06033E"/>
<path opacity="0.4" d="M385.449 459.745L375.438 453.967C374.935 453.677 374.993 453.174 375.573 452.827L382.956 448.556C383.535 448.227 384.405 448.188 384.908 448.478L394.918 454.257C395.421 454.547 395.363 455.049 394.783 455.397L387.401 459.668C386.84 459.996 385.951 460.035 385.449 459.745Z" fill="#06033E"/>
<path opacity="0.4" d="M338.506 432.631L328.495 426.853C327.993 426.563 328.051 426.06 328.631 425.712L336.013 421.441C336.593 421.113 337.462 421.074 337.965 421.364L347.976 427.143C348.478 427.432 348.42 427.935 347.84 428.283L340.458 432.554C339.897 432.882 339.009 432.921 338.506 432.631Z" fill="#06033E"/>
<path opacity="0.4" d="M338.062 421.422L381.603 446.565C382.144 446.874 382.144 447.377 381.603 447.686L374.066 452.034C373.525 452.343 372.655 452.343 372.114 452.034L328.573 426.911L338.062 421.422Z" fill="#06033E"/>
<path opacity="0.4" d="M421.8 475.245L428.777 479.264C429.183 479.496 429.144 479.921 428.661 480.192L425.646 481.931C425.163 482.202 424.448 482.241 424.042 481.989L417.066 477.969C416.66 477.738 416.698 477.312 417.181 477.042L420.196 475.303C420.66 475.032 421.375 474.993 421.8 475.245Z" fill="#06033E"/>
<path opacity="0.4" d="M412.041 469.601L419.018 473.621C419.424 473.853 419.385 474.278 418.902 474.549L415.887 476.288C415.404 476.559 414.689 476.597 414.283 476.346L407.306 472.326C406.9 472.094 406.939 471.669 407.422 471.399L410.437 469.659C410.92 469.408 411.635 469.369 412.041 469.601Z" fill="#06033E"/>
<path opacity="0.4" d="M402.378 464.036L409.355 468.055C409.761 468.287 409.722 468.712 409.239 468.983L406.224 470.722C405.741 470.993 405.026 471.032 404.62 470.78L397.643 466.761C397.238 466.529 397.276 466.103 397.759 465.833L400.774 464.094C401.238 463.823 401.972 463.784 402.378 464.036Z" fill="#06033E"/>
<path opacity="0.4" d="M417.394 466.529L424.371 470.548C424.777 470.78 424.738 471.205 424.255 471.476L421.24 473.215C420.757 473.486 420.042 473.525 419.636 473.273L412.66 469.254C412.254 469.022 412.292 468.596 412.775 468.326L415.79 466.587C416.254 466.316 416.969 466.297 417.394 466.529Z" fill="#06033E"/>
</g>
<path d="M519.705 455.242L334.989 348.602C332.09 346.921 330.563 342.843 331.607 339.481L373.37 203.852C374.414 200.489 377.602 199.117 380.501 200.798L565.217 307.438C568.116 309.12 569.643 313.197 568.6 316.56L526.836 452.189C525.812 455.552 522.623 456.904 519.705 455.242Z" fill="url(#paint8_radial_37_520)"/>
<path d="M517.966 450.488L338.815 346.96C336.032 345.356 334.583 341.452 335.569 338.224L375.496 208.567C376.481 205.34 379.535 204.045 382.318 205.649L561.468 309.178C564.251 310.782 565.701 314.686 564.715 317.913L524.788 447.57C523.802 450.778 520.749 452.092 517.966 450.488Z" fill="url(#paint9_linear_37_520)"/>
<path opacity="0.4" d="M517.966 450.488L338.815 346.96C336.032 345.356 334.583 341.452 335.569 338.224L375.496 208.567C376.481 205.34 379.535 204.045 382.318 205.649L561.468 309.178C564.251 310.782 565.701 314.686 564.715 317.913L524.788 447.57C523.802 450.778 520.749 452.092 517.966 450.488Z" fill="#06033E"/>
<path opacity="0.4" d="M517.966 450.488L338.815 346.96C336.032 345.356 334.583 341.452 335.569 338.224L375.496 208.567C376.481 205.34 379.535 204.045 382.318 205.649L561.468 309.178C564.251 310.782 565.701 314.686 564.715 317.913L524.788 447.57C523.802 450.778 520.749 452.092 517.966 450.488Z" fill="#06033E"/>
<path opacity="0.5" d="M508.341 410.87L387.052 340.853C385.139 339.751 384.153 337.065 384.83 334.862L412.253 245.808C412.93 243.605 415.036 242.697 416.93 243.798L538.219 313.816C540.132 314.917 541.118 317.604 540.441 319.807L513.018 408.86C512.342 411.063 510.254 411.972 508.341 410.87Z" fill="#06033E"/>
<path d="M491.953 413.015L370.664 342.998C368.751 341.896 367.765 339.21 368.442 337.007L395.865 247.953C396.541 245.75 398.648 244.842 400.542 245.944L521.831 315.961C523.744 317.063 524.73 319.749 524.053 321.952L496.63 411.005C495.953 413.209 493.866 414.117 491.953 413.015Z" fill="url(#paint10_radial_37_520)"/>
<g opacity="0.5">
<path opacity="0.5" d="M491.953 413.015L370.664 342.998C368.751 341.896 367.765 339.21 368.442 337.007L395.865 247.953C396.541 245.75 398.648 244.842 400.542 245.944L521.831 315.961C523.744 317.063 524.73 319.749 524.053 321.952L496.63 411.005C495.953 413.209 493.866 414.117 491.953 413.015Z" fill="#06033E"/>
</g>
<path d="M521.85 315.961L400.562 245.944C399.363 245.248 398.088 245.344 397.141 246.06C397.721 246.04 398.3 246.175 398.9 246.504L520.188 316.522C522.102 317.623 523.087 320.309 522.411 322.513L494.988 411.566C494.736 412.397 494.273 413.035 493.712 413.46C495.007 413.421 496.166 412.532 496.65 411.006L524.073 321.952C524.749 319.749 523.744 317.063 521.85 315.961Z" fill="white"/>
<path opacity="0.4" d="M338.99 485.738C337.328 485.738 335.724 485.391 334.487 484.695L285.902 456.634C284.607 455.88 283.911 454.836 283.911 453.638C283.911 452.266 284.897 450.913 286.597 449.928L311.605 435.491C314.658 433.733 319.142 433.559 321.828 435.105L370.413 463.166C371.708 463.9 372.404 464.963 372.404 466.161C372.404 467.534 371.418 468.886 369.718 469.872L344.71 484.308C343.048 485.236 340.98 485.738 338.99 485.738ZM317.345 435.453C315.586 435.453 313.731 435.878 312.301 436.69L287.293 451.126C286.037 451.86 285.322 452.769 285.322 453.619C285.322 454.469 286.018 455.049 286.617 455.397L335.202 483.458C337.405 484.734 341.444 484.56 344.014 483.072L369.022 468.635C370.278 467.901 370.993 466.992 370.993 466.142C370.993 465.292 370.297 464.712 369.698 464.364L321.113 436.303C320.128 435.723 318.775 435.453 317.345 435.453Z" fill="#06033E"/>
<path d="M430.112 292.654L422.613 288.325C421.917 287.919 421.55 286.953 421.782 286.161C422.014 285.368 422.768 285.059 423.463 285.465L430.962 289.794C431.658 290.2 432.025 291.166 431.793 291.958C431.561 292.751 430.807 293.06 430.112 292.654Z" fill="white"/>
<path d="M447.968 302.974L436.914 296.597C436.218 296.191 435.851 295.224 436.083 294.432C436.315 293.64 437.068 293.331 437.764 293.736L448.819 300.114C449.514 300.52 449.882 301.486 449.65 302.278C449.418 303.051 448.664 303.38 447.968 302.974Z" fill="white"/>
<path d="M414.979 326.049L407.481 321.72C406.785 321.314 406.418 320.348 406.65 319.556C406.882 318.763 407.635 318.454 408.331 318.86L415.83 323.189C416.525 323.595 416.892 324.561 416.661 325.353C416.429 326.126 415.675 326.455 414.979 326.049Z" fill="white"/>
<path d="M430.904 335.229L419.849 328.851C419.153 328.446 418.786 327.479 419.018 326.687C419.25 325.895 420.004 325.585 420.7 325.991L431.754 332.369C432.45 332.775 432.817 333.741 432.585 334.533C432.353 335.326 431.599 335.635 430.904 335.229Z" fill="white"/>
<path d="M407.636 286.721L402.959 284.015C402.263 283.61 401.896 282.643 402.128 281.851C402.36 281.059 403.113 280.749 403.809 281.155L408.486 283.861C409.182 284.267 409.549 285.233 409.317 286.025C409.085 286.798 408.331 287.108 407.636 286.721Z" fill="white"/>
<path d="M421.744 301.873L407.423 293.601C406.727 293.195 406.36 292.229 406.592 291.437C406.824 290.644 407.578 290.335 408.273 290.741L422.594 299.012C423.29 299.418 423.657 300.384 423.425 301.177C423.193 301.95 422.439 302.278 421.744 301.873Z" fill="white"/>
<path d="M408.544 308.289L403.867 305.583C403.171 305.177 402.804 304.211 403.036 303.419C403.268 302.626 404.021 302.317 404.717 302.723L409.394 305.428C410.09 305.834 410.457 306.801 410.225 307.593C409.993 308.366 409.239 308.695 408.544 308.289Z" fill="white"/>
<path d="M432.624 350.264L420.12 343.037C419.424 342.631 419.057 341.664 419.289 340.872C419.521 340.08 420.275 339.771 420.97 340.176L433.474 347.404C434.17 347.81 434.537 348.776 434.305 349.569C434.073 350.361 433.319 350.67 432.624 350.264Z" fill="white"/>
<path d="M403.287 319.285L400.272 317.546C399.577 317.14 399.209 316.174 399.441 315.381C399.673 314.589 400.427 314.28 401.123 314.686L404.137 316.425C404.833 316.831 405.2 317.797 404.968 318.589C404.737 319.382 403.983 319.691 403.287 319.285Z" fill="white"/>
<path d="M400.446 331.692L396.717 329.528C396.021 329.122 395.654 328.156 395.886 327.363C396.118 326.571 396.871 326.262 397.567 326.668L401.297 328.832C401.993 329.238 402.36 330.204 402.128 330.997C401.896 331.77 401.142 332.079 400.446 331.692Z" fill="white"/>
<path d="M414.959 340.08L405.123 334.398C404.427 333.992 404.06 333.026 404.292 332.233C404.524 331.441 405.277 331.132 405.973 331.538L415.81 337.219C416.506 337.625 416.873 338.592 416.641 339.384C416.409 340.157 415.655 340.466 414.959 340.08Z" fill="white"/>
<path d="M401.992 339.597L394.919 335.519C394.223 335.113 393.856 334.147 394.088 333.354C394.32 332.562 395.074 332.253 395.769 332.659L402.843 336.736C403.538 337.142 403.905 338.108 403.674 338.901C403.442 339.693 402.688 340.002 401.992 339.597Z" fill="white"/>
<path d="M443.369 356.487L438.828 353.859C438.132 353.453 437.765 352.487 437.997 351.695C438.229 350.902 438.982 350.593 439.678 350.999L444.22 353.627C444.915 354.033 445.283 354.999 445.051 355.792C444.819 356.584 444.065 356.893 443.369 356.487Z" fill="white"/>
<path d="M425.956 318.338L413.452 311.11C412.756 310.704 412.389 309.738 412.621 308.946C412.853 308.153 413.607 307.844 414.303 308.25L426.806 315.478C427.502 315.884 427.869 316.85 427.637 317.642C427.405 318.435 426.652 318.744 425.956 318.338Z" fill="white"/>
<path d="M427.444 312.173L405.644 299.592C404.948 299.186 404.581 298.22 404.813 297.428C405.045 296.635 405.799 296.326 406.494 296.732L428.294 309.313C428.99 309.719 429.357 310.685 429.125 311.477C428.893 312.27 428.139 312.579 427.444 312.173Z" fill="#CED210"/>
<path d="M414.572 318.783L402.069 311.555C401.373 311.149 401.006 310.183 401.238 309.39C401.47 308.598 402.223 308.289 402.919 308.695L415.423 315.922C416.119 316.328 416.486 317.295 416.254 318.087C416.022 318.879 415.268 319.188 414.572 318.783Z" fill="#CED210"/>
<path d="M435.444 323.827L430.903 321.198C430.207 320.792 429.84 319.826 430.072 319.034C430.304 318.241 431.057 317.932 431.753 318.338L436.295 320.966C436.99 321.372 437.357 322.339 437.126 323.131C436.894 323.904 436.14 324.232 435.444 323.827Z" fill="#CED210"/>
<path d="M481.691 322.435L454.77 306.897C454.075 306.491 453.707 305.525 453.939 304.733C454.171 303.94 454.925 303.631 455.621 304.037L482.542 319.575C483.237 319.981 483.604 320.947 483.373 321.739C483.141 322.532 482.387 322.841 481.691 322.435Z" fill="#CED210"/>
<path d="M413.529 332.233L398.493 323.556C397.797 323.15 397.43 322.184 397.662 321.392C397.894 320.599 398.648 320.29 399.344 320.696L414.379 329.373C415.075 329.779 415.442 330.745 415.21 331.538C414.978 332.311 414.224 332.62 413.529 332.233Z" fill="#F8359E"/>
<path d="M415.81 284.402L404.755 278.024C404.059 277.619 403.692 276.652 403.924 275.86C404.156 275.068 404.91 274.758 405.606 275.164L416.66 281.542C417.356 281.948 417.723 282.914 417.491 283.706C417.259 284.499 416.505 284.808 415.81 284.402Z" fill="#F8359E"/>
<path d="M399.692 345.298L386.879 337.896C386.183 337.49 385.816 336.524 386.048 335.731C386.28 334.939 387.034 334.63 387.729 335.036L400.542 342.437C401.238 342.843 401.605 343.81 401.373 344.602C401.141 345.375 400.388 345.684 399.692 345.298Z" fill="#CED210"/>
<path d="M484.706 308.598L479.218 305.428C478.715 305.139 478.444 304.424 478.599 303.844C478.773 303.264 479.314 303.032 479.836 303.322L485.324 306.491C485.827 306.781 486.097 307.496 485.943 308.076C485.769 308.656 485.209 308.888 484.706 308.598Z" fill="white"/>
<path d="M495.162 314.628L489.673 311.458C489.171 311.168 488.9 310.453 489.055 309.873C489.229 309.294 489.77 309.062 490.291 309.352L495.78 312.521C496.282 312.811 496.553 313.526 496.398 314.106C496.225 314.705 495.664 314.937 495.162 314.628Z" fill="white"/>
<path d="M505.616 320.677L500.128 317.507C499.625 317.217 499.355 316.502 499.509 315.922C499.683 315.343 500.224 315.111 500.746 315.401L506.235 318.57C506.737 318.86 507.008 319.575 506.853 320.155C506.679 320.735 506.119 320.966 505.616 320.677Z" fill="white"/>
<path d="M510.757 323.633L510.583 323.537C510.081 323.247 509.81 322.532 509.965 321.952C510.139 321.372 510.68 321.14 511.202 321.43L511.376 321.527C511.878 321.817 512.149 322.532 511.994 323.112C511.82 323.711 511.26 323.943 510.757 323.633Z" fill="#F8359E"/>
<path d="M227.884 387.776C224.425 387.776 220.946 386.887 217.854 385.09L181.135 363.889C179.551 362.962 178.584 361.319 178.584 359.483C178.584 357.647 179.531 356.004 181.135 355.077L217.854 333.876C224.039 330.301 231.73 330.301 237.915 333.876L274.634 355.077C276.218 356.004 277.185 357.647 277.185 359.483C277.185 361.319 276.238 362.962 274.634 363.889L237.915 385.09C234.822 386.887 231.344 387.776 227.884 387.776ZM219.053 383.041C224.502 386.191 231.286 386.191 236.736 383.041L273.455 361.841C274.305 361.357 274.808 360.488 274.808 359.502C274.808 358.517 274.305 357.647 273.455 357.164L236.736 335.963C231.286 332.813 224.502 332.813 219.053 335.963L182.333 357.164C181.483 357.647 180.981 358.517 180.981 359.502C180.981 360.469 181.483 361.357 182.333 361.841L219.053 383.041Z" fill="url(#paint11_linear_37_520)"/>
<path opacity="0.6" d="M227.691 374.557C241.62 374.557 252.911 368.042 252.911 360.005C252.911 351.968 241.62 345.452 227.691 345.452C213.762 345.452 202.471 351.968 202.471 360.005C202.471 368.042 213.762 374.557 227.691 374.557Z" fill="#020230"/>
<path d="M265.086 256.225H193.252L199.939 333.992C199.939 338.302 202.799 342.631 208.5 345.935C219.922 352.526 238.417 352.526 249.838 345.935C255.539 342.631 258.4 338.321 258.4 333.992L265.086 256.225Z" fill="url(#paint12_radial_37_520)"/>
<path opacity="0.4" d="M265.086 256.225H193.252L194.354 269.019C195.997 271.125 198.219 273.154 201.002 275.01C214.723 284.112 237.373 285.871 252.834 279.319L250.437 336.195C250.341 338.669 249.471 341.085 247.867 342.979C245.548 345.723 241.064 348.931 232.445 350.767C238.803 350.361 244.968 348.757 249.838 345.935C255.539 342.631 258.4 338.321 258.4 333.992L263.753 271.628L265.086 256.225Z" fill="#06033E"/>
<path opacity="0.4" d="M229.16 276.962C248.991 276.962 265.067 267.677 265.067 256.225C265.067 244.772 248.991 235.488 229.16 235.488C209.329 235.488 193.252 244.772 193.252 256.225C193.252 267.677 209.329 276.962 229.16 276.962Z" fill="#06033E"/>
<path opacity="0.4" d="M229.16 266.777C246.248 266.777 260.101 258.782 260.101 248.92C260.101 239.058 246.248 231.063 229.16 231.063C212.072 231.063 198.22 239.058 198.22 248.92C198.22 258.782 212.072 266.777 229.16 266.777Z" fill="#06033E"/>
<path d="M267.213 255.259V255.201C267.213 255.162 267.213 255.123 267.193 255.085L266.497 248.127L266.459 248.205C266.15 242.929 262.516 237.711 255.559 233.691C240.968 225.265 217.333 225.265 202.761 233.691C195.61 237.807 191.977 243.199 191.842 248.611V248.591L191.185 254.795C191.165 254.949 191.146 255.123 191.127 255.278L191.107 255.375C190.721 261.288 194.412 267.26 202.22 271.763C217.081 280.344 241.2 280.344 256.081 271.763C263.946 267.221 267.657 261.192 267.213 255.259Z" fill="url(#paint13_linear_37_520)"/>
<path d="M229.16 266.777C246.248 266.777 260.101 258.782 260.101 248.92C260.101 239.058 246.248 231.063 229.16 231.063C212.072 231.063 198.22 239.058 198.22 248.92C198.22 258.782 212.072 266.777 229.16 266.777Z" fill="url(#paint14_linear_37_520)"/>
<path d="M227.691 266.777C244.779 266.777 258.632 258.782 258.632 248.92C258.632 239.058 244.779 231.063 227.691 231.063C210.603 231.063 196.75 239.058 196.75 248.92C196.75 258.782 210.603 266.777 227.691 266.777Z" fill="url(#paint15_linear_37_520)"/>
<path opacity="0.4" d="M210.955 238.948C223.033 231.971 242.63 231.971 254.708 238.948C254.863 239.044 254.998 239.141 255.134 239.218C253.974 238.175 252.602 237.189 251.036 236.281C238.958 229.304 219.361 229.304 207.283 236.281C195.359 243.161 195.223 254.273 206.858 261.269C199.108 254.35 200.461 245.016 210.955 238.948Z" fill="#06033E"/>
<path d="M207.284 239.392C219.362 232.416 238.959 232.416 251.037 239.392C256.391 242.484 259.367 246.427 259.985 250.466C260.739 245.402 257.763 240.165 251.037 236.281C238.959 229.304 219.362 229.304 207.284 236.281C200.558 240.165 197.582 245.383 198.336 250.466C198.954 246.427 201.93 242.484 207.284 239.392Z" fill="url(#paint16_linear_37_520)"/>
<path d="M255.791 233.865C241.238 225.284 217.506 225.072 202.799 233.401C188.092 241.731 187.976 255.413 202.529 263.994C217.081 272.575 240.813 272.787 255.52 264.458C270.247 256.128 270.363 242.446 255.791 233.865ZM251.037 261.559C246.998 263.897 242.127 265.424 236.967 266.197L236.407 264.361C236.175 263.607 235.499 263.105 234.706 263.105H223.594C222.821 263.105 222.125 263.607 221.893 264.361L221.333 266.197C216.173 265.424 211.303 263.897 207.264 261.559C195.185 254.582 195.185 243.277 207.264 236.3C219.342 229.323 238.939 229.323 251.017 236.3C263.115 243.277 263.115 254.582 251.037 261.559Z" fill="url(#paint17_radial_37_520)"/>
<path d="M251.037 234.967C238.958 227.99 219.362 227.99 207.283 234.967C200.945 238.619 197.949 243.47 198.258 248.263C198.529 243.914 201.544 239.624 207.283 236.3C219.362 229.323 238.958 229.323 251.037 236.3C256.777 239.624 259.792 243.914 260.062 248.263C260.371 243.47 257.376 238.638 251.037 234.967Z" fill="white"/>
<path d="M255.521 263.144C240.814 271.473 217.082 271.26 202.529 262.68C195.591 258.602 191.997 253.365 191.707 248.089C191.417 253.79 195.011 259.588 202.529 264.013C217.082 272.594 240.814 272.807 255.521 264.477C263.232 260.109 266.923 254.273 266.614 248.475C266.343 253.809 262.652 259.104 255.521 263.144Z" fill="white"/>
<path d="M232.426 267.144H225.914C225.411 267.144 225.025 266.738 225.025 266.255C225.025 265.753 225.43 265.366 225.914 265.366H232.426C232.929 265.366 233.315 265.772 233.315 266.255C233.315 266.758 232.929 267.144 232.426 267.144Z" fill="#0C0A78"/>
<path d="M232.484 265.347H225.836C225.372 265.347 225.005 265.714 225.005 266.178V266.294C225.005 266.371 225.024 266.448 225.044 266.526C225.14 266.178 225.449 265.907 225.836 265.907H232.484C232.871 265.907 233.18 266.178 233.276 266.526C233.296 266.448 233.315 266.39 233.315 266.294V266.197C233.315 265.733 232.948 265.347 232.484 265.347Z" fill="url(#paint18_linear_37_520)"/>
<path d="M230.185 326.011C229.373 329.064 226.223 330.9 223.169 330.088C220.116 329.277 218.28 326.127 219.092 323.073C219.903 320.02 222.802 319.15 225.856 319.962C228.928 320.754 230.996 322.957 230.185 326.011Z" fill="#CED210"/>
<path d="M234.707 319.962C233.547 321.082 232.079 320.947 231.093 319.942C230.107 318.937 229.991 317.449 231.151 316.328C232.311 315.207 234.494 314.647 235.48 315.652C236.466 316.657 235.847 318.841 234.707 319.962Z" fill="#CED210"/>
<path d="M228.696 315.169C228.406 316.753 227.131 317.507 225.739 317.256C224.367 317.005 223.401 315.864 223.691 314.28C223.981 312.695 225.43 310.956 226.822 311.207C228.213 311.439 228.986 313.584 228.696 315.169Z" fill="#CED210"/>
<path d="M221.294 314.434C221.913 315.922 221.217 317.237 219.922 317.778C218.627 318.319 217.217 317.855 216.598 316.367C215.98 314.879 216.289 312.637 217.584 312.096C218.898 311.555 220.695 312.946 221.294 314.434Z" fill="#CED210"/>
<path opacity="0.45" d="M231.518 266.255C231.518 266.255 251.598 259.53 243.462 236.455C235.325 213.38 219.498 206.345 225.875 187.889C225.875 187.889 215.884 202.828 225.218 223.042C234.552 243.257 236.601 240.938 236.504 250.601C236.369 262.081 227.093 266.255 227.093 266.255H231.518Z" fill="white"/>
<path opacity="0.45" d="M233.315 191.097C233.315 191.097 231.228 177.298 244.176 163.384C244.176 163.384 232.735 188.952 236.465 201.571C236.485 201.571 233.45 193.551 233.315 191.097Z" fill="white"/>
<path fill-rule="evenodd" clip-rule="evenodd" d="M546.131 129.02C527.415 126.571 510.762 139.817 508.937 158.604C507.111 177.391 520.804 194.606 539.52 197.054L644.02 210.724C644.06 211.012 644.125 211.303 644.217 211.593L653.772 241.52C655.051 245.528 660.409 246.26 662.716 242.74L679.94 216.469C680.148 216.151 680.315 215.823 680.442 215.488L687.629 216.428C706.345 218.876 722.998 205.631 724.823 186.843C726.649 168.056 712.956 150.841 694.24 148.393L546.131 129.02Z" fill="url(#paint19_linear_37_520)"/>
<path d="M582.768 165.243L582.264 170.492L567.795 168.614L568.3 163.364L582.768 165.243ZM571.646 152.421L568.925 180.728L562.126 179.846L564.848 151.539L571.646 152.421ZM588.42 154.599L585.698 182.906L578.919 182.026L581.641 153.719L588.42 154.599ZM605.813 156.857L603.091 185.164L596.293 184.281L599.014 155.974L605.813 156.857ZM614.296 157.958L613.79 163.227L590.218 160.167L590.725 154.898L614.296 157.958ZM620.552 158.77L626.092 159.49L630.493 180.001L638.682 161.124L644.221 161.843L631.912 188.905L627.418 188.322L620.552 158.77ZM617.182 158.333L622.915 159.077L621.895 180.912L621.259 187.522L614.461 186.64L617.182 158.333ZM641.858 161.536L647.611 162.283L644.889 190.59L638.071 189.705L638.707 183.095L641.858 161.536ZM668.384 188.326L667.88 193.575L653.624 191.724L654.129 186.475L668.384 188.326ZM658.767 163.731L656.045 192.038L649.247 191.156L651.969 162.849L658.767 163.731Z" fill="white"/>
<defs>
<filter id="filter0_f_37_520" x="78.6742" y="-49.6657" width="704.939" height="712.943" filterUnits="userSpaceOnUse" color-interpolation-filters="sRGB">
<feFlood flood-opacity="0" result="BackgroundImageFix"/>
<feBlend mode="normal" in="SourceGraphic" in2="BackgroundImageFix" result="shape"/>
<feGaussianBlur stdDeviation="75" result="effect1_foregroundBlur_37_520"/>
</filter>
<linearGradient id="paint0_linear_37_520" x1="431.144" y1="100.017" x2="431.144" y2="513.595" gradientUnits="userSpaceOnUse">
<stop stop-color="#363EFB"/>
<stop offset="1" stop-color="#2526B8"/>
</linearGradient>
<linearGradient id="paint1_linear_37_520" x1="616.558" y1="529.238" x2="658.429" y2="529.238" gradientUnits="userSpaceOnUse">
<stop stop-color="#CED20F"/>
<stop offset="1" stop-color="#560BD3"/>
</linearGradient>
<linearGradient id="paint2_linear_37_520" x1="554.788" y1="451.854" x2="625.121" y2="451.854" gradientUnits="userSpaceOnUse">
<stop stop-color="#CED210"/>
<stop offset="1" stop-color="#550BD1"/>
</linearGradient>
<linearGradient id="paint3_linear_37_520" x1="1.08617" y1="537.867" x2="87.712" y2="537.112" gradientUnits="userSpaceOnUse">
<stop offset="0.625" stop-color="#CED211"/>
<stop offset="1" stop-color="#E95F8D"/>
<stop offset="1" stop-color="#560BD3"/>
</linearGradient>
<linearGradient id="paint4_linear_37_520" x1="172.883" y1="470.906" x2="548.254" y2="470.906" gradientUnits="userSpaceOnUse">
<stop offset="0.453125" stop-color="#CED20F"/>
<stop offset="1" stop-color="#560BD2"/>
</linearGradient>
<radialGradient id="paint5_radial_37_520" cx="0" cy="0" r="1" gradientUnits="userSpaceOnUse" gradientTransform="translate(380.222 192.991) scale(286.699)">
<stop stop-color="#E39A65"/>
<stop offset="0.4742" stop-color="#A92FFB"/>
<stop offset="0.5947" stop-color="#891CFB"/>
<stop offset="0.7421" stop-color="#6507FA"/>
<stop offset="0.8016" stop-color="#0D0C6F"/>
</radialGradient>
<radialGradient id="paint6_radial_37_520" cx="0" cy="0" r="1" gradientUnits="userSpaceOnUse" gradientTransform="translate(204.871 423.232) scale(313.503)">
<stop stop-color="#CED20F"/>
<stop offset="0.4742" stop-color="#A92FFB"/>
<stop offset="0.5679" stop-color="#891CFB"/>
<stop offset="0.6825" stop-color="#6507FA"/>
<stop offset="0.7381" stop-color="#0D0C6F"/>
</radialGradient>
<radialGradient id="paint7_radial_37_520" cx="0" cy="0" r="1" gradientUnits="userSpaceOnUse" gradientTransform="translate(233.705 360.306) scale(281.132)">
<stop stop-color="#E39A65"/>
<stop offset="0.4742" stop-color="#A92FFB"/>
<stop offset="0.5875" stop-color="#891CFB"/>
<stop offset="0.7262" stop-color="#6507FA"/>
<stop offset="1" stop-color="#3919BB"/>
</radialGradient>
<radialGradient id="paint8_radial_37_520" cx="0" cy="0" r="1" gradientUnits="userSpaceOnUse" gradientTransform="translate(303.74 252.794) scale(286.757)">
<stop stop-color="#E39A65"/>
<stop offset="0.4742" stop-color="#A92FFB"/>
<stop offset="0.5875" stop-color="#891CFB"/>
<stop offset="0.7262" stop-color="#6507FA"/>
<stop offset="1" stop-color="#3919BB"/>
</radialGradient>
<linearGradient id="paint9_linear_37_520" x1="335.258" y1="328.068" x2="565.04" y2="328.068" gradientUnits="userSpaceOnUse">
<stop stop-color="#3919BB"/>
<stop offset="1" stop-color="#6507FA"/>
</linearGradient>
<radialGradient id="paint10_radial_37_520" cx="0" cy="0" r="1" gradientUnits="userSpaceOnUse" gradientTransform="translate(199.058 191.559) scale(446.616)">
<stop stop-color="#E39A65"/>
<stop offset="0.4742" stop-color="#A92FFB"/>
<stop offset="0.5875" stop-color="#891CFB"/>
<stop offset="0.7262" stop-color="#6507FA"/>
<stop offset="1" stop-color="#3919BB"/>
</radialGradient>
<linearGradient id="paint11_linear_37_520" x1="178.596" y1="359.501" x2="277.171" y2="359.501" gradientUnits="userSpaceOnUse">
<stop stop-color="#CED20F"/>
<stop offset="1" stop-color="#560BD1"/>
</linearGradient>
<radialGradient id="paint12_radial_37_520" cx="0" cy="0" r="1" gradientUnits="userSpaceOnUse" gradientTransform="translate(187.335 279.094) scale(212.298)">
<stop stop-color="#E39A65"/>
<stop offset="0.1528" stop-color="#A92FFB"/>
<stop offset="0.4087" stop-color="#3919BB"/>
<stop offset="0.9311" stop-color="#3919BB"/>
</radialGradient>
<linearGradient id="paint13_linear_37_520" x1="191.093" y1="252.794" x2="267.242" y2="252.794" gradientUnits="userSpaceOnUse">
<stop stop-color="#E39A65"/>
<stop offset="0.252" stop-color="#A92FFB"/>
<stop offset="0.5556" stop-color="#3919BB"/>
</linearGradient>
<linearGradient id="paint14_linear_37_520" x1="198.233" y1="248.925" x2="260.099" y2="248.925" gradientUnits="userSpaceOnUse">
<stop stop-color="#4F1FEC"/>
<stop offset="1" stop-color="#A92FFB"/>
</linearGradient>
<linearGradient id="paint15_linear_37_520" x1="196.765" y1="248.925" x2="258.631" y2="248.925" gradientUnits="userSpaceOnUse">
<stop stop-color="#4F1FEC"/>
<stop offset="1" stop-color="#A92FFB"/>
</linearGradient>
<linearGradient id="paint16_linear_37_520" x1="198.238" y1="240.77" x2="276.241" y2="240.77" gradientUnits="userSpaceOnUse">
<stop stop-color="#131060"/>
<stop offset="0.1857" stop-color="#141062"/>
<stop offset="0.2823" stop-color="#19106A"/>
<stop offset="0.3584" stop-color="#221078"/>
<stop offset="0.4238" stop-color="#2E0F8B"/>
<stop offset="0.4823" stop-color="#3E0FA3"/>
<stop offset="0.5359" stop-color="#510EC2"/>
<stop offset="0.5847" stop-color="#680DE5"/>
<stop offset="0.6071" stop-color="#740DF8"/>
<stop offset="0.6179" stop-color="#7A14F0"/>
<stop offset="0.6826" stop-color="#9B3CC3"/>
<stop offset="0.7477" stop-color="#B75D9D"/>
<stop offset="0.8123" stop-color="#CC7680"/>
<stop offset="0.8762" stop-color="#DC886C"/>
<stop offset="0.9391" stop-color="#E5935F"/>
<stop offset="1" stop-color="#E8975B"/>
</linearGradient>
<radialGradient id="paint17_radial_37_520" cx="0" cy="0" r="1" gradientUnits="userSpaceOnUse" gradientTransform="translate(181.588 231.249) scale(138.877)">
<stop stop-color="#E39A65"/>
<stop offset="0.252" stop-color="#A92FFB"/>
<stop offset="0.7357" stop-color="#3919BB"/>
</radialGradient>
<linearGradient id="paint18_linear_37_520" x1="224.27" y1="265.945" x2="235.061" y2="265.945" gradientUnits="userSpaceOnUse">
<stop stop-color="#131060"/>
<stop offset="0.1857" stop-color="#141062"/>
<stop offset="0.2823" stop-color="#19106A"/>
<stop offset="0.3584" stop-color="#221078"/>
<stop offset="0.4238" stop-color="#2E0F8B"/>
<stop offset="0.4823" stop-color="#3E0FA3"/>
<stop offset="0.5359" stop-color="#510EC2"/>
<stop offset="0.5847" stop-color="#680DE5"/>
<stop offset="0.6071" stop-color="#740DF8"/>
<stop offset="0.6179" stop-color="#7A14F0"/>
<stop offset="0.6826" stop-color="#9B3CC3"/>
<stop offset="0.7477" stop-color="#B75D9D"/>
<stop offset="0.8123" stop-color="#CC7680"/>
<stop offset="0.8762" stop-color="#DC886C"/>
<stop offset="0.9391" stop-color="#E5935F"/>
<stop offset="1" stop-color="#E8975B"/>
</linearGradient>
<linearGradient id="paint19_linear_37_520" x1="563.143" y1="146.509" x2="668.079" y2="194.984" gradientUnits="userSpaceOnUse">
<stop stop-color="#CCCE14"/>
<stop offset="1" stop-color="#570CD1"/>
</linearGradient>
</defs>
</svg>
